<?xml version="1.0" encoding="UTF-8" standalone="no"?>
<!DOCTYPE svg PUBLIC "-//W3C//DTD SVG 1.1//EN"
 "http://www.w3.org/Graphics/SVG/1.1/DTD/svg11.dtd">
<!-- Generated by graphviz version 2.42.3 ()
 -->
<!-- Title: Ogre::ScriptLoader Pages: 1 -->
<svg width="674pt" height="408pt"
 viewBox="0.00 0.00 674.00 408.00" xmlns="http://www.w3.org/2000/svg" xmlns:xlink="http://www.w3.org/1999/xlink">
<g id="graph0" class="graph" transform="scale(1 1) rotate(0) translate(4 404)">
<title>Ogre::ScriptLoader</title>
<!-- Node1 -->
<g id="node1" class="node">
<title>Node1</title>
<g id="a_node1"><a xlink:title="Abstract class defining the interface used by classes which wish to perform script loading to define ...">
<polygon fill="#bfbfbf" stroke="black" points="0,-171.5 0,-190.5 98,-190.5 98,-171.5 0,-171.5"/>
<text text-anchor="middle" x="49" y="-178.5" font-family="Helvetica,sans-Serif" font-size="10.00">Ogre::ScriptLoader</text>
</a>
</g>
</g>
<!-- Node2 -->
<g id="node2" class="node">
<title>Node2</title>
<g id="a_node2"><a xlink:href="class_ogre_1_1_hlms_manager.html" target="_top" xlink:title="HLMS stands for &quot;High Level Material System&quot;.">
<polygon fill="none" stroke="black" points="155.5,-247.5 155.5,-266.5 258.5,-266.5 258.5,-247.5 155.5,-247.5"/>
<text text-anchor="middle" x="207" y="-254.5" font-family="Helvetica,sans-Serif" font-size="10.00">Ogre::HlmsManager</text>
</a>
</g>
</g>
<!-- Node1&#45;&gt;Node2 -->
<g id="edge1" class="edge">
<title>Node1&#45;&gt;Node2</title>
<path fill="none" stroke="midnightblue" d="M69.67,-197.19C86.01,-209.91 110.31,-227.22 134,-238 142.24,-241.75 151.35,-244.87 160.25,-247.42"/>
<polygon fill="midnightblue" stroke="midnightblue" points="71.48,-194.16 61.48,-190.67 67.12,-199.64 71.48,-194.16"/>
</g>
<!-- Node3 -->
<g id="node3" class="node">
<title>Node3</title>
<g id="a_node3"><a xlink:href="class_ogre_1_1_particle_system_manager.html" target="_top" xlink:title="Manages particle systems, particle system scripts (templates) and the available emitter &amp; affector fa...">
<polygon fill="none" stroke="black" points="134,-209.5 134,-228.5 280,-228.5 280,-209.5 134,-209.5"/>
<text text-anchor="middle" x="207" y="-216.5" font-family="Helvetica,sans-Serif" font-size="10.00">Ogre::ParticleSystemManager</text>
</a>
</g>
</g>
<!-- Node1&#45;&gt;Node3 -->
<g id="edge2" class="edge">
<title>Node1&#45;&gt;Node3</title>
<path fill="none" stroke="midnightblue" d="M99.13,-192.97C120.99,-198.29 146.38,-204.48 166.92,-209.48"/>
<polygon fill="midnightblue" stroke="midnightblue" points="99.91,-189.56 89.37,-190.59 98.25,-196.36 99.91,-189.56"/>
</g>
<!-- Node4 -->
<g id="node4" class="node">
<title>Node4</title>
<g id="a_node4"><a xlink:href="class_ogre_1_1_resource_manager.html" target="_top" xlink:title="Defines a generic resource handler.">
<polygon fill="none" stroke="black" points="146.5,-171.5 146.5,-190.5 267.5,-190.5 267.5,-171.5 146.5,-171.5"/>
<text text-anchor="middle" x="207" y="-178.5" font-family="Helvetica,sans-Serif" font-size="10.00">Ogre::ResourceManager</text>
</a>
</g>
</g>
<!-- Node1&#45;&gt;Node4 -->
<g id="edge3" class="edge">
<title>Node1&#45;&gt;Node4</title>
<path fill="none" stroke="midnightblue" d="M108.29,-181C120.69,-181 133.79,-181 146.24,-181"/>
<polygon fill="midnightblue" stroke="midnightblue" points="108.08,-177.5 98.08,-181 108.08,-184.5 108.08,-177.5"/>
</g>
<!-- Node24 -->
<g id="node24" class="node">
<title>Node24</title>
<g id="a_node24"><a xlink:href="class_ogre_1_1_script_compiler_manager.html" target="_top" xlink:title="Manages threaded compilation of scripts.">
<polygon fill="none" stroke="black" points="135.5,-133.5 135.5,-152.5 278.5,-152.5 278.5,-133.5 135.5,-133.5"/>
<text text-anchor="middle" x="207" y="-140.5" font-family="Helvetica,sans-Serif" font-size="10.00">Ogre::ScriptCompilerManager</text>
</a>
</g>
</g>
<!-- Node1&#45;&gt;Node24 -->
<g id="edge23" class="edge">
<title>Node1&#45;&gt;Node24</title>
<path fill="none" stroke="midnightblue" d="M99.13,-169.03C120.99,-163.71 146.38,-157.52 166.92,-152.52"/>
<polygon fill="midnightblue" stroke="midnightblue" points="98.25,-165.64 89.37,-171.41 99.91,-172.44 98.25,-165.64"/>
</g>
<!-- Node25 -->
<g id="node25" class="node">
<title>Node25</title>
<g id="a_node25"><a xlink:href="class_ogre_1_1v1_1_1_overlay_manager.html" target="_top" xlink:title="Manages Overlay objects, parsing them from .overlay files and storing a lookup library of them.">
<polygon fill="none" stroke="black" points="143,-95.5 143,-114.5 271,-114.5 271,-95.5 143,-95.5"/>
<text text-anchor="middle" x="207" y="-102.5" font-family="Helvetica,sans-Serif" font-size="10.00">Ogre::v1::OverlayManager</text>
</a>
</g>
</g>
<!-- Node1&#45;&gt;Node25 -->
<g id="edge24" class="edge">
<title>Node1&#45;&gt;Node25</title>
<path fill="none" stroke="midnightblue" d="M69.67,-164.81C86.01,-152.09 110.31,-134.78 134,-124 142.24,-120.25 151.35,-117.13 160.25,-114.58"/>
<polygon fill="midnightblue" stroke="midnightblue" points="67.12,-162.36 61.48,-171.33 71.48,-167.84 67.12,-162.36"/>
</g>
<!-- Node5 -->
<g id="node5" class="node">
<title>Node5</title>
<g id="a_node5"><a xlink:href="class_ogre_1_1_font_manager.html" target="_top" xlink:title="Manages Font resources, parsing .fontdef files and generally organising them.">
<polygon fill="none" stroke="black" points="340.5,-316.5 340.5,-335.5 439.5,-335.5 439.5,-316.5 340.5,-316.5"/>
<text text-anchor="middle" x="390" y="-323.5" font-family="Helvetica,sans-Serif" font-size="10.00">Ogre::FontManager</text>
</a>
</g>
</g>
<!-- Node4&#45;&gt;Node5 -->
<g id="edge4" class="edge">
<title>Node4&#45;&gt;Node5</title>
<path fill="none" stroke="midnightblue" d="M274.62,-195.64C276.51,-196.97 278.31,-198.42 280,-200 316.64,-234.28 279.3,-272.78 316,-307 322.8,-313.34 331.44,-317.63 340.39,-320.51"/>
<polygon fill="midnightblue" stroke="midnightblue" points="276.21,-192.51 265.8,-190.51 272.69,-198.57 276.21,-192.51"/>
</g>
<!-- Node6 -->
<g id="node6" class="node">
<title>Node6</title>
<g id="a_node6"><a xlink:href="class_ogre_1_1_gpu_program_manager.html" target="_top" xlink:title=" ">
<polygon fill="none" stroke="black" points="323,-278.5 323,-297.5 457,-297.5 457,-278.5 323,-278.5"/>
<text text-anchor="middle" x="390" y="-285.5" font-family="Helvetica,sans-Serif" font-size="10.00">Ogre::GpuProgramManager</text>
</a>
</g>
</g>
<!-- Node4&#45;&gt;Node6 -->
<g id="edge5" class="edge">
<title>Node4&#45;&gt;Node6</title>
<path fill="none" stroke="midnightblue" d="M272.76,-195.05C275.3,-196.54 277.73,-198.18 280,-200 307.03,-221.59 288.94,-247.46 316,-269 320.82,-272.83 326.32,-275.9 332.11,-278.35"/>
<polygon fill="midnightblue" stroke="midnightblue" points="274.27,-191.9 263.75,-190.58 271.15,-198.16 274.27,-191.9"/>
</g>
<!-- Node12 -->
<g id="node12" class="node">
<title>Node12</title>
<g id="a_node12"><a xlink:href="class_ogre_1_1_high_level_gpu_program_manager.html" target="_top" xlink:title="This ResourceManager manages high&#45;level vertex and fragment programs.">
<polygon fill="none" stroke="black" points="319.5,-229 319.5,-259 460.5,-259 460.5,-229 319.5,-229"/>
<text text-anchor="start" x="327.5" y="-247" font-family="Helvetica,sans-Serif" font-size="10.00">Ogre::HighLevelGpuProgram</text>
<text text-anchor="middle" x="390" y="-236" font-family="Helvetica,sans-Serif" font-size="10.00">Manager</text>
</a>
</g>
</g>
<!-- Node4&#45;&gt;Node12 -->
<g id="edge11" class="edge">
<title>Node4&#45;&gt;Node12</title>
<path fill="none" stroke="midnightblue" d="M260.47,-193.34C267.12,-195.35 273.77,-197.57 280,-200 296.86,-206.57 299.39,-211.83 316,-219 324.12,-222.51 332.9,-225.87 341.47,-228.92"/>
<polygon fill="midnightblue" stroke="midnightblue" points="261.35,-189.96 250.77,-190.57 259.43,-196.69 261.35,-189.96"/>
</g>
<!-- Node13 -->
<g id="node13" class="node">
<title>Node13</title>
<g id="a_node13"><a xlink:href="class_ogre_1_1_material_manager.html" target="_top" xlink:title="Class for managing Material settings for Ogre.">
<polygon fill="none" stroke="black" points="333,-190.5 333,-209.5 447,-209.5 447,-190.5 333,-190.5"/>
<text text-anchor="middle" x="390" y="-197.5" font-family="Helvetica,sans-Serif" font-size="10.00">Ogre::MaterialManager</text>
</a>
</g>
</g>
<!-- Node4&#45;&gt;Node13 -->
<g id="edge12" class="edge">
<title>Node4&#45;&gt;Node13</title>
<path fill="none" stroke="midnightblue" d="M277.54,-188.3C295.83,-190.22 315.33,-192.27 332.83,-194.1"/>
<polygon fill="midnightblue" stroke="midnightblue" points="277.83,-184.81 267.52,-187.25 277.1,-191.77 277.83,-184.81"/>
</g>
<!-- Node14 -->
<g id="node14" class="node">
<title>Node14</title>
<g id="a_node14"><a xlink:href="class_ogre_1_1_mesh_manager.html" target="_top" xlink:title="Handles the management of mesh resources.">
<polygon fill="none" stroke="black" points="338,-152.5 338,-171.5 442,-171.5 442,-152.5 338,-152.5"/>
<text text-anchor="middle" x="390" y="-159.5" font-family="Helvetica,sans-Serif" font-size="10.00">Ogre::MeshManager</text>
</a>
</g>
</g>
<!-- Node4&#45;&gt;Node14 -->
<g id="edge13" class="edge">
<title>Node4&#45;&gt;Node14</title>
<path fill="none" stroke="midnightblue" d="M277.56,-173.7C297.65,-171.59 319.2,-169.33 337.95,-167.36"/>
<polygon fill="midnightblue" stroke="midnightblue" points="277.1,-170.23 267.52,-174.75 277.83,-177.19 277.1,-170.23"/>
</g>
<!-- Node15 -->
<g id="node15" class="node">
<title>Node15</title>
<g id="a_node15"><a xlink:href="class_ogre_1_1_texture_manager.html" target="_top" xlink:title="Class for loading &amp; managing textures.">
<polygon fill="none" stroke="black" points="334,-114.5 334,-133.5 446,-133.5 446,-114.5 334,-114.5"/>
<text text-anchor="middle" x="390" y="-121.5" font-family="Helvetica,sans-Serif" font-size="10.00">Ogre::TextureManager</text>
</a>
</g>
</g>
<!-- Node4&#45;&gt;Node15 -->
<g id="edge14" class="edge">
<title>Node4&#45;&gt;Node15</title>
<path fill="none" stroke="midnightblue" d="M260.47,-168.66C267.12,-166.65 273.77,-164.43 280,-162 296.86,-155.43 299.13,-149.54 316,-143 325.4,-139.35 335.75,-136.18 345.63,-133.53"/>
<polygon fill="midnightblue" stroke="midnightblue" points="259.43,-165.31 250.77,-171.43 261.35,-172.04 259.43,-165.31"/>
</g>
<!-- Node22 -->
<g id="node22" class="node">
<title>Node22</title>
<g id="a_node22"><a xlink:href="class_ogre_1_1v1_1_1_mesh_manager.html" target="_top" xlink:title="Handles the management of mesh resources.">
<polygon fill="none" stroke="black" points="330.5,-76.5 330.5,-95.5 449.5,-95.5 449.5,-76.5 330.5,-76.5"/>
<text text-anchor="middle" x="390" y="-83.5" font-family="Helvetica,sans-Serif" font-size="10.00">Ogre::v1::MeshManager</text>
</a>
</g>
</g>
<!-- Node4&#45;&gt;Node22 -->
<g id="edge21" class="edge">
<title>Node4&#45;&gt;Node22</title>
<path fill="none" stroke="midnightblue" d="M271.53,-167.27C274.5,-165.7 277.34,-163.95 280,-162 304.16,-144.28 291.81,-122.68 316,-105 321.29,-101.14 327.29,-98.06 333.54,-95.6"/>
<polygon fill="midnightblue" stroke="midnightblue" points="269.98,-164.13 262.34,-171.46 272.89,-170.5 269.98,-164.13"/>
</g>
<!-- Node23 -->
<g id="node23" class="node">
<title>Node23</title>
<g id="a_node23"><a xlink:href="class_ogre_1_1v1_1_1_old_skeleton_manager.html" target="_top" xlink:title="Handles the management of skeleton resources.">
<polygon fill="none" stroke="black" points="316,-38.5 316,-57.5 464,-57.5 464,-38.5 316,-38.5"/>
<text text-anchor="middle" x="390" y="-45.5" font-family="Helvetica,sans-Serif" font-size="10.00">Ogre::v1::OldSkeletonManager</text>
</a>
</g>
</g>
<!-- Node4&#45;&gt;Node23 -->
<g id="edge22" class="edge">
<title>Node4&#45;&gt;Node23</title>
<path fill="none" stroke="midnightblue" d="M274.41,-166.37C276.37,-165.03 278.24,-163.58 280,-162 313.55,-131.78 282.4,-97.16 316,-67 320.29,-63.15 325.26,-60.06 330.55,-57.59"/>
<polygon fill="midnightblue" stroke="midnightblue" points="272.3,-163.54 265.3,-171.49 275.73,-169.64 272.3,-163.54"/>
</g>
<!-- Node7 -->
<g id="node7" class="node">
<title>Node7</title>
<g id="a_node7"><a xlink:href="class_ogre_1_1_d3_d11_gpu_program_manager.html" target="_top" xlink:title=" ">
<polygon fill="none" stroke="black" points="501,-380.5 501,-399.5 665,-399.5 665,-380.5 501,-380.5"/>
<text text-anchor="middle" x="583" y="-387.5" font-family="Helvetica,sans-Serif" font-size="10.00">Ogre::D3D11GpuProgramManager</text>
</a>
</g>
</g>
<!-- Node6&#45;&gt;Node7 -->
<g id="edge6" class="edge">
<title>Node6&#45;&gt;Node7</title>
<path fill="none" stroke="midnightblue" d="M456.58,-302.1C459.18,-303.57 461.67,-305.2 464,-307 489.85,-326.92 473.88,-351.43 500,-371 505.15,-374.86 510.94,-377.95 517.02,-380.42"/>
<polygon fill="midnightblue" stroke="midnightblue" points="457.93,-298.86 447.4,-297.65 454.87,-305.16 457.93,-298.86"/>
</g>
<!-- Node8 -->
<g id="node8" class="node">
<title>Node8</title>
<g id="a_node8"><a xlink:href="class_ogre_1_1_d3_d9_gpu_program_manager.html" target="_top" xlink:title=" ">
<polygon fill="none" stroke="black" points="504,-342.5 504,-361.5 662,-361.5 662,-342.5 504,-342.5"/>
<text text-anchor="middle" x="583" y="-349.5" font-family="Helvetica,sans-Serif" font-size="10.00">Ogre::D3D9GpuProgramManager</text>
</a>
</g>
</g>
<!-- Node6&#45;&gt;Node8 -->
<g id="edge7" class="edge">
<title>Node6&#45;&gt;Node8</title>
<path fill="none" stroke="midnightblue" d="M448.13,-300.66C453.59,-302.52 458.96,-304.63 464,-307 481.86,-315.41 482.03,-324.83 500,-333 508.51,-336.87 517.9,-339.99 527.18,-342.5"/>
<polygon fill="midnightblue" stroke="midnightblue" points="448.84,-297.21 438.25,-297.55 446.74,-303.89 448.84,-297.21"/>
</g>
<!-- Node9 -->
<g id="node9" class="node">
<title>Node9</title>
<g id="a_node9"><a xlink:href="class_ogre_1_1_g_l_e_s2_gpu_program_manager.html" target="_top" xlink:title=" ">
<polygon fill="none" stroke="black" points="500,-304.5 500,-323.5 666,-323.5 666,-304.5 500,-304.5"/>
<text text-anchor="middle" x="583" y="-311.5" font-family="Helvetica,sans-Serif" font-size="10.00">Ogre::GLES2GpuProgramManager</text>
</a>
</g>
</g>
<!-- Node6&#45;&gt;Node9 -->
<g id="edge8" class="edge">
<title>Node6&#45;&gt;Node9</title>
<path fill="none" stroke="midnightblue" d="M467.34,-298.39C482.07,-300.4 497.43,-302.49 511.95,-304.46"/>
<polygon fill="midnightblue" stroke="midnightblue" points="467.65,-294.9 457.27,-297.02 466.7,-301.84 467.65,-294.9"/>
</g>
<!-- Node10 -->
<g id="node10" class="node">
<title>Node10</title>
<g id="a_node10"><a xlink:href="class_ogre_1_1_g_l_s_l_shader_manager.html" target="_top" xlink:title=" ">
<polygon fill="none" stroke="black" points="514.5,-266.5 514.5,-285.5 651.5,-285.5 651.5,-266.5 514.5,-266.5"/>
<text text-anchor="middle" x="583" y="-273.5" font-family="Helvetica,sans-Serif" font-size="10.00">Ogre::GLSLShaderManager</text>
</a>
</g>
</g>
<!-- Node6&#45;&gt;Node10 -->
<g id="edge9" class="edge">
<title>Node6&#45;&gt;Node10</title>
<path fill="none" stroke="midnightblue" d="M467.34,-283.2C482.84,-282.23 499.05,-281.21 514.23,-280.26"/>
<polygon fill="midnightblue" stroke="midnightblue" points="467.03,-279.72 457.27,-283.84 467.47,-286.7 467.03,-279.72"/>
</g>
<!-- Node11 -->
<g id="node11" class="node">
<title>Node11</title>
<g id="a_node11"><a xlink:href="class_ogre_1_1_metal_gpu_program_manager.html" target="_top" xlink:title=" ">
<polygon fill="none" stroke="black" points="504,-228.5 504,-247.5 662,-247.5 662,-228.5 504,-228.5"/>
<text text-anchor="middle" x="583" y="-235.5" font-family="Helvetica,sans-Serif" font-size="10.00">Ogre::MetalGpuProgramManager</text>
</a>
</g>
</g>
<!-- Node6&#45;&gt;Node11 -->
<g id="edge10" class="edge">
<title>Node6&#45;&gt;Node11</title>
<path fill="none" stroke="midnightblue" d="M439.6,-275.84C447.77,-273.65 456.14,-271.33 464,-269 480.17,-264.21 483.77,-261.58 500,-257 511.96,-253.63 525.01,-250.4 537.12,-247.6"/>
<polygon fill="midnightblue" stroke="midnightblue" points="438.56,-272.49 429.78,-278.42 440.34,-279.26 438.56,-272.49"/>
</g>
<!-- Node16 -->
<g id="node16" class="node">
<title>Node16</title>
<g id="a_node16"><a xlink:href="class_ogre_1_1_d3_d11_texture_manager.html" target="_top" xlink:title=" ">
<polygon fill="none" stroke="black" points="512.5,-190.5 512.5,-209.5 653.5,-209.5 653.5,-190.5 512.5,-190.5"/>
<text text-anchor="middle" x="583" y="-197.5" font-family="Helvetica,sans-Serif" font-size="10.00">Ogre::D3D11TextureManager</text>
</a>
</g>
</g>
<!-- Node15&#45;&gt;Node16 -->
<g id="edge15" class="edge">
<title>Node15&#45;&gt;Node16</title>
<path fill="none" stroke="midnightblue" d="M452.34,-137.19C456.39,-138.9 460.32,-140.83 464,-143 484.03,-154.83 479.81,-169.44 500,-181 506.72,-184.85 514.17,-187.92 521.77,-190.37"/>
<polygon fill="midnightblue" stroke="midnightblue" points="453.31,-133.82 442.72,-133.58 450.86,-140.37 453.31,-133.82"/>
</g>
<!-- Node17 -->
<g id="node17" class="node">
<title>Node17</title>
<g id="a_node17"><a xlink:href="class_ogre_1_1_d3_d9_texture_manager.html" target="_top" xlink:title=" ">
<polygon fill="none" stroke="black" points="515,-152.5 515,-171.5 651,-171.5 651,-152.5 515,-152.5"/>
<text text-anchor="middle" x="583" y="-159.5" font-family="Helvetica,sans-Serif" font-size="10.00">Ogre::D3D9TextureManager</text>
</a>
</g>
</g>
<!-- Node15&#45;&gt;Node17 -->
<g id="edge16" class="edge">
<title>Node15&#45;&gt;Node17</title>
<path fill="none" stroke="midnightblue" d="M449.35,-135.61C476.52,-141.01 508.43,-147.36 534.15,-152.48"/>
<polygon fill="midnightblue" stroke="midnightblue" points="449.69,-132.11 439.2,-133.59 448.32,-138.97 449.69,-132.11"/>
</g>
<!-- Node18 -->
<g id="node18" class="node">
<title>Node18</title>
<g id="a_node18"><a xlink:href="class_ogre_1_1_g_l3_plus_texture_manager.html" target="_top" xlink:title="GL3Plus&#45;specific implementation of a TextureManager.">
<polygon fill="none" stroke="black" points="508,-114.5 508,-133.5 658,-133.5 658,-114.5 508,-114.5"/>
<text text-anchor="middle" x="583" y="-121.5" font-family="Helvetica,sans-Serif" font-size="10.00">Ogre::GL3PlusTextureManager</text>
</a>
</g>
</g>
<!-- Node15&#45;&gt;Node18 -->
<g id="edge17" class="edge">
<title>Node15&#45;&gt;Node18</title>
<path fill="none" stroke="midnightblue" d="M456.34,-124C472.88,-124 490.75,-124 507.69,-124"/>
<polygon fill="midnightblue" stroke="midnightblue" points="456.25,-120.5 446.25,-124 456.25,-127.5 456.25,-120.5"/>
</g>
<!-- Node19 -->
<g id="node19" class="node">
<title>Node19</title>
<g id="a_node19"><a xlink:href="class_ogre_1_1_g_l_e_s2_texture_manager.html" target="_top" xlink:title="GL ES&#45;specific implementation of a TextureManager.">
<polygon fill="none" stroke="black" points="511.5,-76.5 511.5,-95.5 654.5,-95.5 654.5,-76.5 511.5,-76.5"/>
<text text-anchor="middle" x="583" y="-83.5" font-family="Helvetica,sans-Serif" font-size="10.00">Ogre::GLES2TextureManager</text>
</a>
</g>
</g>
<!-- Node15&#45;&gt;Node19 -->
<g id="edge18" class="edge">
<title>Node15&#45;&gt;Node19</title>
<path fill="none" stroke="midnightblue" d="M449.35,-112.39C476.52,-106.99 508.43,-100.64 534.15,-95.52"/>
<polygon fill="midnightblue" stroke="midnightblue" points="448.32,-109.03 439.2,-114.41 449.69,-115.89 448.32,-109.03"/>
</g>
<!-- Node20 -->
<g id="node20" class="node">
<title>Node20</title>
<g id="a_node20"><a xlink:href="class_ogre_1_1_metal_texture_manager.html" target="_top" xlink:title=" ">
<polygon fill="none" stroke="black" points="515,-38.5 515,-57.5 651,-57.5 651,-38.5 515,-38.5"/>
<text text-anchor="middle" x="583" y="-45.5" font-family="Helvetica,sans-Serif" font-size="10.00">Ogre::MetalTextureManager</text>
</a>
</g>
</g>
<!-- Node15&#45;&gt;Node20 -->
<g id="edge19" class="edge">
<title>Node15&#45;&gt;Node20</title>
<path fill="none" stroke="midnightblue" d="M452.34,-110.81C456.39,-109.1 460.32,-107.17 464,-105 484.03,-93.17 479.81,-78.56 500,-67 506.72,-63.15 514.17,-60.08 521.77,-57.63"/>
<polygon fill="midnightblue" stroke="midnightblue" points="450.86,-107.63 442.72,-114.42 453.31,-114.18 450.86,-107.63"/>
</g>
<!-- Node21 -->
<g id="node21" class="node">
<title>Node21</title>
<g id="a_node21"><a xlink:href="class_ogre_1_1_n_u_l_l_texture_manager.html" target="_top" xlink:title=" ">
<polygon fill="none" stroke="black" points="513.5,-0.5 513.5,-19.5 652.5,-19.5 652.5,-0.5 513.5,-0.5"/>
<text text-anchor="middle" x="583" y="-7.5" font-family="Helvetica,sans-Serif" font-size="10.00">Ogre::NULLTextureManager</text>
</a>
</g>
</g>
<!-- Node15&#45;&gt;Node21 -->
<g id="edge20" class="edge">
<title>Node15&#45;&gt;Node21</title>
<path fill="none" stroke="midnightblue" d="M455.26,-110.97C458.36,-109.22 461.3,-107.24 464,-105 492.79,-81.17 470.89,-52.44 500,-29 504.78,-25.15 510.2,-22.05 515.92,-19.56"/>
<polygon fill="midnightblue" stroke="midnightblue" points="453.7,-107.83 446.19,-115.31 456.73,-114.15 453.7,-107.83"/>
</g>
</g>
</svg>
