<?xml version="1.0" encoding="UTF-8" standalone="no"?>
<!DOCTYPE svg PUBLIC "-//W3C//DTD SVG 1.1//EN"
 "http://www.w3.org/Graphics/SVG/1.1/DTD/svg11.dtd">
<!-- Generated by graphviz version 2.44.0 ()
 -->
<!-- Title: Ogre::AnimableObject Pages: 1 -->
<svg width="750pt" height="800pt"
 viewBox="0.00 0.00 750.00 800.00" xmlns="http://www.w3.org/2000/svg" xmlns:xlink="http://www.w3.org/1999/xlink">
<g id="graph0" class="graph" transform="scale(1 1) rotate(0) translate(4 796)">
<title>Ogre::AnimableObject</title>
<!-- Node1 -->
<g id="node1" class="node">
<title>Node1</title>
<g id="a_node1"><a xlink:title="Defines an interface to classes which have one or more AnimableValue instances to expose.">
<polygon fill="#bfbfbf" stroke="black" points="0,-392.5 0,-411.5 111,-411.5 111,-392.5 0,-392.5"/>
<text text-anchor="middle" x="55.5" y="-399.5" font-family="Helvetica,sans-Serif" font-size="10.00">Ogre::AnimableObject</text>
</a>
</g>
</g>
<!-- Node2 -->
<g id="node2" class="node">
<title>Node2</title>
<g id="a_node2"><a xlink:href="class_ogre_1_1_movable_object.html" target="_top" xlink:title="Abstract class defining a movable object in a scene.">
<polygon fill="none" stroke="black" points="147,-392.5 147,-411.5 254,-411.5 254,-392.5 147,-392.5"/>
<text text-anchor="middle" x="200.5" y="-399.5" font-family="Helvetica,sans-Serif" font-size="10.00">Ogre::MovableObject</text>
</a>
</g>
</g>
<!-- Node1&#45;&gt;Node2 -->
<g id="edge1" class="edge">
<title>Node1&#45;&gt;Node2</title>
<path fill="none" stroke="midnightblue" d="M121.61,-402C130.08,-402 138.66,-402 146.89,-402"/>
<polygon fill="midnightblue" stroke="midnightblue" points="121.38,-398.5 111.38,-402 121.38,-405.5 121.38,-398.5"/>
</g>
<!-- Node3 -->
<g id="node3" class="node">
<title>Node3</title>
<g id="a_node3"><a xlink:href="class_ogre_1_1_decal.html" target="_top" xlink:title=" ">
<polygon fill="none" stroke="black" points="327,-772.5 327,-791.5 394,-791.5 394,-772.5 327,-772.5"/>
<text text-anchor="middle" x="360.5" y="-779.5" font-family="Helvetica,sans-Serif" font-size="10.00">Ogre::Decal</text>
</a>
</g>
</g>
<!-- Node2&#45;&gt;Node3 -->
<g id="edge2" class="edge">
<title>Node2&#45;&gt;Node3</title>
<path fill="none" stroke="midnightblue" d="M203.74,-422.03C211.8,-490.39 241.38,-713.07 290,-763 299.6,-772.86 313.78,-777.75 326.84,-780.13"/>
<polygon fill="midnightblue" stroke="midnightblue" points="207.19,-421.31 202.56,-411.77 200.23,-422.11 207.19,-421.31"/>
</g>
<!-- Node4 -->
<g id="node4" class="node">
<title>Node4</title>
<g id="a_node4"><a xlink:href="class_ogre_1_1_frustum.html" target="_top" xlink:title="A frustum represents a pyramid, capped at the near and far end which is used to represent either a vi...">
<polygon fill="none" stroke="black" points="321.5,-734.5 321.5,-753.5 399.5,-753.5 399.5,-734.5 321.5,-734.5"/>
<text text-anchor="middle" x="360.5" y="-741.5" font-family="Helvetica,sans-Serif" font-size="10.00">Ogre::Frustum</text>
</a>
</g>
</g>
<!-- Node2&#45;&gt;Node4 -->
<g id="edge3" class="edge">
<title>Node2&#45;&gt;Node4</title>
<path fill="none" stroke="midnightblue" d="M200.66,-421.88C199.45,-477.98 204,-639.05 290,-725 298.32,-733.31 309.9,-738.08 321.22,-740.79"/>
<polygon fill="midnightblue" stroke="midnightblue" points="204.17,-421.67 200.98,-411.56 197.18,-421.45 204.17,-421.67"/>
</g>
<!-- Node8 -->
<g id="node8" class="node">
<title>Node8</title>
<g id="a_node8"><a xlink:href="class_ogre_1_1_internal_cubemap_probe.html" target="_top" xlink:title=" ">
<polygon fill="none" stroke="black" points="290,-696.5 290,-715.5 431,-715.5 431,-696.5 290,-696.5"/>
<text text-anchor="middle" x="360.5" y="-703.5" font-family="Helvetica,sans-Serif" font-size="10.00">Ogre::InternalCubemapProbe</text>
</a>
</g>
</g>
<!-- Node2&#45;&gt;Node8 -->
<g id="edge7" class="edge">
<title>Node2&#45;&gt;Node8</title>
<path fill="none" stroke="midnightblue" d="M201.52,-421.59C202.67,-472.96 213.11,-612.69 290,-687 293.96,-690.82 298.61,-693.9 303.6,-696.36"/>
<polygon fill="midnightblue" stroke="midnightblue" points="205.02,-421.47 201.39,-411.52 198.02,-421.56 205.02,-421.47"/>
</g>
<!-- Node9 -->
<g id="node9" class="node">
<title>Node9</title>
<g id="a_node9"><a xlink:href="class_ogre_1_1_item.html" target="_top" xlink:title="Defines an instance of a discrete, movable object based on a Mesh.">
<polygon fill="none" stroke="black" points="329.5,-658.5 329.5,-677.5 391.5,-677.5 391.5,-658.5 329.5,-658.5"/>
<text text-anchor="middle" x="360.5" y="-665.5" font-family="Helvetica,sans-Serif" font-size="10.00">Ogre::Item</text>
</a>
</g>
</g>
<!-- Node2&#45;&gt;Node9 -->
<g id="edge8" class="edge">
<title>Node2&#45;&gt;Node9</title>
<path fill="none" stroke="midnightblue" d="M202.62,-421.77C206.36,-468.47 222.37,-586.4 290,-649 300.65,-658.86 315.92,-663.68 329.43,-666.01"/>
<polygon fill="midnightblue" stroke="midnightblue" points="206.11,-421.47 201.92,-411.74 199.13,-421.96 206.11,-421.47"/>
</g>
<!-- Node10 -->
<g id="node10" class="node">
<title>Node10</title>
<g id="a_node10"><a xlink:href="class_ogre_1_1_light.html" target="_top" xlink:title="Representation of a dynamic light source in the scene.">
<polygon fill="none" stroke="black" points="328.5,-620.5 328.5,-639.5 392.5,-639.5 392.5,-620.5 328.5,-620.5"/>
<text text-anchor="middle" x="360.5" y="-627.5" font-family="Helvetica,sans-Serif" font-size="10.00">Ogre::Light</text>
</a>
</g>
</g>
<!-- Node2&#45;&gt;Node10 -->
<g id="edge9" class="edge">
<title>Node2&#45;&gt;Node10</title>
<path fill="none" stroke="midnightblue" d="M204.08,-421.77C210.57,-463.25 231.44,-559.79 290,-611 300.55,-620.22 315.17,-625.01 328.28,-627.48"/>
<polygon fill="midnightblue" stroke="midnightblue" points="207.51,-421.01 202.61,-411.61 200.58,-422.01 207.51,-421.01"/>
</g>
<!-- Node12 -->
<g id="node12" class="node">
<title>Node12</title>
<g id="a_node12"><a xlink:href="class_ogre_1_1_manual_object.html" target="_top" xlink:title=" ">
<polygon fill="none" stroke="black" points="309.5,-582.5 309.5,-601.5 411.5,-601.5 411.5,-582.5 309.5,-582.5"/>
<text text-anchor="middle" x="360.5" y="-589.5" font-family="Helvetica,sans-Serif" font-size="10.00">Ogre::ManualObject</text>
</a>
</g>
</g>
<!-- Node2&#45;&gt;Node12 -->
<g id="edge11" class="edge">
<title>Node2&#45;&gt;Node12</title>
<path fill="none" stroke="midnightblue" d="M206.09,-421.59C215.47,-457.25 240.3,-532.81 290,-573 295.64,-577.56 302.29,-581.03 309.21,-583.67"/>
<polygon fill="midnightblue" stroke="midnightblue" points="209.48,-420.73 203.66,-411.88 202.69,-422.43 209.48,-420.73"/>
</g>
<!-- Node13 -->
<g id="node13" class="node">
<title>Node13</title>
<g id="a_node13"><a xlink:href="class_ogre_1_1_movable_plane.html" target="_top" xlink:title="Definition of a Plane that may be attached to a node, and the derived details of it retrieved simply.">
<polygon fill="none" stroke="black" points="308.5,-544.5 308.5,-563.5 412.5,-563.5 412.5,-544.5 308.5,-544.5"/>
<text text-anchor="middle" x="360.5" y="-551.5" font-family="Helvetica,sans-Serif" font-size="10.00">Ogre::MovablePlane</text>
</a>
</g>
</g>
<!-- Node2&#45;&gt;Node13 -->
<g id="edge12" class="edge">
<title>Node2&#45;&gt;Node13</title>
<path fill="none" stroke="midnightblue" d="M209.03,-421.23C221.43,-450.35 248.94,-505.36 290,-535 295.48,-538.95 301.74,-542.08 308.2,-544.56"/>
<polygon fill="midnightblue" stroke="midnightblue" points="212.18,-419.69 205.15,-411.77 205.71,-422.35 212.18,-419.69"/>
</g>
<!-- Node14 -->
<g id="node14" class="node">
<title>Node14</title>
<g id="a_node14"><a xlink:href="class_ogre_1_1_null_entity.html" target="_top" xlink:title=" ">
<polygon fill="none" stroke="black" points="319,-506.5 319,-525.5 402,-525.5 402,-506.5 319,-506.5"/>
<text text-anchor="middle" x="360.5" y="-513.5" font-family="Helvetica,sans-Serif" font-size="10.00">Ogre::NullEntity</text>
</a>
</g>
</g>
<!-- Node2&#45;&gt;Node14 -->
<g id="edge13" class="edge">
<title>Node2&#45;&gt;Node14</title>
<path fill="none" stroke="midnightblue" d="M213.48,-420.01C228.73,-441.53 257.09,-477.1 290,-497 298.78,-502.31 309.06,-506.16 318.99,-508.95"/>
<polygon fill="midnightblue" stroke="midnightblue" points="216.33,-417.98 207.77,-411.74 210.57,-421.96 216.33,-417.98"/>
</g>
<!-- Node15 -->
<g id="node15" class="node">
<title>Node15</title>
<g id="a_node15"><a xlink:href="class_ogre_1_1_particle_system.html" target="_top" xlink:title="Class defining particle system based special effects.">
<polygon fill="none" stroke="black" points="306.5,-468.5 306.5,-487.5 414.5,-487.5 414.5,-468.5 306.5,-468.5"/>
<text text-anchor="middle" x="360.5" y="-475.5" font-family="Helvetica,sans-Serif" font-size="10.00">Ogre::ParticleSystem</text>
</a>
</g>
</g>
<!-- Node2&#45;&gt;Node15 -->
<g id="edge14" class="edge">
<title>Node2&#45;&gt;Node15</title>
<path fill="none" stroke="midnightblue" d="M221.92,-417.73C239.22,-430.41 265.13,-447.91 290,-459 298.34,-462.72 307.57,-465.86 316.52,-468.46"/>
<polygon fill="midnightblue" stroke="midnightblue" points="223.81,-414.77 213.7,-411.6 219.62,-420.38 223.81,-414.77"/>
</g>
<!-- Node16 -->
<g id="node16" class="node">
<title>Node16</title>
<g id="a_node16"><a xlink:href="class_ogre_1_1_portal_base.html" target="_top" xlink:title="PortalBase &#45; Base class to Portal and AntiPortal classes.">
<polygon fill="none" stroke="black" points="315.5,-430.5 315.5,-449.5 405.5,-449.5 405.5,-430.5 315.5,-430.5"/>
<text text-anchor="middle" x="360.5" y="-437.5" font-family="Helvetica,sans-Serif" font-size="10.00">Ogre::PortalBase</text>
</a>
</g>
</g>
<!-- Node2&#45;&gt;Node16 -->
<g id="edge15" class="edge">
<title>Node2&#45;&gt;Node16</title>
<path fill="none" stroke="midnightblue" d="M251.26,-413.97C273.4,-419.29 299.11,-425.48 319.92,-430.48"/>
<polygon fill="midnightblue" stroke="midnightblue" points="251.91,-410.52 241.37,-411.59 250.27,-417.33 251.91,-410.52"/>
</g>
<!-- Node19 -->
<g id="node19" class="node">
<title>Node19</title>
<g id="a_node19"><a xlink:href="class_ogre_1_1_rectangle2_d.html" target="_top" xlink:title=" ">
<polygon fill="none" stroke="black" points="311.5,-392.5 311.5,-411.5 409.5,-411.5 409.5,-392.5 311.5,-392.5"/>
<text text-anchor="middle" x="360.5" y="-399.5" font-family="Helvetica,sans-Serif" font-size="10.00">Ogre::Rectangle2D</text>
</a>
</g>
</g>
<!-- Node2&#45;&gt;Node19 -->
<g id="edge18" class="edge">
<title>Node2&#45;&gt;Node19</title>
<path fill="none" stroke="midnightblue" d="M264.26,-402C279.95,-402 296.53,-402 311.38,-402"/>
<polygon fill="midnightblue" stroke="midnightblue" points="264.11,-398.5 254.11,-402 264.11,-405.5 264.11,-398.5"/>
</g>
<!-- Node20 -->
<g id="node20" class="node">
<title>Node20</title>
<g id="a_node20"><a xlink:href="class_ogre_1_1v1_1_1_billboard_chain.html" target="_top" xlink:title="Allows the rendering of a chain of connected billboards.">
<polygon fill="none" stroke="black" points="301,-354.5 301,-373.5 420,-373.5 420,-354.5 301,-354.5"/>
<text text-anchor="middle" x="360.5" y="-361.5" font-family="Helvetica,sans-Serif" font-size="10.00">Ogre::v1::BillboardChain</text>
</a>
</g>
</g>
<!-- Node2&#45;&gt;Node20 -->
<g id="edge19" class="edge">
<title>Node2&#45;&gt;Node20</title>
<path fill="none" stroke="midnightblue" d="M251.26,-390.03C273.4,-384.71 299.11,-378.52 319.92,-373.52"/>
<polygon fill="midnightblue" stroke="midnightblue" points="250.27,-386.67 241.37,-392.41 251.91,-393.48 250.27,-386.67"/>
</g>
<!-- Node22 -->
<g id="node22" class="node">
<title>Node22</title>
<g id="a_node22"><a xlink:href="class_ogre_1_1v1_1_1_billboard_set.html" target="_top" xlink:title="A collection of billboards (faces which are always facing the given direction) with the same (default...">
<polygon fill="none" stroke="black" points="305.5,-316.5 305.5,-335.5 415.5,-335.5 415.5,-316.5 305.5,-316.5"/>
<text text-anchor="middle" x="360.5" y="-323.5" font-family="Helvetica,sans-Serif" font-size="10.00">Ogre::v1::BillboardSet</text>
</a>
</g>
</g>
<!-- Node2&#45;&gt;Node22 -->
<g id="edge21" class="edge">
<title>Node2&#45;&gt;Node22</title>
<path fill="none" stroke="midnightblue" d="M221.92,-386.27C239.22,-373.59 265.13,-356.09 290,-345 298.34,-341.28 307.57,-338.14 316.52,-335.54"/>
<polygon fill="midnightblue" stroke="midnightblue" points="219.62,-383.62 213.7,-392.4 223.81,-389.23 219.62,-383.62"/>
</g>
<!-- Node23 -->
<g id="node23" class="node">
<title>Node23</title>
<g id="a_node23"><a xlink:href="class_ogre_1_1v1_1_1_entity.html" target="_top" xlink:title="Defines an instance of a discrete, movable object based on a Mesh.">
<polygon fill="none" stroke="black" points="320,-278.5 320,-297.5 401,-297.5 401,-278.5 320,-278.5"/>
<text text-anchor="middle" x="360.5" y="-285.5" font-family="Helvetica,sans-Serif" font-size="10.00">Ogre::v1::Entity</text>
</a>
</g>
</g>
<!-- Node2&#45;&gt;Node23 -->
<g id="edge22" class="edge">
<title>Node2&#45;&gt;Node23</title>
<path fill="none" stroke="midnightblue" d="M213.48,-383.99C228.73,-362.47 257.09,-326.9 290,-307 298.99,-301.56 309.57,-297.65 319.71,-294.84"/>
<polygon fill="midnightblue" stroke="midnightblue" points="210.57,-382.04 207.77,-392.26 216.33,-386.02 210.57,-382.04"/>
</g>
<!-- Node24 -->
<g id="node24" class="node">
<title>Node24</title>
<g id="a_node24"><a xlink:href="class_ogre_1_1v1_1_1_manual_object.html" target="_top" xlink:title="Class providing a much simplified interface to generating manual objects with custom geometry.">
<polygon fill="none" stroke="black" points="302,-240.5 302,-259.5 419,-259.5 419,-240.5 302,-240.5"/>
<text text-anchor="middle" x="360.5" y="-247.5" font-family="Helvetica,sans-Serif" font-size="10.00">Ogre::v1::ManualObject</text>
</a>
</g>
</g>
<!-- Node2&#45;&gt;Node24 -->
<g id="edge23" class="edge">
<title>Node2&#45;&gt;Node24</title>
<path fill="none" stroke="midnightblue" d="M209.03,-382.77C221.43,-353.65 248.94,-298.64 290,-269 295.38,-265.12 301.5,-262.03 307.84,-259.57"/>
<polygon fill="midnightblue" stroke="midnightblue" points="205.71,-381.65 205.15,-392.23 212.18,-384.31 205.71,-381.65"/>
</g>
<!-- Node25 -->
<g id="node25" class="node">
<title>Node25</title>
<g id="a_node25"><a xlink:href="class_ogre_1_1v1_1_1_overlay.html" target="_top" xlink:title="Represents a layer which is rendered on top of the &#39;normal&#39; scene contents.">
<polygon fill="none" stroke="black" points="315.5,-202.5 315.5,-221.5 405.5,-221.5 405.5,-202.5 315.5,-202.5"/>
<text text-anchor="middle" x="360.5" y="-209.5" font-family="Helvetica,sans-Serif" font-size="10.00">Ogre::v1::Overlay</text>
</a>
</g>
</g>
<!-- Node2&#45;&gt;Node25 -->
<g id="edge24" class="edge">
<title>Node2&#45;&gt;Node25</title>
<path fill="none" stroke="midnightblue" d="M206.09,-382.41C215.47,-346.75 240.3,-271.19 290,-231 297.29,-225.1 306.28,-221.03 315.34,-218.22"/>
<polygon fill="midnightblue" stroke="midnightblue" points="202.69,-381.57 203.66,-392.12 209.48,-383.27 202.69,-381.57"/>
</g>
<!-- Node26 -->
<g id="node26" class="node">
<title>Node26</title>
<g id="a_node26"><a xlink:href="class_ogre_1_1v1_1_1_rectangle2_d.html" target="_top" xlink:title="Allows the rendering of a simple 2D rectangle This class renders a simple 2D rectangle; this rectangl...">
<polygon fill="none" stroke="black" points="304,-164.5 304,-183.5 417,-183.5 417,-164.5 304,-164.5"/>
<text text-anchor="middle" x="360.5" y="-171.5" font-family="Helvetica,sans-Serif" font-size="10.00">Ogre::v1::Rectangle2D</text>
</a>
</g>
</g>
<!-- Node2&#45;&gt;Node26 -->
<g id="edge25" class="edge">
<title>Node2&#45;&gt;Node26</title>
<path fill="none" stroke="midnightblue" d="M204.08,-382.23C210.57,-340.75 231.44,-244.21 290,-193 294.43,-189.13 299.57,-186.04 305.02,-183.58"/>
<polygon fill="midnightblue" stroke="midnightblue" points="200.58,-381.99 202.61,-392.39 207.51,-382.99 200.58,-381.99"/>
</g>
<!-- Node27 -->
<g id="node27" class="node">
<title>Node27</title>
<g id="a_node27"><a xlink:href="class_ogre_1_1v1_1_1_simple_renderable.html" target="_top" xlink:title="Simple implementation of MovableObject and Renderable for single&#45;part custom objects.">
<polygon fill="none" stroke="black" points="292.5,-126.5 292.5,-145.5 428.5,-145.5 428.5,-126.5 292.5,-126.5"/>
<text text-anchor="middle" x="360.5" y="-133.5" font-family="Helvetica,sans-Serif" font-size="10.00">Ogre::v1::SimpleRenderable</text>
</a>
</g>
</g>
<!-- Node2&#45;&gt;Node27 -->
<g id="edge26" class="edge">
<title>Node2&#45;&gt;Node27</title>
<path fill="none" stroke="midnightblue" d="M202.62,-382.23C206.36,-335.53 222.37,-217.6 290,-155 294.13,-151.18 298.96,-148.11 304.11,-145.65"/>
<polygon fill="midnightblue" stroke="midnightblue" points="199.13,-382.04 201.92,-392.26 206.11,-382.53 199.13,-382.04"/>
</g>
<!-- Node29 -->
<g id="node29" class="node">
<title>Node29</title>
<g id="a_node29"><a xlink:href="class_ogre_1_1v1_1_1_static_geometry_1_1_region.html" target="_top" xlink:title="The details of a topological region which is the highest level of partitioning for this class.">
<polygon fill="none" stroke="black" points="298,-77 298,-107 423,-107 423,-77 298,-77"/>
<text text-anchor="start" x="306" y="-95" font-family="Helvetica,sans-Serif" font-size="10.00">Ogre::v1::StaticGeometry</text>
<text text-anchor="middle" x="360.5" y="-84" font-family="Helvetica,sans-Serif" font-size="10.00">::Region</text>
</a>
</g>
</g>
<!-- Node2&#45;&gt;Node29 -->
<g id="edge28" class="edge">
<title>Node2&#45;&gt;Node29</title>
<path fill="none" stroke="midnightblue" d="M201.88,-382.08C203.93,-330.99 216.4,-193.93 290,-117 293.72,-113.11 298.1,-109.82 302.8,-107.04"/>
<polygon fill="midnightblue" stroke="midnightblue" points="198.37,-382.28 201.57,-392.38 205.37,-382.5 198.37,-382.28"/>
</g>
<!-- Node30 -->
<g id="node30" class="node">
<title>Node30</title>
<g id="a_node30"><a xlink:href="class_ogre_1_1_voxel_visualizer.html" target="_top" xlink:title=" ">
<polygon fill="none" stroke="black" points="306.5,-38.5 306.5,-57.5 414.5,-57.5 414.5,-38.5 306.5,-38.5"/>
<text text-anchor="middle" x="360.5" y="-45.5" font-family="Helvetica,sans-Serif" font-size="10.00">Ogre::VoxelVisualizer</text>
</a>
</g>
</g>
<!-- Node2&#45;&gt;Node30 -->
<g id="edge29" class="edge">
<title>Node2&#45;&gt;Node30</title>
<path fill="none" stroke="midnightblue" d="M204.13,-382.16C213.11,-317.26 244.55,-112.84 290,-67 294.58,-62.38 300.17,-58.85 306.16,-56.17"/>
<polygon fill="midnightblue" stroke="midnightblue" points="200.63,-381.9 202.76,-392.28 207.57,-382.84 200.63,-381.9"/>
</g>
<!-- Node31 -->
<g id="node31" class="node">
<title>Node31</title>
<g id="a_node31"><a xlink:href="class_ogre_1_1_wire_aabb.html" target="_top" xlink:title="Helper class to display the Aabb of a MovableObject as lines.">
<polygon fill="none" stroke="black" points="318.5,-0.5 318.5,-19.5 402.5,-19.5 402.5,-0.5 318.5,-0.5"/>
<text text-anchor="middle" x="360.5" y="-7.5" font-family="Helvetica,sans-Serif" font-size="10.00">Ogre::WireAabb</text>
</a>
</g>
</g>
<!-- Node2&#45;&gt;Node31 -->
<g id="edge30" class="edge">
<title>Node2&#45;&gt;Node31</title>
<path fill="none" stroke="midnightblue" d="M203.55,-382.21C211.14,-312.66 239.83,-80.9 290,-29 297.48,-21.27 307.77,-16.58 318.15,-13.78"/>
<polygon fill="midnightblue" stroke="midnightblue" points="200.06,-381.94 202.48,-392.26 207.02,-382.68 200.06,-381.94"/>
</g>
<!-- Node5 -->
<g id="node5" class="node">
<title>Node5</title>
<g id="a_node5"><a xlink:href="class_ogre_1_1_camera.html" target="_top" xlink:title="A viewpoint from which the scene will be rendered.">
<polygon fill="none" stroke="black" points="496,-734.5 496,-753.5 572,-753.5 572,-734.5 496,-734.5"/>
<text text-anchor="middle" x="534" y="-741.5" font-family="Helvetica,sans-Serif" font-size="10.00">Ogre::Camera</text>
</a>
</g>
</g>
<!-- Node4&#45;&gt;Node5 -->
<g id="edge4" class="edge">
<title>Node4&#45;&gt;Node5</title>
<path fill="none" stroke="midnightblue" d="M409.69,-744C437.02,-744 470.68,-744 495.93,-744"/>
<polygon fill="midnightblue" stroke="midnightblue" points="409.56,-740.5 399.56,-744 409.56,-747.5 409.56,-740.5"/>
</g>
<!-- Node6 -->
<g id="node6" class="node">
<title>Node6</title>
<g id="a_node6"><a xlink:href="class_ogre_1_1_octree_camera.html" target="_top" xlink:title="Specialized viewpoint from which an Octree can be rendered.">
<polygon fill="none" stroke="black" points="637,-753.5 637,-772.5 742,-772.5 742,-753.5 637,-753.5"/>
<text text-anchor="middle" x="689.5" y="-760.5" font-family="Helvetica,sans-Serif" font-size="10.00">Ogre::OctreeCamera</text>
</a>
</g>
</g>
<!-- Node5&#45;&gt;Node6 -->
<g id="edge5" class="edge">
<title>Node5&#45;&gt;Node6</title>
<path fill="none" stroke="midnightblue" d="M582.55,-749.89C599.79,-752.02 619.33,-754.44 636.9,-756.61"/>
<polygon fill="midnightblue" stroke="midnightblue" points="582.51,-746.35 572.16,-748.6 581.65,-753.3 582.51,-746.35"/>
</g>
<!-- Node7 -->
<g id="node7" class="node">
<title>Node7</title>
<g id="a_node7"><a xlink:href="class_ogre_1_1_p_c_z_camera.html" target="_top" xlink:title="Specialized viewpoint from which an PCZone Scene can be rendered.">
<polygon fill="none" stroke="black" points="642,-715.5 642,-734.5 737,-734.5 737,-715.5 642,-715.5"/>
<text text-anchor="middle" x="689.5" y="-722.5" font-family="Helvetica,sans-Serif" font-size="10.00">Ogre::PCZCamera</text>
</a>
</g>
</g>
<!-- Node5&#45;&gt;Node7 -->
<g id="edge6" class="edge">
<title>Node5&#45;&gt;Node7</title>
<path fill="none" stroke="midnightblue" d="M582.33,-738.14C601.24,-735.8 622.94,-733.11 641.78,-730.78"/>
<polygon fill="midnightblue" stroke="midnightblue" points="581.65,-734.7 572.16,-739.4 582.51,-741.65 581.65,-734.7"/>
</g>
<!-- Node11 -->
<g id="node11" class="node">
<title>Node11</title>
<g id="a_node11"><a xlink:href="class_ogre_1_1_p_c_z_light.html" target="_top" xlink:title="Specialized version of Ogre::Light which caches which zones the light affects.">
<polygon fill="none" stroke="black" points="492.5,-620.5 492.5,-639.5 575.5,-639.5 575.5,-620.5 492.5,-620.5"/>
<text text-anchor="middle" x="534" y="-627.5" font-family="Helvetica,sans-Serif" font-size="10.00">Ogre::PCZLight</text>
</a>
</g>
</g>
<!-- Node10&#45;&gt;Node11 -->
<g id="edge10" class="edge">
<title>Node10&#45;&gt;Node11</title>
<path fill="none" stroke="midnightblue" d="M402.91,-630C430.09,-630 465.47,-630 492.47,-630"/>
<polygon fill="midnightblue" stroke="midnightblue" points="402.56,-626.5 392.56,-630 402.56,-633.5 402.56,-626.5"/>
</g>
<!-- Node17 -->
<g id="node17" class="node">
<title>Node17</title>
<g id="a_node17"><a xlink:href="class_ogre_1_1_anti_portal.html" target="_top" xlink:title="AntiPortal datastructure for occlusion culling.">
<polygon fill="none" stroke="black" points="491.5,-449.5 491.5,-468.5 576.5,-468.5 576.5,-449.5 491.5,-449.5"/>
<text text-anchor="middle" x="534" y="-456.5" font-family="Helvetica,sans-Serif" font-size="10.00">Ogre::AntiPortal</text>
</a>
</g>
</g>
<!-- Node16&#45;&gt;Node17 -->
<g id="edge16" class="edge">
<title>Node16&#45;&gt;Node17</title>
<path fill="none" stroke="midnightblue" d="M415.86,-446.02C440.28,-448.73 468.65,-451.87 491.34,-454.39"/>
<polygon fill="midnightblue" stroke="midnightblue" points="415.99,-442.52 405.67,-444.89 415.22,-449.47 415.99,-442.52"/>
</g>
<!-- Node18 -->
<g id="node18" class="node">
<title>Node18</title>
<g id="a_node18"><a xlink:href="class_ogre_1_1_portal.html" target="_top" xlink:title="Portal datastructure for connecting zones.">
<polygon fill="none" stroke="black" points="500,-411.5 500,-430.5 568,-430.5 568,-411.5 500,-411.5"/>
<text text-anchor="middle" x="534" y="-418.5" font-family="Helvetica,sans-Serif" font-size="10.00">Ogre::Portal</text>
</a>
</g>
</g>
<!-- Node16&#45;&gt;Node18 -->
<g id="edge17" class="edge">
<title>Node16&#45;&gt;Node18</title>
<path fill="none" stroke="midnightblue" d="M415.95,-433.97C443.5,-430.92 476.05,-427.31 499.82,-424.68"/>
<polygon fill="midnightblue" stroke="midnightblue" points="415.22,-430.53 405.67,-435.11 415.99,-437.48 415.22,-430.53"/>
</g>
<!-- Node21 -->
<g id="node21" class="node">
<title>Node21</title>
<g id="a_node21"><a xlink:href="class_ogre_1_1v1_1_1_ribbon_trail.html" target="_top" xlink:title="Subclass of BillboardChain which automatically leaves a trail behind one or more Node instances.">
<polygon fill="none" stroke="black" points="481,-354.5 481,-373.5 587,-373.5 587,-354.5 481,-354.5"/>
<text text-anchor="middle" x="534" y="-361.5" font-family="Helvetica,sans-Serif" font-size="10.00">Ogre::v1::RibbonTrail</text>
</a>
</g>
</g>
<!-- Node20&#45;&gt;Node21 -->
<g id="edge20" class="edge">
<title>Node20&#45;&gt;Node21</title>
<path fill="none" stroke="midnightblue" d="M430.36,-364C447.17,-364 464.87,-364 480.76,-364"/>
<polygon fill="midnightblue" stroke="midnightblue" points="430.04,-360.5 420.04,-364 430.04,-367.5 430.04,-360.5"/>
</g>
<!-- Node28 -->
<g id="node28" class="node">
<title>Node28</title>
<g id="a_node28"><a xlink:href="class_ogre_1_1v1_1_1_wire_bounding_box.html" target="_top" xlink:title="Allows the rendering of a wireframe bounding box.">
<polygon fill="none" stroke="black" points="467,-126.5 467,-145.5 601,-145.5 601,-126.5 467,-126.5"/>
<text text-anchor="middle" x="534" y="-133.5" font-family="Helvetica,sans-Serif" font-size="10.00">Ogre::v1::WireBoundingBox</text>
</a>
</g>
</g>
<!-- Node27&#45;&gt;Node28 -->
<g id="edge27" class="edge">
<title>Node27&#45;&gt;Node28</title>
<path fill="none" stroke="midnightblue" d="M438.83,-136C448.15,-136 457.61,-136 466.75,-136"/>
<polygon fill="midnightblue" stroke="midnightblue" points="438.79,-132.5 428.79,-136 438.79,-139.5 438.79,-132.5"/>
</g>
</g>
</svg>
