<?xml version="1.0" encoding="UTF-8" standalone="no"?>
<!DOCTYPE svg PUBLIC "-//W3C//DTD SVG 1.1//EN"
 "http://www.w3.org/Graphics/SVG/1.1/DTD/svg11.dtd">
<!-- Generated by graphviz version 2.44.0 ()
 -->
<!-- Title: Ogre::Renderable Pages: 1 -->
<svg width="806pt" height="615pt"
 viewBox="0.00 0.00 806.00 615.00" xmlns="http://www.w3.org/2000/svg" xmlns:xlink="http://www.w3.org/1999/xlink">
<g id="graph0" class="graph" transform="scale(1 1) rotate(0) translate(4 611)">
<title>Ogre::Renderable</title>
<!-- Node1 -->
<g id="node1" class="node">
<title>Node1</title>
<g id="a_node1"><a xlink:title="Abstract class defining the interface all renderable objects must implement.">
<polygon fill="#bfbfbf" stroke="black" points="0,-284.5 0,-303.5 91,-303.5 91,-284.5 0,-284.5"/>
<text text-anchor="middle" x="45.5" y="-291.5" font-family="Helvetica,sans-Serif" font-size="10.00">Ogre::Renderable</text>
</a>
</g>
</g>
<!-- Node2 -->
<g id="node2" class="node">
<title>Node2</title>
<g id="a_node2"><a xlink:href="class_ogre_1_1_frustum.html" target="_top" xlink:title="A frustum represents a pyramid, capped at the near and far end which is used to represent either a vi...">
<polygon fill="none" stroke="black" points="156,-568.5 156,-587.5 234,-587.5 234,-568.5 156,-568.5"/>
<text text-anchor="middle" x="195" y="-575.5" font-family="Helvetica,sans-Serif" font-size="10.00">Ogre::Frustum</text>
</a>
</g>
</g>
<!-- Node1&#45;&gt;Node2 -->
<g id="edge1" class="edge">
<title>Node1&#45;&gt;Node2</title>
<path fill="none" stroke="midnightblue" d="M46.45,-313.76C47.43,-362.64 56.95,-490.24 127,-559 134.77,-566.62 145.35,-571.23 155.82,-574.01"/>
<polygon fill="midnightblue" stroke="midnightblue" points="49.95,-313.56 46.35,-303.59 42.95,-313.62 49.95,-313.56"/>
</g>
<!-- Node6 -->
<g id="node6" class="node">
<title>Node6</title>
<g id="a_node6"><a xlink:href="class_ogre_1_1_manual_object_1_1_manual_object_section.html" target="_top" xlink:title="Built, renderable section of geometry.">
<polygon fill="none" stroke="black" points="138,-519 138,-549 252,-549 252,-519 138,-519"/>
<text text-anchor="start" x="146" y="-537" font-family="Helvetica,sans-Serif" font-size="10.00">Ogre::ManualObject</text>
<text text-anchor="middle" x="195" y="-526" font-family="Helvetica,sans-Serif" font-size="10.00">::ManualObjectSection</text>
</a>
</g>
</g>
<!-- Node1&#45;&gt;Node6 -->
<g id="edge5" class="edge">
<title>Node1&#45;&gt;Node6</title>
<path fill="none" stroke="midnightblue" d="M48.44,-313.61C53.57,-355.25 71.21,-453.27 127,-509 130.86,-512.86 135.38,-516.13 140.21,-518.9"/>
<polygon fill="midnightblue" stroke="midnightblue" points="51.91,-313.2 47.32,-303.65 44.96,-313.98 51.91,-313.2"/>
</g>
<!-- Node7 -->
<g id="node7" class="node">
<title>Node7</title>
<g id="a_node7"><a xlink:href="class_ogre_1_1_rectangle2_d.html" target="_top" xlink:title=" ">
<polygon fill="none" stroke="black" points="146,-480.5 146,-499.5 244,-499.5 244,-480.5 146,-480.5"/>
<text text-anchor="middle" x="195" y="-487.5" font-family="Helvetica,sans-Serif" font-size="10.00">Ogre::Rectangle2D</text>
</a>
</g>
</g>
<!-- Node1&#45;&gt;Node7 -->
<g id="edge6" class="edge">
<title>Node1&#45;&gt;Node7</title>
<path fill="none" stroke="midnightblue" d="M49.85,-313.66C57.12,-350.21 77.82,-428.72 127,-471 132.5,-475.73 139.1,-479.29 145.99,-481.96"/>
<polygon fill="midnightblue" stroke="midnightblue" points="53.28,-312.95 48.01,-303.75 46.39,-314.23 53.28,-312.95"/>
</g>
<!-- Node8 -->
<g id="node8" class="node">
<title>Node8</title>
<g id="a_node8"><a xlink:href="class_ogre_1_1_renderable_animated.html" target="_top" xlink:title=" ">
<polygon fill="none" stroke="black" points="129,-442.5 129,-461.5 261,-461.5 261,-442.5 129,-442.5"/>
<text text-anchor="middle" x="195" y="-449.5" font-family="Helvetica,sans-Serif" font-size="10.00">Ogre::RenderableAnimated</text>
</a>
</g>
</g>
<!-- Node1&#45;&gt;Node8 -->
<g id="edge7" class="edge">
<title>Node1&#45;&gt;Node8</title>
<path fill="none" stroke="midnightblue" d="M52.5,-313.59C62.77,-343.81 86.62,-401.59 127,-433 131.96,-436.86 137.67,-439.94 143.62,-442.39"/>
<polygon fill="midnightblue" stroke="midnightblue" points="55.74,-312.23 49.32,-303.8 49.08,-314.39 55.74,-312.23"/>
</g>
<!-- Node10 -->
<g id="node10" class="node">
<title>Node10</title>
<g id="a_node10"><a xlink:href="class_ogre_1_1v1_1_1_billboard_chain.html" target="_top" xlink:title="Allows the rendering of a chain of connected billboards.">
<polygon fill="none" stroke="black" points="135.5,-404.5 135.5,-423.5 254.5,-423.5 254.5,-404.5 135.5,-404.5"/>
<text text-anchor="middle" x="195" y="-411.5" font-family="Helvetica,sans-Serif" font-size="10.00">Ogre::v1::BillboardChain</text>
</a>
</g>
</g>
<!-- Node1&#45;&gt;Node10 -->
<g id="edge9" class="edge">
<title>Node1&#45;&gt;Node10</title>
<path fill="none" stroke="midnightblue" d="M56.53,-312.74C69.71,-335.56 94.96,-373.68 127,-395 132.84,-398.88 139.47,-401.98 146.24,-404.46"/>
<polygon fill="midnightblue" stroke="midnightblue" points="59.43,-310.75 51.5,-303.72 53.32,-314.16 59.43,-310.75"/>
</g>
<!-- Node12 -->
<g id="node12" class="node">
<title>Node12</title>
<g id="a_node12"><a xlink:href="class_ogre_1_1v1_1_1_billboard_set.html" target="_top" xlink:title="A collection of billboards (faces which are always facing the given direction) with the same (default...">
<polygon fill="none" stroke="black" points="140,-366.5 140,-385.5 250,-385.5 250,-366.5 140,-366.5"/>
<text text-anchor="middle" x="195" y="-373.5" font-family="Helvetica,sans-Serif" font-size="10.00">Ogre::v1::BillboardSet</text>
</a>
</g>
</g>
<!-- Node1&#45;&gt;Node12 -->
<g id="edge11" class="edge">
<title>Node1&#45;&gt;Node12</title>
<path fill="none" stroke="midnightblue" d="M63.69,-310.73C79.12,-324.89 102.97,-344.79 127,-357 134.44,-360.78 142.73,-363.9 150.88,-366.45"/>
<polygon fill="midnightblue" stroke="midnightblue" points="65.73,-307.83 56.04,-303.53 60.93,-312.93 65.73,-307.83"/>
</g>
<!-- Node13 -->
<g id="node13" class="node">
<title>Node13</title>
<g id="a_node13"><a xlink:href="class_ogre_1_1v1_1_1_border_renderable.html" target="_top" xlink:title="Class for rendering the border of a BorderPanelOverlayElement.">
<polygon fill="none" stroke="black" points="128,-328.5 128,-347.5 262,-347.5 262,-328.5 128,-328.5"/>
<text text-anchor="middle" x="195" y="-335.5" font-family="Helvetica,sans-Serif" font-size="10.00">Ogre::v1::BorderRenderable</text>
</a>
</g>
</g>
<!-- Node1&#45;&gt;Node13 -->
<g id="edge12" class="edge">
<title>Node1&#45;&gt;Node13</title>
<path fill="none" stroke="midnightblue" d="M86.23,-306.55C99.2,-310.59 113.7,-315.05 127,-319 137.66,-322.17 149.31,-325.51 159.87,-328.5"/>
<polygon fill="midnightblue" stroke="midnightblue" points="87.23,-303.2 76.65,-303.56 85.15,-309.88 87.23,-303.2"/>
</g>
<!-- Node14 -->
<g id="node14" class="node">
<title>Node14</title>
<g id="a_node14"><a xlink:href="class_ogre_1_1v1_1_1_manual_object_1_1_manual_object_section.html" target="_top" xlink:title="Built, renderable section of geometry.">
<polygon fill="none" stroke="black" points="136.5,-279 136.5,-309 253.5,-309 253.5,-279 136.5,-279"/>
<text text-anchor="start" x="144.5" y="-297" font-family="Helvetica,sans-Serif" font-size="10.00">Ogre::v1::ManualObject</text>
<text text-anchor="middle" x="195" y="-286" font-family="Helvetica,sans-Serif" font-size="10.00">::ManualObjectSection</text>
</a>
</g>
</g>
<!-- Node1&#45;&gt;Node14 -->
<g id="edge13" class="edge">
<title>Node1&#45;&gt;Node14</title>
<path fill="none" stroke="midnightblue" d="M101.42,-294C112.83,-294 124.89,-294 136.4,-294"/>
<polygon fill="midnightblue" stroke="midnightblue" points="101.16,-290.5 91.16,-294 101.16,-297.5 101.16,-290.5"/>
</g>
<!-- Node15 -->
<g id="node15" class="node">
<title>Node15</title>
<g id="a_node15"><a xlink:href="class_ogre_1_1v1_1_1_overlay_element.html" target="_top" xlink:title="Abstract definition of a 2D element to be displayed in an Overlay.">
<polygon fill="none" stroke="black" points="132.5,-240.5 132.5,-259.5 257.5,-259.5 257.5,-240.5 132.5,-240.5"/>
<text text-anchor="middle" x="195" y="-247.5" font-family="Helvetica,sans-Serif" font-size="10.00">Ogre::v1::OverlayElement</text>
</a>
</g>
</g>
<!-- Node1&#45;&gt;Node15 -->
<g id="edge14" class="edge">
<title>Node1&#45;&gt;Node15</title>
<path fill="none" stroke="midnightblue" d="M88.18,-281.57C111.62,-274.57 140.42,-265.98 162.06,-259.53"/>
<polygon fill="midnightblue" stroke="midnightblue" points="87.09,-278.24 78.51,-284.45 89.09,-284.95 87.09,-278.24"/>
</g>
<!-- Node20 -->
<g id="node20" class="node">
<title>Node20</title>
<g id="a_node20"><a xlink:href="class_ogre_1_1v1_1_1_rectangle2_d.html" target="_top" xlink:title="Allows the rendering of a simple 2D rectangle This class renders a simple 2D rectangle; this rectangl...">
<polygon fill="none" stroke="black" points="138.5,-202.5 138.5,-221.5 251.5,-221.5 251.5,-202.5 138.5,-202.5"/>
<text text-anchor="middle" x="195" y="-209.5" font-family="Helvetica,sans-Serif" font-size="10.00">Ogre::v1::Rectangle2D</text>
</a>
</g>
</g>
<!-- Node1&#45;&gt;Node20 -->
<g id="edge19" class="edge">
<title>Node1&#45;&gt;Node20</title>
<path fill="none" stroke="midnightblue" d="M63.69,-277.27C79.12,-263.11 102.97,-243.21 127,-231 134.44,-227.22 142.73,-224.1 150.88,-221.55"/>
<polygon fill="midnightblue" stroke="midnightblue" points="60.93,-275.07 56.04,-284.47 65.73,-280.17 60.93,-275.07"/>
</g>
<!-- Node21 -->
<g id="node21" class="node">
<title>Node21</title>
<g id="a_node21"><a xlink:href="class_ogre_1_1v1_1_1_simple_renderable.html" target="_top" xlink:title="Simple implementation of MovableObject and Renderable for single&#45;part custom objects.">
<polygon fill="none" stroke="black" points="127,-164.5 127,-183.5 263,-183.5 263,-164.5 127,-164.5"/>
<text text-anchor="middle" x="195" y="-171.5" font-family="Helvetica,sans-Serif" font-size="10.00">Ogre::v1::SimpleRenderable</text>
</a>
</g>
</g>
<!-- Node1&#45;&gt;Node21 -->
<g id="edge20" class="edge">
<title>Node1&#45;&gt;Node21</title>
<path fill="none" stroke="midnightblue" d="M56.53,-275.26C69.71,-252.44 94.96,-214.32 127,-193 132.84,-189.12 139.47,-186.02 146.24,-183.54"/>
<polygon fill="midnightblue" stroke="midnightblue" points="53.32,-273.84 51.5,-284.28 59.43,-277.25 53.32,-273.84"/>
</g>
<!-- Node23 -->
<g id="node23" class="node">
<title>Node23</title>
<g id="a_node23"><a xlink:href="class_ogre_1_1v1_1_1_static_geometry_1_1_geometry_bucket.html" target="_top" xlink:title="A GeometryBucket is a the lowest level bucket where geometry with the same vertex &amp; index format is s...">
<polygon fill="none" stroke="black" points="132.5,-115 132.5,-145 257.5,-145 257.5,-115 132.5,-115"/>
<text text-anchor="start" x="140.5" y="-133" font-family="Helvetica,sans-Serif" font-size="10.00">Ogre::v1::StaticGeometry</text>
<text text-anchor="middle" x="195" y="-122" font-family="Helvetica,sans-Serif" font-size="10.00">::GeometryBucket</text>
</a>
</g>
</g>
<!-- Node1&#45;&gt;Node23 -->
<g id="edge22" class="edge">
<title>Node1&#45;&gt;Node23</title>
<path fill="none" stroke="midnightblue" d="M52.81,-274.8C63.51,-245.1 87.92,-188.02 127,-155 131.55,-151.15 136.75,-147.87 142.2,-145.08"/>
<polygon fill="midnightblue" stroke="midnightblue" points="49.45,-273.81 49.49,-284.41 56.07,-276.1 49.45,-273.81"/>
</g>
<!-- Node24 -->
<g id="node24" class="node">
<title>Node24</title>
<g id="a_node24"><a xlink:href="class_ogre_1_1v1_1_1_sub_entity.html" target="_top" xlink:title="Utility class which defines the sub&#45;parts of an Entity.">
<polygon fill="none" stroke="black" points="146,-76.5 146,-95.5 244,-95.5 244,-76.5 146,-76.5"/>
<text text-anchor="middle" x="195" y="-83.5" font-family="Helvetica,sans-Serif" font-size="10.00">Ogre::v1::SubEntity</text>
</a>
</g>
</g>
<!-- Node1&#45;&gt;Node24 -->
<g id="edge23" class="edge">
<title>Node1&#45;&gt;Node24</title>
<path fill="none" stroke="midnightblue" d="M49.25,-274.12C55.64,-235.64 75.1,-150.72 127,-105 132.44,-100.2 139.02,-96.61 145.89,-93.92"/>
<polygon fill="midnightblue" stroke="midnightblue" points="45.72,-274.07 47.67,-284.48 52.64,-275.13 45.72,-274.07"/>
</g>
<!-- Node25 -->
<g id="node25" class="node">
<title>Node25</title>
<g id="a_node25"><a xlink:href="class_ogre_1_1_voxel_visualizer.html" target="_top" xlink:title=" ">
<polygon fill="none" stroke="black" points="141,-38.5 141,-57.5 249,-57.5 249,-38.5 141,-38.5"/>
<text text-anchor="middle" x="195" y="-45.5" font-family="Helvetica,sans-Serif" font-size="10.00">Ogre::VoxelVisualizer</text>
</a>
</g>
</g>
<!-- Node1&#45;&gt;Node25 -->
<g id="edge24" class="edge">
<title>Node1&#45;&gt;Node25</title>
<path fill="none" stroke="midnightblue" d="M47.63,-274.13C51.23,-230.17 66.11,-124.09 127,-67 131.15,-63.11 136.03,-60.01 141.24,-57.54"/>
<polygon fill="midnightblue" stroke="midnightblue" points="44.14,-273.9 46.93,-284.12 51.12,-274.39 44.14,-273.9"/>
</g>
<!-- Node26 -->
<g id="node26" class="node">
<title>Node26</title>
<g id="a_node26"><a xlink:href="class_ogre_1_1_wire_aabb.html" target="_top" xlink:title="Helper class to display the Aabb of a MovableObject as lines.">
<polygon fill="none" stroke="black" points="153,-0.5 153,-19.5 237,-19.5 237,-0.5 153,-0.5"/>
<text text-anchor="middle" x="195" y="-7.5" font-family="Helvetica,sans-Serif" font-size="10.00">Ogre::WireAabb</text>
</a>
</g>
</g>
<!-- Node1&#45;&gt;Node26 -->
<g id="edge25" class="edge">
<title>Node1&#45;&gt;Node26</title>
<path fill="none" stroke="midnightblue" d="M46.45,-274.24C47.43,-225.36 56.95,-97.76 127,-29 133.99,-22.14 143.26,-17.72 152.68,-14.88"/>
<polygon fill="midnightblue" stroke="midnightblue" points="42.95,-274.38 46.35,-284.41 49.95,-274.44 42.95,-274.38"/>
</g>
<!-- Node3 -->
<g id="node3" class="node">
<title>Node3</title>
<g id="a_node3"><a xlink:href="class_ogre_1_1_camera.html" target="_top" xlink:title="A viewpoint from which the scene will be rendered.">
<polygon fill="none" stroke="black" points="328,-568.5 328,-587.5 404,-587.5 404,-568.5 328,-568.5"/>
<text text-anchor="middle" x="366" y="-575.5" font-family="Helvetica,sans-Serif" font-size="10.00">Ogre::Camera</text>
</a>
</g>
</g>
<!-- Node2&#45;&gt;Node3 -->
<g id="edge2" class="edge">
<title>Node2&#45;&gt;Node3</title>
<path fill="none" stroke="midnightblue" d="M244.58,-578C271.12,-578 303.48,-578 327.96,-578"/>
<polygon fill="midnightblue" stroke="midnightblue" points="244.35,-574.5 234.35,-578 244.35,-581.5 244.35,-574.5"/>
</g>
<!-- Node4 -->
<g id="node4" class="node">
<title>Node4</title>
<g id="a_node4"><a xlink:href="class_ogre_1_1_octree_camera.html" target="_top" xlink:title="Specialized viewpoint from which an Octree can be rendered.">
<polygon fill="none" stroke="black" points="491.5,-587.5 491.5,-606.5 596.5,-606.5 596.5,-587.5 491.5,-587.5"/>
<text text-anchor="middle" x="544" y="-594.5" font-family="Helvetica,sans-Serif" font-size="10.00">Ogre::OctreeCamera</text>
</a>
</g>
</g>
<!-- Node3&#45;&gt;Node4 -->
<g id="edge3" class="edge">
<title>Node3&#45;&gt;Node4</title>
<path fill="none" stroke="midnightblue" d="M414.51,-583.13C438.27,-585.69 467.07,-588.8 491.38,-591.43"/>
<polygon fill="midnightblue" stroke="midnightblue" points="414.64,-579.62 404.33,-582.03 413.89,-586.58 414.64,-579.62"/>
</g>
<!-- Node5 -->
<g id="node5" class="node">
<title>Node5</title>
<g id="a_node5"><a xlink:href="class_ogre_1_1_p_c_z_camera.html" target="_top" xlink:title="Specialized viewpoint from which an PCZone Scene can be rendered.">
<polygon fill="none" stroke="black" points="496.5,-549.5 496.5,-568.5 591.5,-568.5 591.5,-549.5 496.5,-549.5"/>
<text text-anchor="middle" x="544" y="-556.5" font-family="Helvetica,sans-Serif" font-size="10.00">Ogre::PCZCamera</text>
</a>
</g>
</g>
<!-- Node3&#45;&gt;Node5 -->
<g id="edge4" class="edge">
<title>Node3&#45;&gt;Node5</title>
<path fill="none" stroke="midnightblue" d="M414.47,-572.88C439.87,-570.13 471.03,-566.77 496.31,-564.04"/>
<polygon fill="midnightblue" stroke="midnightblue" points="413.89,-569.42 404.33,-573.97 414.64,-576.38 413.89,-569.42"/>
</g>
<!-- Node9 -->
<g id="node9" class="node">
<title>Node9</title>
<g id="a_node9"><a xlink:href="class_ogre_1_1_sub_item.html" target="_top" xlink:title="Utility class which defines the sub&#45;parts of an Item.">
<polygon fill="none" stroke="black" points="326.5,-442.5 326.5,-461.5 405.5,-461.5 405.5,-442.5 326.5,-442.5"/>
<text text-anchor="middle" x="366" y="-449.5" font-family="Helvetica,sans-Serif" font-size="10.00">Ogre::SubItem</text>
</a>
</g>
</g>
<!-- Node8&#45;&gt;Node9 -->
<g id="edge8" class="edge">
<title>Node8&#45;&gt;Node9</title>
<path fill="none" stroke="midnightblue" d="M271.46,-452C290.39,-452 309.93,-452 326.22,-452"/>
<polygon fill="midnightblue" stroke="midnightblue" points="271.34,-448.5 261.34,-452 271.34,-455.5 271.34,-448.5"/>
</g>
<!-- Node11 -->
<g id="node11" class="node">
<title>Node11</title>
<g id="a_node11"><a xlink:href="class_ogre_1_1v1_1_1_ribbon_trail.html" target="_top" xlink:title="Subclass of BillboardChain which automatically leaves a trail behind one or more Node instances.">
<polygon fill="none" stroke="black" points="313,-404.5 313,-423.5 419,-423.5 419,-404.5 313,-404.5"/>
<text text-anchor="middle" x="366" y="-411.5" font-family="Helvetica,sans-Serif" font-size="10.00">Ogre::v1::RibbonTrail</text>
</a>
</g>
</g>
<!-- Node10&#45;&gt;Node11 -->
<g id="edge10" class="edge">
<title>Node10&#45;&gt;Node11</title>
<path fill="none" stroke="midnightblue" d="M265.02,-414C281.04,-414 297.82,-414 312.96,-414"/>
<polygon fill="midnightblue" stroke="midnightblue" points="264.63,-410.5 254.63,-414 264.63,-417.5 264.63,-410.5"/>
</g>
<!-- Node16 -->
<g id="node16" class="node">
<title>Node16</title>
<g id="a_node16"><a xlink:href="class_ogre_1_1v1_1_1_overlay_container.html" target="_top" xlink:title="A 2D element which contains other OverlayElement instances.">
<polygon fill="none" stroke="black" points="300.5,-268.5 300.5,-287.5 431.5,-287.5 431.5,-268.5 300.5,-268.5"/>
<text text-anchor="middle" x="366" y="-275.5" font-family="Helvetica,sans-Serif" font-size="10.00">Ogre::v1::OverlayContainer</text>
</a>
</g>
</g>
<!-- Node15&#45;&gt;Node16 -->
<g id="edge15" class="edge">
<title>Node15&#45;&gt;Node16</title>
<path fill="none" stroke="midnightblue" d="M263.63,-261.21C278.19,-263.62 293.45,-266.14 307.57,-268.49"/>
<polygon fill="midnightblue" stroke="midnightblue" points="264.13,-257.74 253.69,-259.56 262.98,-264.65 264.13,-257.74"/>
</g>
<!-- Node19 -->
<g id="node19" class="node">
<title>Node19</title>
<g id="a_node19"><a xlink:href="class_ogre_1_1v1_1_1_text_area_overlay_element.html" target="_top" xlink:title="This class implements an overlay element which contains simple unformatted text.">
<polygon fill="none" stroke="black" points="301.5,-219 301.5,-249 430.5,-249 430.5,-219 301.5,-219"/>
<text text-anchor="start" x="309.5" y="-237" font-family="Helvetica,sans-Serif" font-size="10.00">Ogre::v1::TextAreaOverlay</text>
<text text-anchor="middle" x="366" y="-226" font-family="Helvetica,sans-Serif" font-size="10.00">Element</text>
</a>
</g>
</g>
<!-- Node15&#45;&gt;Node19 -->
<g id="edge18" class="edge">
<title>Node15&#45;&gt;Node19</title>
<path fill="none" stroke="midnightblue" d="M268.03,-243.18C279.1,-242.13 290.47,-241.06 301.34,-240.03"/>
<polygon fill="midnightblue" stroke="midnightblue" points="267.6,-239.71 257.97,-244.13 268.26,-246.67 267.6,-239.71"/>
</g>
<!-- Node17 -->
<g id="node17" class="node">
<title>Node17</title>
<g id="a_node17"><a xlink:href="class_ogre_1_1v1_1_1_panel_overlay_element.html" target="_top" xlink:title="OverlayElement representing a flat, single&#45;material (or transparent) panel which can contain other el...">
<polygon fill="none" stroke="black" points="469,-268.5 469,-287.5 619,-287.5 619,-268.5 469,-268.5"/>
<text text-anchor="middle" x="544" y="-275.5" font-family="Helvetica,sans-Serif" font-size="10.00">Ogre::v1::PanelOverlayElement</text>
</a>
</g>
</g>
<!-- Node16&#45;&gt;Node17 -->
<g id="edge16" class="edge">
<title>Node16&#45;&gt;Node17</title>
<path fill="none" stroke="midnightblue" d="M441.64,-278C450.68,-278 459.91,-278 468.94,-278"/>
<polygon fill="midnightblue" stroke="midnightblue" points="441.54,-274.5 431.54,-278 441.54,-281.5 441.54,-274.5"/>
</g>
<!-- Node18 -->
<g id="node18" class="node">
<title>Node18</title>
<g id="a_node18"><a xlink:href="class_ogre_1_1v1_1_1_border_panel_overlay_element.html" target="_top" xlink:title="A specialisation of the PanelOverlayElement to provide a panel with a border.">
<polygon fill="none" stroke="black" points="655,-263 655,-293 798,-293 798,-263 655,-263"/>
<text text-anchor="start" x="663" y="-281" font-family="Helvetica,sans-Serif" font-size="10.00">Ogre::v1::BorderPanelOverlay</text>
<text text-anchor="middle" x="726.5" y="-270" font-family="Helvetica,sans-Serif" font-size="10.00">Element</text>
</a>
</g>
</g>
<!-- Node17&#45;&gt;Node18 -->
<g id="edge17" class="edge">
<title>Node17&#45;&gt;Node18</title>
<path fill="none" stroke="midnightblue" d="M629.47,-278C637.94,-278 646.48,-278 654.79,-278"/>
<polygon fill="midnightblue" stroke="midnightblue" points="629.2,-274.5 619.2,-278 629.2,-281.5 629.2,-274.5"/>
</g>
<!-- Node22 -->
<g id="node22" class="node">
<title>Node22</title>
<g id="a_node22"><a xlink:href="class_ogre_1_1v1_1_1_wire_bounding_box.html" target="_top" xlink:title="Allows the rendering of a wireframe bounding box.">
<polygon fill="none" stroke="black" points="299,-164.5 299,-183.5 433,-183.5 433,-164.5 299,-164.5"/>
<text text-anchor="middle" x="366" y="-171.5" font-family="Helvetica,sans-Serif" font-size="10.00">Ogre::v1::WireBoundingBox</text>
</a>
</g>
</g>
<!-- Node21&#45;&gt;Node22 -->
<g id="edge21" class="edge">
<title>Node21&#45;&gt;Node22</title>
<path fill="none" stroke="midnightblue" d="M273.51,-174C281.95,-174 290.49,-174 298.78,-174"/>
<polygon fill="midnightblue" stroke="midnightblue" points="273.28,-170.5 263.28,-174 273.28,-177.5 273.28,-170.5"/>
</g>
</g>
</svg>
