<?xml version="1.0" encoding="UTF-8" standalone="no"?>
<!DOCTYPE svg PUBLIC "-//W3C//DTD SVG 1.1//EN"
 "http://www.w3.org/Graphics/SVG/1.1/DTD/svg11.dtd">
<!-- Generated by graphviz version 2.42.3 ()
 -->
<!-- Title: Ogre::Plugin Pages: 1 -->
<svg width="321pt" height="218pt"
 viewBox="0.00 0.00 321.00 218.00" xmlns="http://www.w3.org/2000/svg" xmlns:xlink="http://www.w3.org/1999/xlink">
<g id="graph0" class="graph" transform="scale(1 1) rotate(0) translate(4 214)">
<title>Ogre::Plugin</title>
<!-- Node1 -->
<g id="node1" class="node">
<title>Node1</title>
<g id="a_node1"><a xlink:title="Class defining a generic OGRE plugin.">
<polygon fill="#bfbfbf" stroke="black" points="101,-95.5 101,-114.5 170,-114.5 170,-95.5 101,-95.5"/>
<text text-anchor="middle" x="135.5" y="-102.5" font-family="Helvetica,sans-Serif" font-size="10.00">Ogre::Plugin</text>
</a>
</g>
</g>
<!-- Node3 -->
<g id="node3" class="node">
<title>Node3</title>
<g id="a_node3"><a xlink:href="class_ogre_1_1_d3_d11_plugin.html" target="_top" xlink:title="Plugin instance for D3D11 Manager.">
<polygon fill="none" stroke="black" points="210.5,-190.5 210.5,-209.5 308.5,-209.5 308.5,-190.5 210.5,-190.5"/>
<text text-anchor="middle" x="259.5" y="-197.5" font-family="Helvetica,sans-Serif" font-size="10.00">Ogre::D3D11Plugin</text>
</a>
</g>
</g>
<!-- Node1&#45;&gt;Node3 -->
<g id="edge2" class="edge">
<title>Node1&#45;&gt;Node3</title>
<path fill="none" stroke="midnightblue" d="M148.98,-123.06C161.6,-140.11 182.54,-165.34 206,-181 211.64,-184.77 218.13,-187.9 224.57,-190.45"/>
<polygon fill="midnightblue" stroke="midnightblue" points="151.54,-120.62 142.86,-114.54 145.85,-124.71 151.54,-120.62"/>
</g>
<!-- Node4 -->
<g id="node4" class="node">
<title>Node4</title>
<g id="a_node4"><a xlink:href="class_ogre_1_1_d3_d9_plugin.html" target="_top" xlink:title="Plugin instance for D3D9 Manager.">
<polygon fill="none" stroke="black" points="213,-152.5 213,-171.5 306,-171.5 306,-152.5 213,-152.5"/>
<text text-anchor="middle" x="259.5" y="-159.5" font-family="Helvetica,sans-Serif" font-size="10.00">Ogre::D3D9Plugin</text>
</a>
</g>
</g>
<!-- Node1&#45;&gt;Node4 -->
<g id="edge3" class="edge">
<title>Node1&#45;&gt;Node4</title>
<path fill="none" stroke="midnightblue" d="M161.28,-119.75C174.34,-127.22 190.77,-136.13 206,-143 213.51,-146.39 221.82,-149.62 229.57,-152.43"/>
<polygon fill="midnightblue" stroke="midnightblue" points="162.84,-116.61 152.43,-114.62 159.33,-122.67 162.84,-116.61"/>
</g>
<!-- Node5 -->
<g id="node5" class="node">
<title>Node5</title>
<g id="a_node5"><a xlink:href="class_ogre_1_1_g_l3_plus_plugin.html" target="_top" xlink:title="Plugin instance for GL3Plus Manager.">
<polygon fill="none" stroke="black" points="206,-114.5 206,-133.5 313,-133.5 313,-114.5 206,-114.5"/>
<text text-anchor="middle" x="259.5" y="-121.5" font-family="Helvetica,sans-Serif" font-size="10.00">Ogre::GL3PlusPlugin</text>
</a>
</g>
</g>
<!-- Node1&#45;&gt;Node5 -->
<g id="edge4" class="edge">
<title>Node1&#45;&gt;Node5</title>
<path fill="none" stroke="midnightblue" d="M180.3,-111.82C188.55,-113.11 197.24,-114.46 205.72,-115.78"/>
<polygon fill="midnightblue" stroke="midnightblue" points="180.58,-108.32 170.16,-110.24 179.5,-115.24 180.58,-108.32"/>
</g>
<!-- Node6 -->
<g id="node6" class="node">
<title>Node6</title>
<g id="a_node6"><a xlink:href="class_ogre_1_1_g_l_e_s2_plugin.html" target="_top" xlink:title="Plugin instance for GL ES 2 Manager.">
<polygon fill="none" stroke="black" points="209,-76.5 209,-95.5 310,-95.5 310,-76.5 209,-76.5"/>
<text text-anchor="middle" x="259.5" y="-83.5" font-family="Helvetica,sans-Serif" font-size="10.00">Ogre::GLES2Plugin</text>
</a>
</g>
</g>
<!-- Node1&#45;&gt;Node6 -->
<g id="edge5" class="edge">
<title>Node1&#45;&gt;Node6</title>
<path fill="none" stroke="midnightblue" d="M180.04,-98.22C189.41,-96.76 199.38,-95.21 208.96,-93.72"/>
<polygon fill="midnightblue" stroke="midnightblue" points="179.5,-94.76 170.16,-99.76 180.58,-101.68 179.5,-94.76"/>
</g>
<!-- Node7 -->
<g id="node7" class="node">
<title>Node7</title>
<g id="a_node7"><a xlink:href="class_ogre_1_1_metal_plugin.html" target="_top" xlink:title="Plugin instance for Metal Manager.">
<polygon fill="none" stroke="black" points="213,-38.5 213,-57.5 306,-57.5 306,-38.5 213,-38.5"/>
<text text-anchor="middle" x="259.5" y="-45.5" font-family="Helvetica,sans-Serif" font-size="10.00">Ogre::MetalPlugin</text>
</a>
</g>
</g>
<!-- Node1&#45;&gt;Node7 -->
<g id="edge6" class="edge">
<title>Node1&#45;&gt;Node7</title>
<path fill="none" stroke="midnightblue" d="M161.28,-90.25C174.34,-82.78 190.77,-73.87 206,-67 213.51,-63.61 221.82,-60.38 229.57,-57.57"/>
<polygon fill="midnightblue" stroke="midnightblue" points="159.33,-87.33 152.43,-95.38 162.84,-93.39 159.33,-87.33"/>
</g>
<!-- Node8 -->
<g id="node8" class="node">
<title>Node8</title>
<g id="a_node8"><a xlink:href="class_ogre_1_1_n_u_l_l_plugin.html" target="_top" xlink:title="Plugin instance for NULL Manager.">
<polygon fill="none" stroke="black" points="211.5,-0.5 211.5,-19.5 307.5,-19.5 307.5,-0.5 211.5,-0.5"/>
<text text-anchor="middle" x="259.5" y="-7.5" font-family="Helvetica,sans-Serif" font-size="10.00">Ogre::NULLPlugin</text>
</a>
</g>
</g>
<!-- Node1&#45;&gt;Node8 -->
<g id="edge7" class="edge">
<title>Node1&#45;&gt;Node8</title>
<path fill="none" stroke="midnightblue" d="M148.98,-86.94C161.6,-69.89 182.54,-44.66 206,-29 211.64,-25.23 218.13,-22.1 224.57,-19.55"/>
<polygon fill="midnightblue" stroke="midnightblue" points="145.85,-85.29 142.86,-95.46 151.54,-89.38 145.85,-85.29"/>
</g>
<!-- Node2 -->
<g id="node2" class="node">
<title>Node2</title>
<g id="a_node2"><a xlink:href="class_ogre_1_1_allocated_object.html" target="_top" xlink:title="Superclass for all objects that wish to use custom memory allocators when their new / delete operator...">
<polygon fill="none" stroke="black" points="0,-95.5 0,-114.5 65,-114.5 65,-95.5 0,-95.5"/>
<text text-anchor="middle" x="32.5" y="-102.5" font-family="Helvetica,sans-Serif" font-size="10.00">PluginAlloc</text>
</a>
</g>
</g>
<!-- Node2&#45;&gt;Node1 -->
<g id="edge1" class="edge">
<title>Node2&#45;&gt;Node1</title>
<path fill="none" stroke="midnightblue" d="M75.32,-105C83.82,-105 92.66,-105 100.84,-105"/>
<polygon fill="midnightblue" stroke="midnightblue" points="75.18,-101.5 65.18,-105 75.18,-108.5 75.18,-101.5"/>
</g>
</g>
</svg>
