<?xml version="1.0" encoding="UTF-8" standalone="no"?>
<!DOCTYPE svg PUBLIC "-//W3C//DTD SVG 1.1//EN"
 "http://www.w3.org/Graphics/SVG/1.1/DTD/svg11.dtd">
<!-- Generated by graphviz version 2.42.3 ()
 -->
<!-- Title: Ogre::Resource Pages: 1 -->
<svg width="748pt" height="553pt"
 viewBox="0.00 0.00 748.00 553.00" xmlns="http://www.w3.org/2000/svg" xmlns:xlink="http://www.w3.org/1999/xlink">
<g id="graph0" class="graph" transform="scale(1 1) rotate(0) translate(4 549)">
<title>Ogre::Resource</title>
<!-- Node1 -->
<g id="node1" class="node">
<title>Node1</title>
<g id="a_node1"><a xlink:title="Abstract class representing a loadable resource (e.g.">
<polygon fill="#bfbfbf" stroke="black" points="142,-190.5 142,-209.5 225,-209.5 225,-190.5 142,-190.5"/>
<text text-anchor="middle" x="183.5" y="-197.5" font-family="Helvetica,sans-Serif" font-size="10.00">Ogre::Resource</text>
</a>
</g>
</g>
<!-- Node4 -->
<g id="node4" class="node">
<title>Node4</title>
<g id="a_node4"><a xlink:href="class_ogre_1_1_font.html" target="_top" xlink:title="Class representing a font in the system.">
<polygon fill="none" stroke="black" points="278.5,-329.5 278.5,-348.5 340.5,-348.5 340.5,-329.5 278.5,-329.5"/>
<text text-anchor="middle" x="309.5" y="-336.5" font-family="Helvetica,sans-Serif" font-size="10.00">Ogre::Font</text>
</a>
</g>
</g>
<!-- Node1&#45;&gt;Node4 -->
<g id="edge3" class="edge">
<title>Node1&#45;&gt;Node4</title>
<path fill="none" stroke="midnightblue" d="M192.13,-219.02C203.5,-245.13 227.22,-292.02 261,-320 266.06,-324.19 272.17,-327.55 278.29,-330.2"/>
<polygon fill="midnightblue" stroke="midnightblue" points="195.24,-217.38 188.15,-209.52 188.79,-220.09 195.24,-217.38"/>
</g>
<!-- Node5 -->
<g id="node5" class="node">
<title>Node5</title>
<g id="a_node5"><a xlink:href="class_ogre_1_1_gpu_program.html" target="_top" xlink:title="Defines a program which runs on the GPU such as a vertex or fragment program.">
<polygon fill="none" stroke="black" points="261,-291.5 261,-310.5 358,-310.5 358,-291.5 261,-291.5"/>
<text text-anchor="middle" x="309.5" y="-298.5" font-family="Helvetica,sans-Serif" font-size="10.00">Ogre::GpuProgram</text>
</a>
</g>
</g>
<!-- Node1&#45;&gt;Node5 -->
<g id="edge4" class="edge">
<title>Node1&#45;&gt;Node5</title>
<path fill="none" stroke="midnightblue" d="M204.48,-216.27C230.63,-237.58 275.64,-274.24 296.83,-291.49"/>
<polygon fill="midnightblue" stroke="midnightblue" points="206.35,-213.29 196.39,-209.68 201.93,-218.71 206.35,-213.29"/>
</g>
<!-- Node15 -->
<g id="node15" class="node">
<title>Node15</title>
<g id="a_node15"><a xlink:href="class_ogre_1_1_material.html" target="_top" xlink:title="Class encapsulates rendering properties of an object.">
<polygon fill="none" stroke="black" points="271,-228.5 271,-247.5 348,-247.5 348,-228.5 271,-228.5"/>
<text text-anchor="middle" x="309.5" y="-235.5" font-family="Helvetica,sans-Serif" font-size="10.00">Ogre::Material</text>
</a>
</g>
</g>
<!-- Node1&#45;&gt;Node15 -->
<g id="edge14" class="edge">
<title>Node1&#45;&gt;Node15</title>
<path fill="none" stroke="midnightblue" d="M225.4,-212.54C242.27,-217.7 261.51,-223.6 277.22,-228.41"/>
<polygon fill="midnightblue" stroke="midnightblue" points="226.38,-209.17 215.79,-209.59 224.33,-215.87 226.38,-209.17"/>
</g>
<!-- Node16 -->
<g id="node16" class="node">
<title>Node16</title>
<g id="a_node16"><a xlink:href="class_ogre_1_1_mesh.html" target="_top" xlink:title="Resource holding data about 3D mesh.">
<polygon fill="none" stroke="black" points="276.5,-190.5 276.5,-209.5 342.5,-209.5 342.5,-190.5 276.5,-190.5"/>
<text text-anchor="middle" x="309.5" y="-197.5" font-family="Helvetica,sans-Serif" font-size="10.00">Ogre::Mesh</text>
</a>
</g>
</g>
<!-- Node1&#45;&gt;Node16 -->
<g id="edge15" class="edge">
<title>Node1&#45;&gt;Node16</title>
<path fill="none" stroke="midnightblue" d="M235.5,-200C249.36,-200 263.97,-200 276.46,-200"/>
<polygon fill="midnightblue" stroke="midnightblue" points="235.1,-196.5 225.1,-200 235.1,-203.5 235.1,-196.5"/>
</g>
<!-- Node17 -->
<g id="node17" class="node">
<title>Node17</title>
<g id="a_node17"><a xlink:href="class_ogre_1_1_texture.html" target="_top" xlink:title="Abstract class representing a Texture resource.">
<polygon fill="none" stroke="black" points="272.5,-152.5 272.5,-171.5 346.5,-171.5 346.5,-152.5 272.5,-152.5"/>
<text text-anchor="middle" x="309.5" y="-159.5" font-family="Helvetica,sans-Serif" font-size="10.00">Ogre::Texture</text>
</a>
</g>
</g>
<!-- Node1&#45;&gt;Node17 -->
<g id="edge16" class="edge">
<title>Node1&#45;&gt;Node17</title>
<path fill="none" stroke="midnightblue" d="M225.4,-187.46C242.27,-182.3 261.51,-176.4 277.22,-171.59"/>
<polygon fill="midnightblue" stroke="midnightblue" points="224.33,-184.13 215.79,-190.41 226.38,-190.83 224.33,-184.13"/>
</g>
<!-- Node29 -->
<g id="node29" class="node">
<title>Node29</title>
<g id="a_node29"><a xlink:href="class_ogre_1_1v1_1_1_mesh.html" target="_top" xlink:title="Resource holding data about 3D mesh.">
<polygon fill="none" stroke="black" points="269,-95.5 269,-114.5 350,-114.5 350,-95.5 269,-95.5"/>
<text text-anchor="middle" x="309.5" y="-102.5" font-family="Helvetica,sans-Serif" font-size="10.00">Ogre::v1::Mesh</text>
</a>
</g>
</g>
<!-- Node1&#45;&gt;Node29 -->
<g id="edge28" class="edge">
<title>Node1&#45;&gt;Node29</title>
<path fill="none" stroke="midnightblue" d="M205.36,-184.01C231.28,-164.16 274.67,-130.92 295.95,-114.61"/>
<polygon fill="midnightblue" stroke="midnightblue" points="203.11,-181.33 197.3,-190.19 207.37,-186.89 203.11,-181.33"/>
</g>
<!-- Node31 -->
<g id="node31" class="node">
<title>Node31</title>
<g id="a_node31"><a xlink:href="class_ogre_1_1v1_1_1_skeleton.html" target="_top" xlink:title="A collection of OldBone objects used to animate a skinned mesh.">
<polygon fill="none" stroke="black" points="262,-19.5 262,-38.5 357,-38.5 357,-19.5 262,-19.5"/>
<text text-anchor="middle" x="309.5" y="-26.5" font-family="Helvetica,sans-Serif" font-size="10.00">Ogre::v1::Skeleton</text>
</a>
</g>
</g>
<!-- Node1&#45;&gt;Node31 -->
<g id="edge30" class="edge">
<title>Node1&#45;&gt;Node31</title>
<path fill="none" stroke="midnightblue" d="M195.99,-181.63C210.49,-158.76 236.49,-118.72 261,-86 273.82,-68.89 289.99,-50 299.77,-38.84"/>
<polygon fill="midnightblue" stroke="midnightblue" points="192.89,-179.98 190.52,-190.31 198.81,-183.72 192.89,-179.98"/>
</g>
<!-- Node2 -->
<g id="node2" class="node">
<title>Node2</title>
<g id="a_node2"><a xlink:href="class_ogre_1_1_string_interface.html" target="_top" xlink:title="Class defining the common interface which classes can use to present a reflection&#45;style,...">
<polygon fill="none" stroke="black" points="0,-209.5 0,-228.5 106,-228.5 106,-209.5 0,-209.5"/>
<text text-anchor="middle" x="53" y="-216.5" font-family="Helvetica,sans-Serif" font-size="10.00">Ogre::StringInterface</text>
</a>
</g>
</g>
<!-- Node2&#45;&gt;Node1 -->
<g id="edge1" class="edge">
<title>Node2&#45;&gt;Node1</title>
<path fill="none" stroke="midnightblue" d="M116.33,-209.78C124.95,-208.51 133.62,-207.23 141.71,-206.03"/>
<polygon fill="midnightblue" stroke="midnightblue" points="115.65,-206.35 106.27,-211.27 116.67,-213.27 115.65,-206.35"/>
</g>
<!-- Node3 -->
<g id="node3" class="node">
<title>Node3</title>
<g id="a_node3"><a xlink:href="class_ogre_1_1_allocated_object.html" target="_top" xlink:title="Superclass for all objects that wish to use custom memory allocators when their new / delete operator...">
<polygon fill="none" stroke="black" points="13,-171.5 13,-190.5 93,-190.5 93,-171.5 13,-171.5"/>
<text text-anchor="middle" x="53" y="-178.5" font-family="Helvetica,sans-Serif" font-size="10.00">ResourceAlloc</text>
</a>
</g>
</g>
<!-- Node3&#45;&gt;Node1 -->
<g id="edge2" class="edge">
<title>Node3&#45;&gt;Node1</title>
<path fill="none" stroke="midnightblue" d="M103.23,-188.28C115.94,-190.16 129.48,-192.16 141.71,-193.97"/>
<polygon fill="midnightblue" stroke="midnightblue" points="103.66,-184.8 93.25,-186.8 102.63,-191.73 103.66,-184.8"/>
</g>
<!-- Node6 -->
<g id="node6" class="node">
<title>Node6</title>
<g id="a_node6"><a xlink:href="class_ogre_1_1_d3_d9_gpu_program.html" target="_top" xlink:title="Direct3D implementation of a few things common to low&#45;level vertex &amp; fragment programs.">
<polygon fill="none" stroke="black" points="407.5,-487.5 407.5,-506.5 528.5,-506.5 528.5,-487.5 407.5,-487.5"/>
<text text-anchor="middle" x="468" y="-494.5" font-family="Helvetica,sans-Serif" font-size="10.00">Ogre::D3D9GpuProgram</text>
</a>
</g>
</g>
<!-- Node5&#45;&gt;Node6 -->
<g id="edge5" class="edge">
<title>Node5&#45;&gt;Node6</title>
<path fill="none" stroke="midnightblue" d="M351.75,-315.35C353.96,-316.77 356.07,-318.32 358,-320 382.33,-341.17 377.3,-355.41 394,-383 417.73,-422.2 447.67,-467.83 460.58,-487.34"/>
<polygon fill="midnightblue" stroke="midnightblue" points="353.3,-312.21 342.85,-310.5 349.96,-318.36 353.3,-312.21"/>
</g>
<!-- Node9 -->
<g id="node9" class="node">
<title>Node9</title>
<g id="a_node9"><a xlink:href="class_ogre_1_1_high_level_gpu_program.html" target="_top" xlink:title="Abstract base class representing a high&#45;level program (a vertex or fragment program).">
<polygon fill="none" stroke="black" points="397.5,-354.5 397.5,-373.5 538.5,-373.5 538.5,-354.5 397.5,-354.5"/>
<text text-anchor="middle" x="468" y="-361.5" font-family="Helvetica,sans-Serif" font-size="10.00">Ogre::HighLevelGpuProgram</text>
</a>
</g>
</g>
<!-- Node5&#45;&gt;Node9 -->
<g id="edge8" class="edge">
<title>Node5&#45;&gt;Node9</title>
<path fill="none" stroke="midnightblue" d="M344.08,-314.42C348.75,-316.29 353.5,-318.19 358,-320 387.35,-331.79 421.12,-345.44 443.19,-354.37"/>
<polygon fill="midnightblue" stroke="midnightblue" points="345.25,-311.12 334.67,-310.65 342.65,-317.62 345.25,-311.12"/>
</g>
<!-- Node7 -->
<g id="node7" class="node">
<title>Node7</title>
<g id="a_node7"><a xlink:href="class_ogre_1_1_d3_d9_gpu_fragment_program.html" target="_top" xlink:title="Direct3D implementation of low&#45;level fragment programs.">
<polygon fill="none" stroke="black" points="578,-525.5 578,-544.5 740,-544.5 740,-525.5 578,-525.5"/>
<text text-anchor="middle" x="659" y="-532.5" font-family="Helvetica,sans-Serif" font-size="10.00">Ogre::D3D9GpuFragmentProgram</text>
</a>
</g>
</g>
<!-- Node6&#45;&gt;Node7 -->
<g id="edge6" class="edge">
<title>Node6&#45;&gt;Node7</title>
<path fill="none" stroke="midnightblue" d="M526.74,-508.61C553.62,-514.01 585.2,-520.36 610.65,-525.48"/>
<polygon fill="midnightblue" stroke="midnightblue" points="527.19,-505.13 516.69,-506.59 525.81,-511.99 527.19,-505.13"/>
</g>
<!-- Node8 -->
<g id="node8" class="node">
<title>Node8</title>
<g id="a_node8"><a xlink:href="class_ogre_1_1_d3_d9_gpu_vertex_program.html" target="_top" xlink:title="Direct3D implementation of low&#45;level vertex programs.">
<polygon fill="none" stroke="black" points="584.5,-487.5 584.5,-506.5 733.5,-506.5 733.5,-487.5 584.5,-487.5"/>
<text text-anchor="middle" x="659" y="-494.5" font-family="Helvetica,sans-Serif" font-size="10.00">Ogre::D3D9GpuVertexProgram</text>
</a>
</g>
</g>
<!-- Node6&#45;&gt;Node8 -->
<g id="edge7" class="edge">
<title>Node6&#45;&gt;Node8</title>
<path fill="none" stroke="midnightblue" d="M538.7,-497C553.62,-497 569.42,-497 584.47,-497"/>
<polygon fill="midnightblue" stroke="midnightblue" points="538.54,-493.5 528.54,-497 538.54,-500.5 538.54,-493.5"/>
</g>
<!-- Node10 -->
<g id="node10" class="node">
<title>Node10</title>
<g id="a_node10"><a xlink:href="class_ogre_1_1_d3_d11_h_l_s_l_program.html" target="_top" xlink:title="Specialization of HighLevelGpuProgram to provide support for D3D11 High&#45;Level Shader Language (HLSL).">
<polygon fill="none" stroke="black" points="592,-449.5 592,-468.5 726,-468.5 726,-449.5 592,-449.5"/>
<text text-anchor="middle" x="659" y="-456.5" font-family="Helvetica,sans-Serif" font-size="10.00">Ogre::D3D11HLSLProgram</text>
</a>
</g>
</g>
<!-- Node9&#45;&gt;Node10 -->
<g id="edge9" class="edge">
<title>Node9&#45;&gt;Node10</title>
<path fill="none" stroke="midnightblue" d="M487.6,-380.29C508.3,-397.58 543.4,-424.5 578,-440 586.47,-443.79 595.79,-446.88 605,-449.39"/>
<polygon fill="midnightblue" stroke="midnightblue" points="489.79,-377.56 479.91,-373.74 485.26,-382.89 489.79,-377.56"/>
</g>
<!-- Node11 -->
<g id="node11" class="node">
<title>Node11</title>
<g id="a_node11"><a xlink:href="class_ogre_1_1_d3_d9_h_l_s_l_program.html" target="_top" xlink:title="Specialisation of HighLevelGpuProgram to provide support for D3D9 High&#45;Level Shader Language (HLSL).">
<polygon fill="none" stroke="black" points="594.5,-411.5 594.5,-430.5 723.5,-430.5 723.5,-411.5 594.5,-411.5"/>
<text text-anchor="middle" x="659" y="-418.5" font-family="Helvetica,sans-Serif" font-size="10.00">Ogre::D3D9HLSLProgram</text>
</a>
</g>
</g>
<!-- Node9&#45;&gt;Node11 -->
<g id="edge10" class="edge">
<title>Node9&#45;&gt;Node11</title>
<path fill="none" stroke="midnightblue" d="M503.88,-377.18C525.12,-384.95 552.92,-394.67 578,-402 589.65,-405.4 602.38,-408.64 614.19,-411.45"/>
<polygon fill="midnightblue" stroke="midnightblue" points="504.9,-373.83 494.31,-373.65 502.48,-380.4 504.9,-373.83"/>
</g>
<!-- Node12 -->
<g id="node12" class="node">
<title>Node12</title>
<g id="a_node12"><a xlink:href="class_ogre_1_1_g_l_s_l_shader.html" target="_top" xlink:title="Specialisation of HighLevelGpuProgram to encapsulate shader objects obtained from compiled shaders wr...">
<polygon fill="none" stroke="black" points="609.5,-373.5 609.5,-392.5 708.5,-392.5 708.5,-373.5 609.5,-373.5"/>
<text text-anchor="middle" x="659" y="-380.5" font-family="Helvetica,sans-Serif" font-size="10.00">Ogre::GLSLShader</text>
</a>
</g>
</g>
<!-- Node9&#45;&gt;Node12 -->
<g id="edge11" class="edge">
<title>Node9&#45;&gt;Node12</title>
<path fill="none" stroke="midnightblue" d="M548.59,-372C569.18,-374.07 590.75,-376.24 609.24,-378.1"/>
<polygon fill="midnightblue" stroke="midnightblue" points="548.87,-368.51 538.57,-370.99 548.17,-375.48 548.87,-368.51"/>
</g>
<!-- Node13 -->
<g id="node13" class="node">
<title>Node13</title>
<g id="a_node13"><a xlink:href="class_ogre_1_1_metal_program.html" target="_top" xlink:title="Specialisation of HighLevelGpuProgram to provide support for Metal Shader Language.">
<polygon fill="none" stroke="black" points="607.5,-335.5 607.5,-354.5 710.5,-354.5 710.5,-335.5 607.5,-335.5"/>
<text text-anchor="middle" x="659" y="-342.5" font-family="Helvetica,sans-Serif" font-size="10.00">Ogre::MetalProgram</text>
</a>
</g>
</g>
<!-- Node9&#45;&gt;Node13 -->
<g id="edge12" class="edge">
<title>Node9&#45;&gt;Node13</title>
<path fill="none" stroke="midnightblue" d="M548.59,-356C568.54,-353.99 589.4,-351.9 607.49,-350.08"/>
<polygon fill="midnightblue" stroke="midnightblue" points="548.17,-352.52 538.57,-357.01 548.87,-359.49 548.17,-352.52"/>
</g>
<!-- Node14 -->
<g id="node14" class="node">
<title>Node14</title>
<g id="a_node14"><a xlink:href="class_ogre_1_1_unified_high_level_gpu_program.html" target="_top" xlink:title="Specialisation of HighLevelGpuProgram which just delegates its implementation to one other high level...">
<polygon fill="none" stroke="black" points="592,-286 592,-316 726,-316 726,-286 592,-286"/>
<text text-anchor="start" x="600" y="-304" font-family="Helvetica,sans-Serif" font-size="10.00">Ogre::UnifiedHighLevelGpu</text>
<text text-anchor="middle" x="659" y="-293" font-family="Helvetica,sans-Serif" font-size="10.00">Program</text>
</a>
</g>
</g>
<!-- Node9&#45;&gt;Node14 -->
<g id="edge13" class="edge">
<title>Node9&#45;&gt;Node14</title>
<path fill="none" stroke="midnightblue" d="M505.35,-351C526.49,-343.51 553.69,-334.03 578,-326 587.95,-322.71 598.63,-319.3 608.84,-316.08"/>
<polygon fill="midnightblue" stroke="midnightblue" points="504.05,-347.74 495.79,-354.39 506.39,-354.34 504.05,-347.74"/>
</g>
<!-- Node18 -->
<g id="node18" class="node">
<title>Node18</title>
<g id="a_node18"><a xlink:href="class_ogre_1_1_d3_d11_texture.html" target="_top" xlink:title=" ">
<polygon fill="none" stroke="black" points="416,-228.5 416,-247.5 520,-247.5 520,-228.5 416,-228.5"/>
<text text-anchor="middle" x="468" y="-235.5" font-family="Helvetica,sans-Serif" font-size="10.00">Ogre::D3D11Texture</text>
</a>
</g>
</g>
<!-- Node17&#45;&gt;Node18 -->
<g id="edge17" class="edge">
<title>Node17&#45;&gt;Node18</title>
<path fill="none" stroke="midnightblue" d="M349.34,-175.87C352.36,-177.44 355.28,-179.15 358,-181 377.25,-194.07 373.97,-207.17 394,-219 400.65,-222.93 408.12,-226.06 415.66,-228.54"/>
<polygon fill="midnightblue" stroke="midnightblue" points="350.68,-172.63 340.14,-171.56 347.71,-178.97 350.68,-172.63"/>
</g>
<!-- Node21 -->
<g id="node21" class="node">
<title>Node21</title>
<g id="a_node21"><a xlink:href="class_ogre_1_1_d3_d9_texture.html" target="_top" xlink:title=" ">
<polygon fill="none" stroke="black" points="419,-190.5 419,-209.5 517,-209.5 517,-190.5 419,-190.5"/>
<text text-anchor="middle" x="468" y="-197.5" font-family="Helvetica,sans-Serif" font-size="10.00">Ogre::D3D9Texture</text>
</a>
</g>
</g>
<!-- Node17&#45;&gt;Node21 -->
<g id="edge20" class="edge">
<title>Node17&#45;&gt;Node21</title>
<path fill="none" stroke="midnightblue" d="M356.81,-173.24C379.32,-178.71 406.09,-185.21 427.61,-190.44"/>
<polygon fill="midnightblue" stroke="midnightblue" points="357.34,-169.77 346.8,-170.81 355.69,-176.57 357.34,-169.77"/>
</g>
<!-- Node22 -->
<g id="node22" class="node">
<title>Node22</title>
<g id="a_node22"><a xlink:href="class_ogre_1_1_g_l3_plus_texture.html" target="_top" xlink:title=" ">
<polygon fill="none" stroke="black" points="411.5,-152.5 411.5,-171.5 524.5,-171.5 524.5,-152.5 411.5,-152.5"/>
<text text-anchor="middle" x="468" y="-159.5" font-family="Helvetica,sans-Serif" font-size="10.00">Ogre::GL3PlusTexture</text>
</a>
</g>
</g>
<!-- Node17&#45;&gt;Node22 -->
<g id="edge21" class="edge">
<title>Node17&#45;&gt;Node22</title>
<path fill="none" stroke="midnightblue" d="M357.05,-162C374.08,-162 393.52,-162 411.27,-162"/>
<polygon fill="midnightblue" stroke="midnightblue" points="356.8,-158.5 346.8,-162 356.8,-165.5 356.8,-158.5"/>
</g>
<!-- Node25 -->
<g id="node25" class="node">
<title>Node25</title>
<g id="a_node25"><a xlink:href="class_ogre_1_1_metal_texture.html" target="_top" xlink:title=" ">
<polygon fill="none" stroke="black" points="419,-114.5 419,-133.5 517,-133.5 517,-114.5 419,-114.5"/>
<text text-anchor="middle" x="468" y="-121.5" font-family="Helvetica,sans-Serif" font-size="10.00">Ogre::MetalTexture</text>
</a>
</g>
</g>
<!-- Node17&#45;&gt;Node25 -->
<g id="edge24" class="edge">
<title>Node17&#45;&gt;Node25</title>
<path fill="none" stroke="midnightblue" d="M356.81,-150.76C379.32,-145.29 406.09,-138.79 427.61,-133.56"/>
<polygon fill="midnightblue" stroke="midnightblue" points="355.69,-147.43 346.8,-153.19 357.34,-154.23 355.69,-147.43"/>
</g>
<!-- Node28 -->
<g id="node28" class="node">
<title>Node28</title>
<g id="a_node28"><a xlink:href="class_ogre_1_1_n_u_l_l_texture.html" target="_top" xlink:title=" ">
<polygon fill="none" stroke="black" points="417.5,-76.5 417.5,-95.5 518.5,-95.5 518.5,-76.5 417.5,-76.5"/>
<text text-anchor="middle" x="468" y="-83.5" font-family="Helvetica,sans-Serif" font-size="10.00">Ogre::NULLTexture</text>
</a>
</g>
</g>
<!-- Node17&#45;&gt;Node28 -->
<g id="edge27" class="edge">
<title>Node17&#45;&gt;Node28</title>
<path fill="none" stroke="midnightblue" d="M330.03,-145.78C346.25,-133.04 370.41,-115.73 394,-105 402.34,-101.21 411.58,-98.07 420.6,-95.51"/>
<polygon fill="midnightblue" stroke="midnightblue" points="327.5,-143.32 321.89,-152.31 331.88,-148.78 327.5,-143.32"/>
</g>
<!-- Node19 -->
<g id="node19" class="node">
<title>Node19</title>
<g id="a_node19"><a xlink:href="class_ogre_1_1_d3_d11_depth_texture.html" target="_top" xlink:title=" ">
<polygon fill="none" stroke="black" points="594.5,-247.5 594.5,-266.5 723.5,-266.5 723.5,-247.5 594.5,-247.5"/>
<text text-anchor="middle" x="659" y="-254.5" font-family="Helvetica,sans-Serif" font-size="10.00">Ogre::D3D11DepthTexture</text>
</a>
</g>
</g>
<!-- Node18&#45;&gt;Node19 -->
<g id="edge18" class="edge">
<title>Node18&#45;&gt;Node19</title>
<path fill="none" stroke="midnightblue" d="M530.3,-244.16C550.78,-246.22 573.65,-248.52 594.31,-250.6"/>
<polygon fill="midnightblue" stroke="midnightblue" points="530.45,-240.66 520.15,-243.14 529.75,-247.62 530.45,-240.66"/>
</g>
<!-- Node20 -->
<g id="node20" class="node">
<title>Node20</title>
<g id="a_node20"><a xlink:href="class_ogre_1_1_d3_d11_null_texture.html" target="_top" xlink:title=" ">
<polygon fill="none" stroke="black" points="598.5,-209.5 598.5,-228.5 719.5,-228.5 719.5,-209.5 598.5,-209.5"/>
<text text-anchor="middle" x="659" y="-216.5" font-family="Helvetica,sans-Serif" font-size="10.00">Ogre::D3D11NullTexture</text>
</a>
</g>
</g>
<!-- Node18&#45;&gt;Node20 -->
<g id="edge19" class="edge">
<title>Node18&#45;&gt;Node20</title>
<path fill="none" stroke="midnightblue" d="M530.3,-231.84C552.16,-229.64 576.73,-227.17 598.44,-224.99"/>
<polygon fill="midnightblue" stroke="midnightblue" points="529.75,-228.38 520.15,-232.86 530.45,-235.34 529.75,-228.38"/>
</g>
<!-- Node23 -->
<g id="node23" class="node">
<title>Node23</title>
<g id="a_node23"><a xlink:href="class_ogre_1_1_g_l3_plus_depth_texture.html" target="_top" xlink:title=" ">
<polygon fill="none" stroke="black" points="590,-171.5 590,-190.5 728,-190.5 728,-171.5 590,-171.5"/>
<text text-anchor="middle" x="659" y="-178.5" font-family="Helvetica,sans-Serif" font-size="10.00">Ogre::GL3PlusDepthTexture</text>
</a>
</g>
</g>
<!-- Node22&#45;&gt;Node23 -->
<g id="edge22" class="edge">
<title>Node22&#45;&gt;Node23</title>
<path fill="none" stroke="midnightblue" d="M534.92,-168.63C552.63,-170.41 571.82,-172.34 589.66,-174.13"/>
<polygon fill="midnightblue" stroke="midnightblue" points="534.98,-165.12 524.68,-167.6 534.28,-172.08 534.98,-165.12"/>
</g>
<!-- Node24 -->
<g id="node24" class="node">
<title>Node24</title>
<g id="a_node24"><a xlink:href="class_ogre_1_1_g_l3_plus_null_texture.html" target="_top" xlink:title=" ">
<polygon fill="none" stroke="black" points="594,-133.5 594,-152.5 724,-152.5 724,-133.5 594,-133.5"/>
<text text-anchor="middle" x="659" y="-140.5" font-family="Helvetica,sans-Serif" font-size="10.00">Ogre::GL3PlusNullTexture</text>
</a>
</g>
</g>
<!-- Node22&#45;&gt;Node24 -->
<g id="edge23" class="edge">
<title>Node22&#45;&gt;Node24</title>
<path fill="none" stroke="midnightblue" d="M534.8,-155.39C553.9,-153.47 574.73,-151.37 593.74,-149.46"/>
<polygon fill="midnightblue" stroke="midnightblue" points="534.28,-151.92 524.68,-156.4 534.98,-158.88 534.28,-151.92"/>
</g>
<!-- Node26 -->
<g id="node26" class="node">
<title>Node26</title>
<g id="a_node26"><a xlink:href="class_ogre_1_1_metal_depth_texture.html" target="_top" xlink:title=" ">
<polygon fill="none" stroke="black" points="597,-95.5 597,-114.5 721,-114.5 721,-95.5 597,-95.5"/>
<text text-anchor="middle" x="659" y="-102.5" font-family="Helvetica,sans-Serif" font-size="10.00">Ogre::MetalDepthTexture</text>
</a>
</g>
</g>
<!-- Node25&#45;&gt;Node26 -->
<g id="edge25" class="edge">
<title>Node25&#45;&gt;Node26</title>
<path fill="none" stroke="midnightblue" d="M527.37,-118.13C549.36,-115.92 574.42,-113.4 596.66,-111.17"/>
<polygon fill="midnightblue" stroke="midnightblue" points="526.78,-114.67 517.18,-119.16 527.48,-121.64 526.78,-114.67"/>
</g>
<!-- Node27 -->
<g id="node27" class="node">
<title>Node27</title>
<g id="a_node27"><a xlink:href="class_ogre_1_1_metal_null_texture.html" target="_top" xlink:title=" ">
<polygon fill="none" stroke="black" points="601,-57.5 601,-76.5 717,-76.5 717,-57.5 601,-57.5"/>
<text text-anchor="middle" x="659" y="-64.5" font-family="Helvetica,sans-Serif" font-size="10.00">Ogre::MetalNullTexture</text>
</a>
</g>
</g>
<!-- Node25&#45;&gt;Node27 -->
<g id="edge26" class="edge">
<title>Node25&#45;&gt;Node27</title>
<path fill="none" stroke="midnightblue" d="M522.2,-111.7C528.94,-109.69 535.68,-107.45 542,-105 558.87,-98.46 561.06,-92.36 578,-86 587.89,-82.28 598.75,-79.13 609.18,-76.52"/>
<polygon fill="midnightblue" stroke="midnightblue" points="521.04,-108.38 512.37,-114.47 522.95,-115.12 521.04,-108.38"/>
</g>
<!-- Node30 -->
<g id="node30" class="node">
<title>Node30</title>
<g id="a_node30"><a xlink:href="class_ogre_1_1v1_1_1_patch_mesh.html" target="_top" xlink:title="Patch specialisation of Mesh.">
<polygon fill="none" stroke="black" points="414.5,-38.5 414.5,-57.5 521.5,-57.5 521.5,-38.5 414.5,-38.5"/>
<text text-anchor="middle" x="468" y="-45.5" font-family="Helvetica,sans-Serif" font-size="10.00">Ogre::v1::PatchMesh</text>
</a>
</g>
</g>
<!-- Node29&#45;&gt;Node30 -->
<g id="edge29" class="edge">
<title>Node29&#45;&gt;Node30</title>
<path fill="none" stroke="midnightblue" d="M338.33,-90.87C354.33,-83.12 374.98,-73.75 394,-67 404,-63.45 414.98,-60.25 425.32,-57.53"/>
<polygon fill="midnightblue" stroke="midnightblue" points="336.45,-87.9 329.02,-95.45 339.54,-94.18 336.45,-87.9"/>
</g>
<!-- Node32 -->
<g id="node32" class="node">
<title>Node32</title>
<g id="a_node32"><a xlink:href="class_ogre_1_1v1_1_1_old_skeleton_instance.html" target="_top" xlink:title="A OldSkeletonInstance is a single instance of a Skeleton used by a world object.">
<polygon fill="none" stroke="black" points="394,-0.5 394,-19.5 542,-19.5 542,-0.5 394,-0.5"/>
<text text-anchor="middle" x="468" y="-7.5" font-family="Helvetica,sans-Serif" font-size="10.00">Ogre::v1::OldSkeletonInstance</text>
</a>
</g>
</g>
<!-- Node31&#45;&gt;Node32 -->
<g id="edge31" class="edge">
<title>Node31&#45;&gt;Node32</title>
<path fill="none" stroke="midnightblue" d="M367.08,-22.13C375.81,-21.07 384.94,-19.96 393.97,-18.87"/>
<polygon fill="midnightblue" stroke="midnightblue" points="366.54,-18.67 357.03,-23.35 367.38,-25.62 366.54,-18.67"/>
</g>
</g>
</svg>
