<?xml version="1.0" encoding="UTF-8" standalone="no"?>
<!DOCTYPE svg PUBLIC "-//W3C//DTD SVG 1.1//EN"
 "http://www.w3.org/Graphics/SVG/1.1/DTD/svg11.dtd">
<!-- Generated by graphviz version 2.42.3 ()
 -->
<!-- Title: Ogre::HlmsBufferManager Pages: 1 -->
<svg width="198pt" height="252pt"
 viewBox="0.00 0.00 198.00 252.00" xmlns="http://www.w3.org/2000/svg" xmlns:xlink="http://www.w3.org/1999/xlink">
<g id="graph0" class="graph" transform="scale(1 1) rotate(0) translate(4 248)">
<title>Ogre::HlmsBufferManager</title>
<!-- Node1 -->
<g id="node1" class="node">
<title>Node1</title>
<g id="a_node1"><a xlink:title="Managing constant and texture buffers for sending shader parameters is a very similar process to most...">
<polygon fill="#bfbfbf" stroke="black" points="31,-112.5 31,-131.5 159,-131.5 159,-112.5 31,-112.5"/>
<text text-anchor="middle" x="95" y="-119.5" font-family="Helvetica,sans-Serif" font-size="10.00">Ogre::HlmsBufferManager</text>
</a>
</g>
</g>
<!-- Node4 -->
<g id="node4" class="node">
<title>Node4</title>
<g id="a_node4"><a xlink:href="class_ogre_1_1_hlms_pbs.html" target="_top" xlink:title="Physically based shading implementation specfically designed for OpenGL 3+, D3D11 and other RenderSys...">
<polygon fill="none" stroke="black" points="2.5,-56.5 2.5,-75.5 85.5,-75.5 85.5,-56.5 2.5,-56.5"/>
<text text-anchor="middle" x="44" y="-63.5" font-family="Helvetica,sans-Serif" font-size="10.00">Ogre::HlmsPbs</text>
</a>
</g>
</g>
<!-- Node1&#45;&gt;Node4 -->
<g id="edge3" class="edge">
<title>Node1&#45;&gt;Node4</title>
<path fill="none" stroke="midnightblue" d="M79.62,-104.72C70.63,-95.2 59.64,-83.56 52.26,-75.75"/>
<polygon fill="midnightblue" stroke="midnightblue" points="77.17,-107.22 86.58,-112.08 82.26,-102.41 77.17,-107.22"/>
</g>
<!-- Node6 -->
<g id="node6" class="node">
<title>Node6</title>
<g id="a_node6"><a xlink:href="class_ogre_1_1_hlms_unlit.html" target="_top" xlink:title="Implementation without lighting or skeletal animation specfically designed for OpenGL 3+,...">
<polygon fill="none" stroke="black" points="104,-56.5 104,-75.5 190,-75.5 190,-56.5 104,-56.5"/>
<text text-anchor="middle" x="147" y="-63.5" font-family="Helvetica,sans-Serif" font-size="10.00">Ogre::HlmsUnlit</text>
</a>
</g>
</g>
<!-- Node1&#45;&gt;Node6 -->
<g id="edge5" class="edge">
<title>Node1&#45;&gt;Node6</title>
<path fill="none" stroke="midnightblue" d="M110.68,-104.72C119.84,-95.2 131.05,-83.56 138.57,-75.75"/>
<polygon fill="midnightblue" stroke="midnightblue" points="108,-102.45 103.59,-112.08 113.04,-107.31 108,-102.45"/>
</g>
<!-- Node2 -->
<g id="node2" class="node">
<title>Node2</title>
<g id="a_node2"><a xlink:href="class_ogre_1_1_hlms.html" target="_top" xlink:title="HLMS stands for &quot;High Level Material System&quot;.">
<polygon fill="none" stroke="black" points="62.5,-168.5 62.5,-187.5 127.5,-187.5 127.5,-168.5 62.5,-168.5"/>
<text text-anchor="middle" x="95" y="-175.5" font-family="Helvetica,sans-Serif" font-size="10.00">Ogre::Hlms</text>
</a>
</g>
</g>
<!-- Node2&#45;&gt;Node1 -->
<g id="edge1" class="edge">
<title>Node2&#45;&gt;Node1</title>
<path fill="none" stroke="midnightblue" d="M95,-157.8C95,-148.91 95,-138.78 95,-131.75"/>
<polygon fill="midnightblue" stroke="midnightblue" points="91.5,-158.08 95,-168.08 98.5,-158.08 91.5,-158.08"/>
</g>
<!-- Node3 -->
<g id="node3" class="node">
<title>Node3</title>
<g id="a_node3"><a xlink:href="class_ogre_1_1_allocated_object.html" target="_top" xlink:title="Superclass for all objects that wish to use custom memory allocators when their new / delete operator...">
<polygon fill="none" stroke="black" points="64,-224.5 64,-243.5 126,-243.5 126,-224.5 64,-224.5"/>
<text text-anchor="middle" x="95" y="-231.5" font-family="Helvetica,sans-Serif" font-size="10.00">HlmsAlloc</text>
</a>
</g>
</g>
<!-- Node3&#45;&gt;Node2 -->
<g id="edge2" class="edge">
<title>Node3&#45;&gt;Node2</title>
<path fill="none" stroke="midnightblue" d="M95,-213.8C95,-204.91 95,-194.78 95,-187.75"/>
<polygon fill="midnightblue" stroke="midnightblue" points="91.5,-214.08 95,-224.08 98.5,-214.08 91.5,-214.08"/>
</g>
<!-- Node5 -->
<g id="node5" class="node">
<title>Node5</title>
<g id="a_node5"><a xlink:href="class_ogre_1_1_hlms_terra.html" target="_top" xlink:title="Physically based shading implementation specfically designed for OpenGL 3+, D3D11 and other RenderSys...">
<polygon fill="none" stroke="black" points="0,-0.5 0,-19.5 88,-19.5 88,-0.5 0,-0.5"/>
<text text-anchor="middle" x="44" y="-7.5" font-family="Helvetica,sans-Serif" font-size="10.00">Ogre::HlmsTerra</text>
</a>
</g>
</g>
<!-- Node4&#45;&gt;Node5 -->
<g id="edge4" class="edge">
<title>Node4&#45;&gt;Node5</title>
<path fill="none" stroke="midnightblue" d="M44,-45.8C44,-36.91 44,-26.78 44,-19.75"/>
<polygon fill="midnightblue" stroke="midnightblue" points="40.5,-46.08 44,-56.08 47.5,-46.08 40.5,-46.08"/>
</g>
</g>
</svg>
