<?xml version="1.0" encoding="UTF-8" standalone="no"?>
<!DOCTYPE svg PUBLIC "-//W3C//DTD SVG 1.1//EN"
 "http://www.w3.org/Graphics/SVG/1.1/DTD/svg11.dtd">
<!-- Generated by graphviz version 2.42.3 ()
 -->
<!-- Title: OgreFramework Pages: 1 -->
<svg width="299pt" height="142pt"
 viewBox="0.00 0.00 299.00 142.00" xmlns="http://www.w3.org/2000/svg" xmlns:xlink="http://www.w3.org/1999/xlink">
<g id="graph0" class="graph" transform="scale(1 1) rotate(0) translate(4 138)">
<title>OgreFramework</title>
<!-- Node1 -->
<g id="node1" class="node">
<title>Node1</title>
<g id="a_node1"><a xlink:title=" ">
<polygon fill="#bfbfbf" stroke="black" points="205,-57.5 205,-76.5 291,-76.5 291,-57.5 205,-57.5"/>
<text text-anchor="middle" x="248" y="-64.5" font-family="Helvetica,sans-Serif" font-size="10.00">OgreFramework</text>
</a>
</g>
</g>
<!-- Node2 -->
<g id="node2" class="node">
<title>Node2</title>
<g id="a_node2"><a xlink:href="class_ogre_1_1_singleton.html" target="_top" xlink:title=" ">
<polygon fill="none" stroke="black" points="0,-114.5 0,-133.5 169,-133.5 169,-114.5 0,-114.5"/>
<text text-anchor="middle" x="84.5" y="-121.5" font-family="Helvetica,sans-Serif" font-size="10.00">Ogre::Singleton&lt; OgreFramework &gt;</text>
</a>
</g>
</g>
<!-- Node2&#45;&gt;Node1 -->
<g id="edge1" class="edge">
<title>Node2&#45;&gt;Node1</title>
<path fill="none" stroke="midnightblue" d="M145.84,-112.01C153.71,-109.94 161.6,-107.6 169,-105 190.88,-97.3 214.66,-85.11 230.14,-76.62"/>
<polygon fill="midnightblue" stroke="midnightblue" points="144.78,-108.67 135.93,-114.49 146.48,-115.46 144.78,-108.67"/>
</g>
<!-- Node3 -->
<g id="node3" class="node">
<title>Node3</title>
<g id="a_node3"><a xlink:title=" ">
<polygon fill="none" stroke="#bfbfbf" points="39.5,-76.5 39.5,-95.5 129.5,-95.5 129.5,-76.5 39.5,-76.5"/>
<text text-anchor="middle" x="84.5" y="-83.5" font-family="Helvetica,sans-Serif" font-size="10.00">OIS::KeyListener</text>
</a>
</g>
</g>
<!-- Node3&#45;&gt;Node1 -->
<g id="edge2" class="edge">
<title>Node3&#45;&gt;Node1</title>
<path fill="none" stroke="#8b1a1a" d="M139.8,-79.61C161.02,-77.11 184.99,-74.3 204.87,-71.96"/>
<polygon fill="#8b1a1a" stroke="#8b1a1a" points="139.15,-76.16 129.63,-80.81 139.97,-83.12 139.15,-76.16"/>
</g>
<!-- Node4 -->
<g id="node4" class="node">
<title>Node4</title>
<g id="a_node4"><a xlink:title=" ">
<polygon fill="none" stroke="#bfbfbf" points="33,-38.5 33,-57.5 136,-57.5 136,-38.5 33,-38.5"/>
<text text-anchor="middle" x="84.5" y="-45.5" font-family="Helvetica,sans-Serif" font-size="10.00">OIS::MouseListener</text>
</a>
</g>
</g>
<!-- Node4&#45;&gt;Node1 -->
<g id="edge3" class="edge">
<title>Node4&#45;&gt;Node1</title>
<path fill="none" stroke="#8b1a1a" d="M146.21,-55.14C165.77,-57.44 187.01,-59.94 204.92,-62.05"/>
<polygon fill="#8b1a1a" stroke="#8b1a1a" points="146.5,-51.65 136.16,-53.96 145.68,-58.6 146.5,-51.65"/>
</g>
<!-- Node5 -->
<g id="node5" class="node">
<title>Node5</title>
<g id="a_node5"><a xlink:title=" ">
<polygon fill="none" stroke="#bfbfbf" points="16.5,-0.5 16.5,-19.5 152.5,-19.5 152.5,-0.5 16.5,-0.5"/>
<text text-anchor="middle" x="84.5" y="-7.5" font-family="Helvetica,sans-Serif" font-size="10.00">OgreBites::SdkTrayListener</text>
</a>
</g>
</g>
<!-- Node5&#45;&gt;Node1 -->
<g id="edge4" class="edge">
<title>Node5&#45;&gt;Node1</title>
<path fill="none" stroke="#8b1a1a" d="M145.84,-21.99C153.71,-24.06 161.6,-26.4 169,-29 190.88,-36.7 214.66,-48.89 230.14,-57.38"/>
<polygon fill="#8b1a1a" stroke="#8b1a1a" points="146.48,-18.54 135.93,-19.51 144.78,-25.33 146.48,-18.54"/>
</g>
</g>
</svg>
