<?xml version="1.0" encoding="UTF-8" standalone="no"?>
<!DOCTYPE svg PUBLIC "-//W3C//DTD SVG 1.1//EN"
 "http://www.w3.org/Graphics/SVG/1.1/DTD/svg11.dtd">
<!-- Generated by graphviz version 2.42.3 ()
 -->
<!-- Title: Ogre::IdObject Pages: 1 -->
<svg width="691pt" height="952pt"
 viewBox="0.00 0.00 691.00 952.00" xmlns="http://www.w3.org/2000/svg" xmlns:xlink="http://www.w3.org/1999/xlink">
<g id="graph0" class="graph" transform="scale(1 1) rotate(0) translate(4 948)">
<title>Ogre::IdObject</title>
<!-- Node1 -->
<g id="node1" class="node">
<title>Node1</title>
<g id="a_node1"><a xlink:title=" ">
<polygon fill="#bfbfbf" stroke="black" points="0,-253.5 0,-272.5 79,-272.5 79,-253.5 0,-253.5"/>
<text text-anchor="middle" x="39.5" y="-260.5" font-family="Helvetica,sans-Serif" font-size="10.00">Ogre::IdObject</text>
</a>
</g>
</g>
<!-- Node2 -->
<g id="node2" class="node">
<title>Node2</title>
<g id="a_node2"><a xlink:href="class_ogre_1_1_bone.html" target="_top" xlink:title="Class representing a Bone in the join hierarchy of a skeleton.">
<polygon fill="none" stroke="black" points="173.5,-582.5 173.5,-601.5 238.5,-601.5 238.5,-582.5 173.5,-582.5"/>
<text text-anchor="middle" x="206" y="-589.5" font-family="Helvetica,sans-Serif" font-size="10.00">Ogre::Bone</text>
</a>
</g>
</g>
<!-- Node1&#45;&gt;Node2 -->
<g id="edge1" class="edge">
<title>Node1&#45;&gt;Node2</title>
<path fill="none" stroke="midnightblue" d="M42.5,-282.62C49.18,-344.19 72.7,-531.86 115,-573 130.23,-587.81 153.92,-592.36 173.18,-593.31"/>
<polygon fill="midnightblue" stroke="midnightblue" points="45.98,-282.24 41.45,-272.66 39.02,-282.97 45.98,-282.24"/>
</g>
<!-- Node3 -->
<g id="node3" class="node">
<title>Node3</title>
<g id="a_node3"><a xlink:href="class_ogre_1_1_compositor_node.html" target="_top" xlink:title="Compositor nodes are the core subject of compositing.">
<polygon fill="none" stroke="black" points="148.5,-544.5 148.5,-563.5 263.5,-563.5 263.5,-544.5 148.5,-544.5"/>
<text text-anchor="middle" x="206" y="-551.5" font-family="Helvetica,sans-Serif" font-size="10.00">Ogre::CompositorNode</text>
</a>
</g>
</g>
<!-- Node1&#45;&gt;Node3 -->
<g id="edge2" class="edge">
<title>Node1&#45;&gt;Node3</title>
<path fill="none" stroke="midnightblue" d="M43.22,-282.75C51.41,-339.25 77.58,-499.74 115,-535 124.06,-543.54 135.96,-548.64 148.12,-551.61"/>
<polygon fill="midnightblue" stroke="midnightblue" points="46.66,-282.04 41.79,-272.63 39.73,-283.02 46.66,-282.04"/>
</g>
<!-- Node5 -->
<g id="node5" class="node">
<title>Node5</title>
<g id="a_node5"><a xlink:href="class_ogre_1_1_compositor_workspace.html" target="_top" xlink:title="A compositor workspace is the main interface to render into an RT, be it a RenderWindow or an RTT (Re...">
<polygon fill="none" stroke="black" points="136,-506.5 136,-525.5 276,-525.5 276,-506.5 136,-506.5"/>
<text text-anchor="middle" x="206" y="-513.5" font-family="Helvetica,sans-Serif" font-size="10.00">Ogre::CompositorWorkspace</text>
</a>
</g>
</g>
<!-- Node1&#45;&gt;Node5 -->
<g id="edge4" class="edge">
<title>Node1&#45;&gt;Node5</title>
<path fill="none" stroke="midnightblue" d="M40.54,-282.82C41.77,-328.08 51.46,-439.52 115,-497 121.04,-502.46 128.25,-506.5 135.91,-509.47"/>
<polygon fill="midnightblue" stroke="midnightblue" points="44.04,-282.76 40.38,-272.82 37.04,-282.87 44.04,-282.76"/>
</g>
<!-- Node6 -->
<g id="node6" class="node">
<title>Node6</title>
<g id="a_node6"><a xlink:href="class_ogre_1_1_movable_object.html" target="_top" xlink:title="Abstract class defining a movable object in a scene.">
<polygon fill="none" stroke="black" points="152.5,-468.5 152.5,-487.5 259.5,-487.5 259.5,-468.5 152.5,-468.5"/>
<text text-anchor="middle" x="206" y="-475.5" font-family="Helvetica,sans-Serif" font-size="10.00">Ogre::MovableObject</text>
</a>
</g>
</g>
<!-- Node1&#45;&gt;Node6 -->
<g id="edge5" class="edge">
<title>Node1&#45;&gt;Node6</title>
<path fill="none" stroke="midnightblue" d="M54.04,-280.7C87.2,-324.04 171.67,-434.44 197.43,-468.1"/>
<polygon fill="midnightblue" stroke="midnightblue" points="56.64,-278.33 47.78,-272.52 51.08,-282.58 56.64,-278.33"/>
</g>
<!-- Node30 -->
<g id="node30" class="node">
<title>Node30</title>
<g id="a_node30"><a xlink:href="class_ogre_1_1_node.html" target="_top" xlink:title="Class representing a general&#45;purpose node an articulated scene graph.">
<polygon fill="none" stroke="black" points="173.5,-272.5 173.5,-291.5 238.5,-291.5 238.5,-272.5 173.5,-272.5"/>
<text text-anchor="middle" x="206" y="-279.5" font-family="Helvetica,sans-Serif" font-size="10.00">Ogre::Node</text>
</a>
</g>
</g>
<!-- Node1&#45;&gt;Node30 -->
<g id="edge29" class="edge">
<title>Node1&#45;&gt;Node30</title>
<path fill="none" stroke="midnightblue" d="M89.17,-268.62C116.35,-271.76 149.45,-275.58 173.3,-278.34"/>
<polygon fill="midnightblue" stroke="midnightblue" points="89.4,-265.13 79.07,-267.45 88.6,-272.08 89.4,-265.13"/>
</g>
<!-- Node33 -->
<g id="node33" class="node">
<title>Node33</title>
<g id="a_node33"><a xlink:href="class_ogre_1_1_parallax_corrected_cubemap_base.html" target="_top" xlink:title=" ">
<polygon fill="none" stroke="black" points="115,-234.5 115,-253.5 297,-253.5 297,-234.5 115,-234.5"/>
<text text-anchor="middle" x="206" y="-241.5" font-family="Helvetica,sans-Serif" font-size="10.00">Ogre::ParallaxCorrectedCubemapBase</text>
</a>
</g>
</g>
<!-- Node1&#45;&gt;Node33 -->
<g id="edge32" class="edge">
<title>Node1&#45;&gt;Node33</title>
<path fill="none" stroke="midnightblue" d="M89.26,-257.37C99.77,-256.15 111.16,-254.84 122.56,-253.52"/>
<polygon fill="midnightblue" stroke="midnightblue" points="88.6,-253.92 79.07,-258.55 89.4,-260.87 88.6,-253.92"/>
</g>
<!-- Node36 -->
<g id="node36" class="node">
<title>Node36</title>
<g id="a_node36"><a xlink:href="class_ogre_1_1_scene_manager.html" target="_top" xlink:title="Manages the organisation and rendering of a &#39;scene&#39; i.e.">
<polygon fill="none" stroke="black" points="152.5,-196.5 152.5,-215.5 259.5,-215.5 259.5,-196.5 152.5,-196.5"/>
<text text-anchor="middle" x="206" y="-203.5" font-family="Helvetica,sans-Serif" font-size="10.00">Ogre::SceneManager</text>
</a>
</g>
</g>
<!-- Node1&#45;&gt;Node36 -->
<g id="edge35" class="edge">
<title>Node1&#45;&gt;Node36</title>
<path fill="none" stroke="midnightblue" d="M65.3,-248.26C79.45,-240.39 97.76,-231.1 115,-225 126.89,-220.79 140.02,-217.38 152.48,-214.66"/>
<polygon fill="midnightblue" stroke="midnightblue" points="63.19,-245.44 56.23,-253.43 66.65,-251.52 63.19,-245.44"/>
</g>
<!-- Node38 -->
<g id="node38" class="node">
<title>Node38</title>
<g id="a_node38"><a xlink:href="class_ogre_1_1_vct_lighting.html" target="_top" xlink:title=" ">
<polygon fill="none" stroke="black" points="160,-158.5 160,-177.5 252,-177.5 252,-158.5 160,-158.5"/>
<text text-anchor="middle" x="206" y="-165.5" font-family="Helvetica,sans-Serif" font-size="10.00">Ogre::VctLighting</text>
</a>
</g>
</g>
<!-- Node1&#45;&gt;Node38 -->
<g id="edge37" class="edge">
<title>Node1&#45;&gt;Node38</title>
<path fill="none" stroke="midnightblue" d="M53.11,-244.98C66.43,-227.38 89.07,-201.23 115,-187 128.58,-179.55 144.79,-175.02 159.69,-172.26"/>
<polygon fill="midnightblue" stroke="midnightblue" points="50.11,-243.16 47.03,-253.3 55.76,-247.29 50.11,-243.16"/>
</g>
<!-- Node39 -->
<g id="node39" class="node">
<title>Node39</title>
<g id="a_node39"><a xlink:href="class_ogre_1_1_vct_material.html" target="_top" xlink:title=" ">
<polygon fill="none" stroke="black" points="160,-120.5 160,-139.5 252,-139.5 252,-120.5 160,-120.5"/>
<text text-anchor="middle" x="206" y="-127.5" font-family="Helvetica,sans-Serif" font-size="10.00">Ogre::VctMaterial</text>
</a>
</g>
</g>
<!-- Node1&#45;&gt;Node39 -->
<g id="edge38" class="edge">
<title>Node1&#45;&gt;Node39</title>
<path fill="none" stroke="midnightblue" d="M47.6,-243.73C58.15,-217.91 80.53,-172.58 115,-149 128.05,-140.07 144.46,-135.21 159.69,-132.6"/>
<polygon fill="midnightblue" stroke="midnightblue" points="44.28,-242.6 43.91,-253.19 50.8,-245.15 44.28,-242.6"/>
</g>
<!-- Node40 -->
<g id="node40" class="node">
<title>Node40</title>
<g id="a_node40"><a xlink:href="class_ogre_1_1_vct_voxelizer.html" target="_top" xlink:title=" ">
<polygon fill="none" stroke="black" points="158,-82.5 158,-101.5 254,-101.5 254,-82.5 158,-82.5"/>
<text text-anchor="middle" x="206" y="-89.5" font-family="Helvetica,sans-Serif" font-size="10.00">Ogre::VctVoxelizer</text>
</a>
</g>
</g>
<!-- Node1&#45;&gt;Node40 -->
<g id="edge39" class="edge">
<title>Node1&#45;&gt;Node40</title>
<path fill="none" stroke="midnightblue" d="M44.37,-243.16C51.88,-210.27 71.65,-144.75 115,-111 127.1,-101.58 142.78,-96.56 157.65,-93.95"/>
<polygon fill="midnightblue" stroke="midnightblue" points="40.87,-242.82 42.21,-253.33 47.72,-244.27 40.87,-242.82"/>
</g>
<!-- Node4 -->
<g id="node4" class="node">
<title>Node4</title>
<g id="a_node4"><a xlink:href="class_ogre_1_1_compositor_shadow_node.html" target="_top" xlink:title="Shadow Nodes are special nodes (not to be confused with.">
<polygon fill="none" stroke="black" points="348,-924.5 348,-943.5 498,-943.5 498,-924.5 348,-924.5"/>
<text text-anchor="middle" x="423" y="-931.5" font-family="Helvetica,sans-Serif" font-size="10.00">Ogre::CompositorShadowNode</text>
</a>
</g>
</g>
<!-- Node3&#45;&gt;Node4 -->
<g id="edge3" class="edge">
<title>Node3&#45;&gt;Node4</title>
<path fill="none" stroke="midnightblue" d="M273.15,-557.83C282.2,-561.04 290.57,-565.87 297,-573 399.36,-686.5 230.77,-801.38 333,-915 337.23,-919.7 342.31,-923.39 347.87,-926.28"/>
<polygon fill="midnightblue" stroke="midnightblue" points="274.11,-554.46 263.53,-555.03 272.15,-561.18 274.11,-554.46"/>
</g>
<!-- Node7 -->
<g id="node7" class="node">
<title>Node7</title>
<g id="a_node7"><a xlink:href="class_ogre_1_1_decal.html" target="_top" xlink:title=" ">
<polygon fill="none" stroke="black" points="389.5,-886.5 389.5,-905.5 456.5,-905.5 456.5,-886.5 389.5,-886.5"/>
<text text-anchor="middle" x="423" y="-893.5" font-family="Helvetica,sans-Serif" font-size="10.00">Ogre::Decal</text>
</a>
</g>
</g>
<!-- Node6&#45;&gt;Node7 -->
<g id="edge6" class="edge">
<title>Node6&#45;&gt;Node7</title>
<path fill="none" stroke="midnightblue" d="M269.56,-480.56C279.99,-483.74 289.75,-488.88 297,-497 353.48,-560.29 276.59,-813.65 333,-877 346.87,-892.58 370.1,-897.14 389.35,-897.91"/>
<polygon fill="midnightblue" stroke="midnightblue" points="270.4,-477.16 259.85,-478.17 268.72,-483.96 270.4,-477.16"/>
</g>
<!-- Node8 -->
<g id="node8" class="node">
<title>Node8</title>
<g id="a_node8"><a xlink:href="class_ogre_1_1_frustum.html" target="_top" xlink:title="A frustum represents a pyramid, capped at the near and far end which is used to represent either a vi...">
<polygon fill="none" stroke="black" points="384,-848.5 384,-867.5 462,-867.5 462,-848.5 384,-848.5"/>
<text text-anchor="middle" x="423" y="-855.5" font-family="Helvetica,sans-Serif" font-size="10.00">Ogre::Frustum</text>
</a>
</g>
</g>
<!-- Node6&#45;&gt;Node8 -->
<g id="edge7" class="edge">
<title>Node6&#45;&gt;Node8</title>
<path fill="none" stroke="midnightblue" d="M269.49,-480.62C279.93,-483.79 289.71,-488.92 297,-497 399.36,-610.5 230.77,-725.38 333,-839 345.58,-852.98 365.69,-858.07 383.62,-859.51"/>
<polygon fill="midnightblue" stroke="midnightblue" points="270.33,-477.22 259.78,-478.23 268.65,-484.02 270.33,-477.22"/>
</g>
<!-- Node10 -->
<g id="node10" class="node">
<title>Node10</title>
<g id="a_node10"><a xlink:href="class_ogre_1_1_internal_cubemap_probe.html" target="_top" xlink:title=" ">
<polygon fill="none" stroke="black" points="352.5,-810.5 352.5,-829.5 493.5,-829.5 493.5,-810.5 352.5,-810.5"/>
<text text-anchor="middle" x="423" y="-817.5" font-family="Helvetica,sans-Serif" font-size="10.00">Ogre::InternalCubemapProbe</text>
</a>
</g>
</g>
<!-- Node6&#45;&gt;Node10 -->
<g id="edge9" class="edge">
<title>Node6&#45;&gt;Node10</title>
<path fill="none" stroke="midnightblue" d="M269.41,-480.7C279.85,-483.86 289.66,-488.97 297,-497 388.77,-597.44 241.34,-700.45 333,-801 338.32,-806.84 344.96,-811.12 352.2,-814.23"/>
<polygon fill="midnightblue" stroke="midnightblue" points="270.24,-477.3 259.69,-478.31 268.57,-484.1 270.24,-477.3"/>
</g>
<!-- Node11 -->
<g id="node11" class="node">
<title>Node11</title>
<g id="a_node11"><a xlink:href="class_ogre_1_1_item.html" target="_top" xlink:title="Defines an instance of a discrete, movable object based on a Mesh.">
<polygon fill="none" stroke="black" points="392,-772.5 392,-791.5 454,-791.5 454,-772.5 392,-772.5"/>
<text text-anchor="middle" x="423" y="-779.5" font-family="Helvetica,sans-Serif" font-size="10.00">Ogre::Item</text>
</a>
</g>
</g>
<!-- Node6&#45;&gt;Node11 -->
<g id="edge10" class="edge">
<title>Node6&#45;&gt;Node11</title>
<path fill="none" stroke="midnightblue" d="M269.3,-480.8C279.75,-483.95 289.59,-489.03 297,-497 378.2,-584.4 251.9,-675.51 333,-763 347.71,-778.87 372.17,-783.2 391.72,-783.79"/>
<polygon fill="midnightblue" stroke="midnightblue" points="270.13,-477.4 259.58,-478.41 268.46,-484.2 270.13,-477.4"/>
</g>
<!-- Node12 -->
<g id="node12" class="node">
<title>Node12</title>
<g id="a_node12"><a xlink:href="class_ogre_1_1_light.html" target="_top" xlink:title="Representation of a dynamic light source in the scene.">
<polygon fill="none" stroke="black" points="391,-734.5 391,-753.5 455,-753.5 455,-734.5 391,-734.5"/>
<text text-anchor="middle" x="423" y="-741.5" font-family="Helvetica,sans-Serif" font-size="10.00">Ogre::Light</text>
</a>
</g>
</g>
<!-- Node6&#45;&gt;Node12 -->
<g id="edge11" class="edge">
<title>Node6&#45;&gt;Node12</title>
<path fill="none" stroke="midnightblue" d="M269.83,-481.14C280.05,-484.29 289.67,-489.28 297,-497 367.65,-571.38 262.43,-650.54 333,-725 347.67,-740.48 371.62,-744.92 390.98,-745.65"/>
<polygon fill="midnightblue" stroke="midnightblue" points="270.45,-477.68 259.9,-478.64 268.75,-484.47 270.45,-477.68"/>
</g>
<!-- Node13 -->
<g id="node13" class="node">
<title>Node13</title>
<g id="a_node13"><a xlink:href="class_ogre_1_1_manual_object.html" target="_top" xlink:title=" ">
<polygon fill="none" stroke="black" points="372,-696.5 372,-715.5 474,-715.5 474,-696.5 372,-696.5"/>
<text text-anchor="middle" x="423" y="-703.5" font-family="Helvetica,sans-Serif" font-size="10.00">Ogre::ManualObject</text>
</a>
</g>
</g>
<!-- Node6&#45;&gt;Node13 -->
<g id="edge12" class="edge">
<title>Node6&#45;&gt;Node13</title>
<path fill="none" stroke="midnightblue" d="M269.63,-481.32C279.87,-484.46 289.55,-489.39 297,-497 357.14,-558.4 272.93,-625.53 333,-687 343.16,-697.4 357.51,-702.77 371.73,-705.4"/>
<polygon fill="midnightblue" stroke="midnightblue" points="270.25,-477.87 259.7,-478.84 268.55,-484.66 270.25,-477.87"/>
</g>
<!-- Node14 -->
<g id="node14" class="node">
<title>Node14</title>
<g id="a_node14"><a xlink:href="class_ogre_1_1_movable_plane.html" target="_top" xlink:title="Definition of a Plane that may be attached to a node, and the derived details of it retrieved simply.">
<polygon fill="none" stroke="black" points="371,-658.5 371,-677.5 475,-677.5 475,-658.5 371,-658.5"/>
<text text-anchor="middle" x="423" y="-665.5" font-family="Helvetica,sans-Serif" font-size="10.00">Ogre::MovablePlane</text>
</a>
</g>
</g>
<!-- Node6&#45;&gt;Node14 -->
<g id="edge13" class="edge">
<title>Node6&#45;&gt;Node14</title>
<path fill="none" stroke="midnightblue" d="M269.7,-481.71C279.84,-484.82 289.46,-489.65 297,-497 346.69,-545.49 283.37,-600.46 333,-649 343.05,-658.83 356.87,-664.12 370.63,-666.84"/>
<polygon fill="midnightblue" stroke="midnightblue" points="270.43,-478.28 259.88,-479.22 268.72,-485.07 270.43,-478.28"/>
</g>
<!-- Node15 -->
<g id="node15" class="node">
<title>Node15</title>
<g id="a_node15"><a xlink:href="class_ogre_1_1_null_entity.html" target="_top" xlink:title=" ">
<polygon fill="none" stroke="black" points="381.5,-620.5 381.5,-639.5 464.5,-639.5 464.5,-620.5 381.5,-620.5"/>
<text text-anchor="middle" x="423" y="-627.5" font-family="Helvetica,sans-Serif" font-size="10.00">Ogre::NullEntity</text>
</a>
</g>
</g>
<!-- Node6&#45;&gt;Node15 -->
<g id="edge14" class="edge">
<title>Node6&#45;&gt;Node15</title>
<path fill="none" stroke="midnightblue" d="M269.62,-482.28C279.67,-485.35 289.29,-490.01 297,-497 336.36,-532.69 293.68,-575.27 333,-611 345.98,-622.79 364.44,-627.93 381.18,-629.97"/>
<polygon fill="midnightblue" stroke="midnightblue" points="270.45,-478.88 259.89,-479.8 268.72,-485.66 270.45,-478.88"/>
</g>
<!-- Node16 -->
<g id="node16" class="node">
<title>Node16</title>
<g id="a_node16"><a xlink:href="class_ogre_1_1_particle_system.html" target="_top" xlink:title="Class defining particle system based special effects.">
<polygon fill="none" stroke="black" points="369,-582.5 369,-601.5 477,-601.5 477,-582.5 369,-582.5"/>
<text text-anchor="middle" x="423" y="-589.5" font-family="Helvetica,sans-Serif" font-size="10.00">Ogre::ParticleSystem</text>
</a>
</g>
</g>
<!-- Node6&#45;&gt;Node16 -->
<g id="edge15" class="edge">
<title>Node6&#45;&gt;Node16</title>
<path fill="none" stroke="midnightblue" d="M269.52,-483.38C279.42,-486.35 289.01,-490.69 297,-497 326.34,-520.16 303.69,-549.81 333,-573 343.16,-581.04 355.94,-585.88 368.63,-588.74"/>
<polygon fill="midnightblue" stroke="midnightblue" points="270.12,-479.92 259.56,-480.85 268.39,-486.71 270.12,-479.92"/>
</g>
<!-- Node17 -->
<g id="node17" class="node">
<title>Node17</title>
<g id="a_node17"><a xlink:href="class_ogre_1_1_rectangle2_d.html" target="_top" xlink:title=" ">
<polygon fill="none" stroke="black" points="374,-544.5 374,-563.5 472,-563.5 472,-544.5 374,-544.5"/>
<text text-anchor="middle" x="423" y="-551.5" font-family="Helvetica,sans-Serif" font-size="10.00">Ogre::Rectangle2D</text>
</a>
</g>
</g>
<!-- Node6&#45;&gt;Node17 -->
<g id="edge16" class="edge">
<title>Node6&#45;&gt;Node17</title>
<path fill="none" stroke="midnightblue" d="M269.73,-486.11C279.22,-488.78 288.62,-492.31 297,-497 317.3,-508.36 312.71,-523.61 333,-535 345.4,-541.96 360.08,-546.37 373.91,-549.17"/>
<polygon fill="midnightblue" stroke="midnightblue" points="270.4,-482.67 259.85,-483.64 268.7,-489.46 270.4,-482.67"/>
</g>
<!-- Node18 -->
<g id="node18" class="node">
<title>Node18</title>
<g id="a_node18"><a xlink:href="class_ogre_1_1v1_1_1_billboard_chain.html" target="_top" xlink:title="Allows the rendering of a chain of connected billboards.">
<polygon fill="none" stroke="black" points="363.5,-506.5 363.5,-525.5 482.5,-525.5 482.5,-506.5 363.5,-506.5"/>
<text text-anchor="middle" x="423" y="-513.5" font-family="Helvetica,sans-Serif" font-size="10.00">Ogre::v1::BillboardChain</text>
</a>
</g>
</g>
<!-- Node6&#45;&gt;Node18 -->
<g id="edge17" class="edge">
<title>Node6&#45;&gt;Node18</title>
<path fill="none" stroke="midnightblue" d="M269.5,-489.05C300.72,-494.56 338.13,-501.18 368.08,-506.47"/>
<polygon fill="midnightblue" stroke="midnightblue" points="270.05,-485.59 259.59,-487.3 268.83,-492.48 270.05,-485.59"/>
</g>
<!-- Node20 -->
<g id="node20" class="node">
<title>Node20</title>
<g id="a_node20"><a xlink:href="class_ogre_1_1v1_1_1_billboard_set.html" target="_top" xlink:title="A collection of billboards (faces which are always facing the given direction) with the same (default...">
<polygon fill="none" stroke="black" points="368,-468.5 368,-487.5 478,-487.5 478,-468.5 368,-468.5"/>
<text text-anchor="middle" x="423" y="-475.5" font-family="Helvetica,sans-Serif" font-size="10.00">Ogre::v1::BillboardSet</text>
</a>
</g>
</g>
<!-- Node6&#45;&gt;Node20 -->
<g id="edge19" class="edge">
<title>Node6&#45;&gt;Node20</title>
<path fill="none" stroke="midnightblue" d="M269.86,-478C300.88,-478 337.93,-478 367.7,-478"/>
<polygon fill="midnightblue" stroke="midnightblue" points="269.59,-474.5 259.59,-478 269.59,-481.5 269.59,-474.5"/>
</g>
<!-- Node21 -->
<g id="node21" class="node">
<title>Node21</title>
<g id="a_node21"><a xlink:href="class_ogre_1_1v1_1_1_entity.html" target="_top" xlink:title="Defines an instance of a discrete, movable object based on a Mesh.">
<polygon fill="none" stroke="black" points="382.5,-430.5 382.5,-449.5 463.5,-449.5 463.5,-430.5 382.5,-430.5"/>
<text text-anchor="middle" x="423" y="-437.5" font-family="Helvetica,sans-Serif" font-size="10.00">Ogre::v1::Entity</text>
</a>
</g>
</g>
<!-- Node6&#45;&gt;Node21 -->
<g id="edge20" class="edge">
<title>Node6&#45;&gt;Node21</title>
<path fill="none" stroke="midnightblue" d="M269.63,-466.93C306.05,-460.49 350.85,-452.57 382.42,-447"/>
<polygon fill="midnightblue" stroke="midnightblue" points="268.83,-463.52 259.59,-468.7 270.05,-470.41 268.83,-463.52"/>
</g>
<!-- Node22 -->
<g id="node22" class="node">
<title>Node22</title>
<g id="a_node22"><a xlink:href="class_ogre_1_1v1_1_1_manual_object.html" target="_top" xlink:title="Class providing a much simplified interface to generating manual objects with custom geometry.">
<polygon fill="none" stroke="black" points="364.5,-392.5 364.5,-411.5 481.5,-411.5 481.5,-392.5 364.5,-392.5"/>
<text text-anchor="middle" x="423" y="-399.5" font-family="Helvetica,sans-Serif" font-size="10.00">Ogre::v1::ManualObject</text>
</a>
</g>
</g>
<!-- Node6&#45;&gt;Node22 -->
<g id="edge21" class="edge">
<title>Node6&#45;&gt;Node22</title>
<path fill="none" stroke="midnightblue" d="M233.77,-463.85C258.83,-451.11 297.61,-432.63 333,-421 344.26,-417.3 356.56,-414.14 368.32,-411.51"/>
<polygon fill="midnightblue" stroke="midnightblue" points="232.16,-460.74 224.87,-468.43 235.37,-466.97 232.16,-460.74"/>
</g>
<!-- Node23 -->
<g id="node23" class="node">
<title>Node23</title>
<g id="a_node23"><a xlink:href="class_ogre_1_1v1_1_1_overlay.html" target="_top" xlink:title="Represents a layer which is rendered on top of the &#39;normal&#39; scene contents.">
<polygon fill="none" stroke="black" points="378,-354.5 378,-373.5 468,-373.5 468,-354.5 378,-354.5"/>
<text text-anchor="middle" x="423" y="-361.5" font-family="Helvetica,sans-Serif" font-size="10.00">Ogre::v1::Overlay</text>
</a>
</g>
</g>
<!-- Node6&#45;&gt;Node23 -->
<g id="edge22" class="edge">
<title>Node6&#45;&gt;Node23</title>
<path fill="none" stroke="midnightblue" d="M223.93,-461.3C246.73,-439.81 289.49,-402.86 333,-383 346.94,-376.64 363.1,-372.37 377.78,-369.52"/>
<polygon fill="midnightblue" stroke="midnightblue" points="221.26,-459.02 216.47,-468.46 226.11,-464.07 221.26,-459.02"/>
</g>
<!-- Node24 -->
<g id="node24" class="node">
<title>Node24</title>
<g id="a_node24"><a xlink:href="class_ogre_1_1v1_1_1_rectangle2_d.html" target="_top" xlink:title="Allows the rendering of a simple 2D rectangle This class renders a simple 2D rectangle; this rectangl...">
<polygon fill="none" stroke="black" points="366.5,-316.5 366.5,-335.5 479.5,-335.5 479.5,-316.5 366.5,-316.5"/>
<text text-anchor="middle" x="423" y="-323.5" font-family="Helvetica,sans-Serif" font-size="10.00">Ogre::v1::Rectangle2D</text>
</a>
</g>
</g>
<!-- Node6&#45;&gt;Node24 -->
<g id="edge23" class="edge">
<title>Node6&#45;&gt;Node24</title>
<path fill="none" stroke="midnightblue" d="M218.58,-460.04C238.33,-430.97 281.44,-373.93 333,-345 343.2,-339.28 354.93,-335.28 366.47,-332.48"/>
<polygon fill="midnightblue" stroke="midnightblue" points="215.62,-458.16 213,-468.43 221.45,-462.04 215.62,-458.16"/>
</g>
<!-- Node25 -->
<g id="node25" class="node">
<title>Node25</title>
<g id="a_node25"><a xlink:href="class_ogre_1_1v1_1_1_simple_renderable.html" target="_top" xlink:title="Simple implementation of MovableObject and Renderable for single&#45;part custom objects.">
<polygon fill="none" stroke="black" points="355,-278.5 355,-297.5 491,-297.5 491,-278.5 355,-278.5"/>
<text text-anchor="middle" x="423" y="-285.5" font-family="Helvetica,sans-Serif" font-size="10.00">Ogre::v1::SimpleRenderable</text>
</a>
</g>
</g>
<!-- Node6&#45;&gt;Node25 -->
<g id="edge24" class="edge">
<title>Node6&#45;&gt;Node25</title>
<path fill="none" stroke="midnightblue" d="M215.28,-459.01C231.97,-423.15 273.21,-345.58 333,-307 339.64,-302.72 347.08,-299.38 354.75,-296.79"/>
<polygon fill="midnightblue" stroke="midnightblue" points="212,-457.78 211.07,-468.34 218.38,-460.67 212,-457.78"/>
</g>
<!-- Node27 -->
<g id="node27" class="node">
<title>Node27</title>
<g id="a_node27"><a xlink:href="class_ogre_1_1v1_1_1_static_geometry_1_1_region.html" target="_top" xlink:title="The details of a topological region which is the highest level of partitioning for this class.">
<polygon fill="none" stroke="black" points="360.5,-229 360.5,-259 485.5,-259 485.5,-229 360.5,-229"/>
<text text-anchor="start" x="368.5" y="-247" font-family="Helvetica,sans-Serif" font-size="10.00">Ogre::v1::StaticGeometry</text>
<text text-anchor="middle" x="423" y="-236" font-family="Helvetica,sans-Serif" font-size="10.00">::Region</text>
</a>
</g>
</g>
<!-- Node6&#45;&gt;Node27 -->
<g id="edge26" class="edge">
<title>Node6&#45;&gt;Node27</title>
<path fill="none" stroke="midnightblue" d="M213.14,-458.68C227.28,-417.34 266.18,-319.91 333,-269 341.04,-262.87 350.52,-258.25 360.23,-254.75"/>
<polygon fill="midnightblue" stroke="midnightblue" points="209.76,-457.76 209.94,-468.35 216.4,-459.96 209.76,-457.76"/>
</g>
<!-- Node28 -->
<g id="node28" class="node">
<title>Node28</title>
<g id="a_node28"><a xlink:href="class_ogre_1_1_voxel_visualizer.html" target="_top" xlink:title=" ">
<polygon fill="none" stroke="black" points="369,-190.5 369,-209.5 477,-209.5 477,-190.5 369,-190.5"/>
<text text-anchor="middle" x="423" y="-197.5" font-family="Helvetica,sans-Serif" font-size="10.00">Ogre::VoxelVisualizer</text>
</a>
</g>
</g>
<!-- Node6&#45;&gt;Node28 -->
<g id="edge27" class="edge">
<title>Node6&#45;&gt;Node28</title>
<path fill="none" stroke="midnightblue" d="M216.86,-459.4C233.78,-427.32 269.19,-359.42 297,-301 313.93,-265.43 302.54,-244.98 333,-220 343.16,-211.67 356.09,-206.63 368.93,-203.64"/>
<polygon fill="midnightblue" stroke="midnightblue" points="213.63,-458.02 212.05,-468.49 219.82,-461.29 213.63,-458.02"/>
</g>
<!-- Node29 -->
<g id="node29" class="node">
<title>Node29</title>
<g id="a_node29"><a xlink:href="class_ogre_1_1_wire_aabb.html" target="_top" xlink:title="Helper class to display the Aabb of a MovableObject as lines.">
<polygon fill="none" stroke="black" points="381,-152.5 381,-171.5 465,-171.5 465,-152.5 381,-152.5"/>
<text text-anchor="middle" x="423" y="-159.5" font-family="Helvetica,sans-Serif" font-size="10.00">Ogre::WireAabb</text>
</a>
</g>
</g>
<!-- Node6&#45;&gt;Node29 -->
<g id="edge28" class="edge">
<title>Node6&#45;&gt;Node29</title>
<path fill="none" stroke="midnightblue" d="M217.93,-459.29C236.14,-427.55 273.06,-360.78 297,-301 317.7,-249.31 292.06,-218.74 333,-181 345.78,-169.22 364.01,-164.05 380.64,-162"/>
<polygon fill="midnightblue" stroke="midnightblue" points="214.69,-457.9 212.71,-468.31 220.75,-461.4 214.69,-457.9"/>
</g>
<!-- Node9 -->
<g id="node9" class="node">
<title>Node9</title>
<g id="a_node9"><a xlink:href="class_ogre_1_1_camera.html" target="_top" xlink:title="A viewpoint from which the scene will be rendered.">
<polygon fill="none" stroke="black" points="578,-848.5 578,-867.5 654,-867.5 654,-848.5 578,-848.5"/>
<text text-anchor="middle" x="616" y="-855.5" font-family="Helvetica,sans-Serif" font-size="10.00">Ogre::Camera</text>
</a>
</g>
</g>
<!-- Node8&#45;&gt;Node9 -->
<g id="edge8" class="edge">
<title>Node8&#45;&gt;Node9</title>
<path fill="none" stroke="midnightblue" d="M472.45,-858C505.2,-858 547.78,-858 577.85,-858"/>
<polygon fill="midnightblue" stroke="midnightblue" points="472.19,-854.5 462.19,-858 472.19,-861.5 472.19,-854.5"/>
</g>
<!-- Node19 -->
<g id="node19" class="node">
<title>Node19</title>
<g id="a_node19"><a xlink:href="class_ogre_1_1v1_1_1_ribbon_trail.html" target="_top" xlink:title="Subclass of BillboardChain which automatically leaves a trail behind one or more Node instances.">
<polygon fill="none" stroke="black" points="563,-506.5 563,-525.5 669,-525.5 669,-506.5 563,-506.5"/>
<text text-anchor="middle" x="616" y="-513.5" font-family="Helvetica,sans-Serif" font-size="10.00">Ogre::v1::RibbonTrail</text>
</a>
</g>
</g>
<!-- Node18&#45;&gt;Node19 -->
<g id="edge18" class="edge">
<title>Node18&#45;&gt;Node19</title>
<path fill="none" stroke="midnightblue" d="M492.72,-516C515.88,-516 541.33,-516 562.98,-516"/>
<polygon fill="midnightblue" stroke="midnightblue" points="492.6,-512.5 482.6,-516 492.6,-519.5 492.6,-512.5"/>
</g>
<!-- Node26 -->
<g id="node26" class="node">
<title>Node26</title>
<g id="a_node26"><a xlink:href="class_ogre_1_1v1_1_1_wire_bounding_box.html" target="_top" xlink:title="Allows the rendering of a wireframe bounding box.">
<polygon fill="none" stroke="black" points="549,-278.5 549,-297.5 683,-297.5 683,-278.5 549,-278.5"/>
<text text-anchor="middle" x="616" y="-285.5" font-family="Helvetica,sans-Serif" font-size="10.00">Ogre::v1::WireBoundingBox</text>
</a>
</g>
</g>
<!-- Node25&#45;&gt;Node26 -->
<g id="edge25" class="edge">
<title>Node25&#45;&gt;Node26</title>
<path fill="none" stroke="midnightblue" d="M501.29,-288C517.02,-288 533.43,-288 548.73,-288"/>
<polygon fill="midnightblue" stroke="midnightblue" points="501.07,-284.5 491.07,-288 501.07,-291.5 501.07,-284.5"/>
</g>
<!-- Node31 -->
<g id="node31" class="node">
<title>Node31</title>
<g id="a_node31"><a xlink:href="class_ogre_1_1_scene_node.html" target="_top" xlink:title="Class representing a node in the scene graph.">
<polygon fill="none" stroke="black" points="376.5,-114.5 376.5,-133.5 469.5,-133.5 469.5,-114.5 376.5,-114.5"/>
<text text-anchor="middle" x="423" y="-121.5" font-family="Helvetica,sans-Serif" font-size="10.00">Ogre::SceneNode</text>
</a>
</g>
</g>
<!-- Node30&#45;&gt;Node31 -->
<g id="edge30" class="edge">
<title>Node30&#45;&gt;Node31</title>
<path fill="none" stroke="midnightblue" d="M248.75,-282.12C265.59,-280.09 284.06,-274.91 297,-263 337.98,-225.3 292.06,-180.74 333,-143 344.62,-132.29 360.74,-127.05 376.07,-124.64"/>
<polygon fill="midnightblue" stroke="midnightblue" points="248.2,-278.66 238.54,-283.01 248.81,-285.63 248.2,-278.66"/>
</g>
<!-- Node32 -->
<g id="node32" class="node">
<title>Node32</title>
<g id="a_node32"><a xlink:href="class_ogre_1_1_tag_point.html" target="_top" xlink:title="TagPoints are like SceneNodes, that can be children of a Bone.">
<polygon fill="none" stroke="black" points="575.5,-114.5 575.5,-133.5 656.5,-133.5 656.5,-114.5 575.5,-114.5"/>
<text text-anchor="middle" x="616" y="-121.5" font-family="Helvetica,sans-Serif" font-size="10.00">Ogre::TagPoint</text>
</a>
</g>
</g>
<!-- Node31&#45;&gt;Node32 -->
<g id="edge31" class="edge">
<title>Node31&#45;&gt;Node32</title>
<path fill="none" stroke="midnightblue" d="M479.87,-124C510.53,-124 547.81,-124 575.44,-124"/>
<polygon fill="midnightblue" stroke="midnightblue" points="479.75,-120.5 469.75,-124 479.75,-127.5 479.75,-120.5"/>
</g>
<!-- Node34 -->
<g id="node34" class="node">
<title>Node34</title>
<g id="a_node34"><a xlink:href="class_ogre_1_1_parallax_corrected_cubemap.html" target="_top" xlink:title=" ">
<polygon fill="none" stroke="black" points="343,-76.5 343,-95.5 503,-95.5 503,-76.5 343,-76.5"/>
<text text-anchor="middle" x="423" y="-83.5" font-family="Helvetica,sans-Serif" font-size="10.00">Ogre::ParallaxCorrectedCubemap</text>
</a>
</g>
</g>
<!-- Node33&#45;&gt;Node34 -->
<g id="edge33" class="edge">
<title>Node33&#45;&gt;Node34</title>
<path fill="none" stroke="midnightblue" d="M292.15,-228.98C293.84,-227.74 295.46,-226.42 297,-225 337.98,-187.3 292.06,-142.74 333,-105 337.07,-101.25 341.68,-98.17 346.63,-95.65"/>
<polygon fill="midnightblue" stroke="midnightblue" points="289.93,-226.23 283.22,-234.43 293.58,-232.21 289.93,-226.23"/>
</g>
<!-- Node35 -->
<g id="node35" class="node">
<title>Node35</title>
<g id="a_node35"><a xlink:href="class_ogre_1_1_parallax_corrected_cubemap_auto.html" target="_top" xlink:title=" ">
<polygon fill="none" stroke="black" points="333,-38.5 333,-57.5 513,-57.5 513,-38.5 333,-38.5"/>
<text text-anchor="middle" x="423" y="-45.5" font-family="Helvetica,sans-Serif" font-size="10.00">Ogre::ParallaxCorrectedCubemapAuto</text>
</a>
</g>
</g>
<!-- Node33&#45;&gt;Node35 -->
<g id="edge34" class="edge">
<title>Node33&#45;&gt;Node35</title>
<path fill="none" stroke="midnightblue" d="M292.95,-228.59C294.36,-227.47 295.71,-226.27 297,-225 348.33,-174.48 281.73,-117.58 333,-67 336.82,-63.23 341.2,-60.12 345.92,-57.57"/>
<polygon fill="midnightblue" stroke="midnightblue" points="290.76,-225.84 284.35,-234.28 294.62,-231.68 290.76,-225.84"/>
</g>
<!-- Node37 -->
<g id="node37" class="node">
<title>Node37</title>
<g id="a_node37"><a xlink:href="class_ogre_1_1_default_scene_manager.html" target="_top" xlink:title="Default scene manager.">
<polygon fill="none" stroke="black" points="354,-0.5 354,-19.5 492,-19.5 492,-0.5 354,-0.5"/>
<text text-anchor="middle" x="423" y="-7.5" font-family="Helvetica,sans-Serif" font-size="10.00">Ogre::DefaultSceneManager</text>
</a>
</g>
</g>
<!-- Node36&#45;&gt;Node37 -->
<g id="edge36" class="edge">
<title>Node36&#45;&gt;Node37</title>
<path fill="none" stroke="midnightblue" d="M269.76,-202.34C279.89,-199.23 289.5,-194.39 297,-187 348.33,-136.48 281.73,-79.58 333,-29 338.85,-23.23 345.99,-19.02 353.67,-15.98"/>
<polygon fill="midnightblue" stroke="midnightblue" points="268.77,-198.98 259.94,-204.83 270.49,-205.77 268.77,-198.98"/>
</g>
</g>
</svg>
