<?xml version="1.0" encoding="UTF-8" standalone="no"?>
<!DOCTYPE svg PUBLIC "-//W3C//DTD SVG 1.1//EN"
 "http://www.w3.org/Graphics/SVG/1.1/DTD/svg11.dtd">
<!-- Generated by graphviz version 2.42.3 ()
 -->
<!-- Title: Ogre::HighLevelGpuProgramFactory Pages: 1 -->
<svg width="459pt" height="268pt"
 viewBox="0.00 0.00 459.00 267.50" xmlns="http://www.w3.org/2000/svg" xmlns:xlink="http://www.w3.org/1999/xlink">
<g id="graph0" class="graph" transform="scale(1 1) rotate(0) translate(4 263.5)">
<title>Ogre::HighLevelGpuProgramFactory</title>
<!-- Node1 -->
<g id="node1" class="node">
<title>Node1</title>
<g id="a_node1"><a xlink:title="Interface definition for factories of HighLevelGpuProgram.">
<polygon fill="#bfbfbf" stroke="black" points="107,-120.5 107,-150.5 248,-150.5 248,-120.5 107,-120.5"/>
<text text-anchor="start" x="115" y="-138.5" font-family="Helvetica,sans-Serif" font-size="10.00">Ogre::HighLevelGpuProgram</text>
<text text-anchor="middle" x="177.5" y="-127.5" font-family="Helvetica,sans-Serif" font-size="10.00">Factory</text>
</a>
</g>
</g>
<!-- Node3 -->
<g id="node3" class="node">
<title>Node3</title>
<g id="a_node3"><a xlink:href="class_ogre_1_1_d3_d11_h_l_s_l_program_factory.html" target="_top" xlink:title="Factory class for D3D11 HLSL programs.">
<polygon fill="none" stroke="black" points="284,-240 284,-259 451,-259 451,-240 284,-240"/>
<text text-anchor="middle" x="367.5" y="-247" font-family="Helvetica,sans-Serif" font-size="10.00">Ogre::D3D11HLSLProgramFactory</text>
</a>
</g>
</g>
<!-- Node1&#45;&gt;Node3 -->
<g id="edge2" class="edge">
<title>Node1&#45;&gt;Node3</title>
<path fill="none" stroke="midnightblue" d="M197.59,-158.41C217.07,-180.26 249.29,-212.44 284,-230.5 291.43,-234.37 299.64,-237.45 307.92,-239.92"/>
<polygon fill="midnightblue" stroke="midnightblue" points="199.98,-155.82 190.77,-150.59 194.71,-160.42 199.98,-155.82"/>
</g>
<!-- Node4 -->
<g id="node4" class="node">
<title>Node4</title>
<g id="a_node4"><a xlink:href="class_ogre_1_1_d3_d9_h_l_s_l_program_factory.html" target="_top" xlink:title="Factory class for D3D9 HLSL programs.">
<polygon fill="none" stroke="black" points="287,-202 287,-221 448,-221 448,-202 287,-202"/>
<text text-anchor="middle" x="367.5" y="-209" font-family="Helvetica,sans-Serif" font-size="10.00">Ogre::D3D9HLSLProgramFactory</text>
</a>
</g>
</g>
<!-- Node1&#45;&gt;Node4 -->
<g id="edge3" class="edge">
<title>Node1&#45;&gt;Node4</title>
<path fill="none" stroke="midnightblue" d="M210.49,-155.72C230.88,-167.85 258.21,-182.77 284,-192.5 293.9,-196.24 304.76,-199.37 315.25,-201.95"/>
<polygon fill="midnightblue" stroke="midnightblue" points="212.3,-152.72 201.93,-150.55 208.68,-158.72 212.3,-152.72"/>
</g>
<!-- Node5 -->
<g id="node5" class="node">
<title>Node5</title>
<g id="a_node5"><a xlink:href="class_ogre_1_1_g_l_s_l_e_s_cg_program_factory.html" target="_top" xlink:title="Factory class for GLSL ES programs.">
<polygon fill="none" stroke="black" points="286.5,-164 286.5,-183 448.5,-183 448.5,-164 286.5,-164"/>
<text text-anchor="middle" x="367.5" y="-171" font-family="Helvetica,sans-Serif" font-size="10.00">Ogre::GLSLESCgProgramFactory</text>
</a>
</g>
</g>
<!-- Node1&#45;&gt;Node5 -->
<g id="edge4" class="edge">
<title>Node1&#45;&gt;Node5</title>
<path fill="none" stroke="midnightblue" d="M258.07,-151.58C278.97,-155.81 300.83,-160.23 319.41,-163.98"/>
<polygon fill="midnightblue" stroke="midnightblue" points="258.73,-148.15 248.24,-149.6 257.35,-155.01 258.73,-148.15"/>
</g>
<!-- Node6 -->
<g id="node6" class="node">
<title>Node6</title>
<g id="a_node6"><a xlink:href="class_ogre_1_1_g_l_s_l_e_s_shader_factory.html" target="_top" xlink:title="Factory class for GLSL ES programs.">
<polygon fill="none" stroke="black" points="295.5,-126 295.5,-145 439.5,-145 439.5,-126 295.5,-126"/>
<text text-anchor="middle" x="367.5" y="-133" font-family="Helvetica,sans-Serif" font-size="10.00">Ogre::GLSLESShaderFactory</text>
</a>
</g>
</g>
<!-- Node1&#45;&gt;Node6 -->
<g id="edge5" class="edge">
<title>Node1&#45;&gt;Node6</title>
<path fill="none" stroke="midnightblue" d="M258.43,-135.5C270.68,-135.5 283.26,-135.5 295.31,-135.5"/>
<polygon fill="midnightblue" stroke="midnightblue" points="258.24,-132 248.24,-135.5 258.24,-139 258.24,-132"/>
</g>
<!-- Node7 -->
<g id="node7" class="node">
<title>Node7</title>
<g id="a_node7"><a xlink:href="class_ogre_1_1_g_l_s_l_shader_factory.html" target="_top" xlink:title="Factory class for GLSL shaders.">
<polygon fill="none" stroke="black" points="302,-88 302,-107 433,-107 433,-88 302,-88"/>
<text text-anchor="middle" x="367.5" y="-95" font-family="Helvetica,sans-Serif" font-size="10.00">Ogre::GLSLShaderFactory</text>
</a>
</g>
</g>
<!-- Node1&#45;&gt;Node7 -->
<g id="edge6" class="edge">
<title>Node1&#45;&gt;Node7</title>
<path fill="none" stroke="midnightblue" d="M258.07,-119.42C278.97,-115.19 300.83,-110.77 319.41,-107.02"/>
<polygon fill="midnightblue" stroke="midnightblue" points="257.35,-115.99 248.24,-121.4 258.73,-122.85 257.35,-115.99"/>
</g>
<!-- Node8 -->
<g id="node8" class="node">
<title>Node8</title>
<g id="a_node8"><a xlink:href="class_ogre_1_1_metal_program_factory.html" target="_top" xlink:title="Factory class for Metal programs.">
<polygon fill="none" stroke="black" points="300,-50 300,-69 435,-69 435,-50 300,-50"/>
<text text-anchor="middle" x="367.5" y="-57" font-family="Helvetica,sans-Serif" font-size="10.00">Ogre::MetalProgramFactory</text>
</a>
</g>
</g>
<!-- Node1&#45;&gt;Node8 -->
<g id="edge7" class="edge">
<title>Node1&#45;&gt;Node8</title>
<path fill="none" stroke="midnightblue" d="M210.49,-115.28C230.88,-103.15 258.21,-88.23 284,-78.5 293.9,-74.76 304.76,-71.63 315.25,-69.05"/>
<polygon fill="midnightblue" stroke="midnightblue" points="208.68,-112.28 201.93,-120.45 212.3,-118.28 208.68,-112.28"/>
</g>
<!-- Node9 -->
<g id="node9" class="node">
<title>Node9</title>
<g id="a_node9"><a xlink:href="class_ogre_1_1_unified_high_level_gpu_program_factory.html" target="_top" xlink:title="Factory class for Unified programs.">
<polygon fill="none" stroke="black" points="300.5,-0.5 300.5,-30.5 434.5,-30.5 434.5,-0.5 300.5,-0.5"/>
<text text-anchor="start" x="308.5" y="-18.5" font-family="Helvetica,sans-Serif" font-size="10.00">Ogre::UnifiedHighLevelGpu</text>
<text text-anchor="middle" x="367.5" y="-7.5" font-family="Helvetica,sans-Serif" font-size="10.00">ProgramFactory</text>
</a>
</g>
</g>
<!-- Node1&#45;&gt;Node9 -->
<g id="edge8" class="edge">
<title>Node1&#45;&gt;Node9</title>
<path fill="none" stroke="midnightblue" d="M198.19,-112.74C217.91,-91.27 250.12,-59.62 284,-40.5 290.78,-36.68 298.21,-33.37 305.74,-30.54"/>
<polygon fill="midnightblue" stroke="midnightblue" points="195.37,-110.65 191.27,-120.42 200.57,-115.34 195.37,-110.65"/>
</g>
<!-- Node2 -->
<g id="node2" class="node">
<title>Node2</title>
<g id="a_node2"><a xlink:href="class_ogre_1_1_allocated_object.html" target="_top" xlink:title="Superclass for all objects that wish to use custom memory allocators when their new / delete operator...">
<polygon fill="none" stroke="black" points="0,-126 0,-145 71,-145 71,-126 0,-126"/>
<text text-anchor="middle" x="35.5" y="-133" font-family="Helvetica,sans-Serif" font-size="10.00">FactoryAlloc</text>
</a>
</g>
</g>
<!-- Node2&#45;&gt;Node1 -->
<g id="edge1" class="edge">
<title>Node2&#45;&gt;Node1</title>
<path fill="none" stroke="midnightblue" d="M81.14,-135.5C89.31,-135.5 98.02,-135.5 106.73,-135.5"/>
<polygon fill="midnightblue" stroke="midnightblue" points="81.11,-132 71.11,-135.5 81.11,-139 81.11,-132"/>
</g>
</g>
</svg>
