<?xml version="1.0" encoding="UTF-8" standalone="no"?>
<!DOCTYPE svg PUBLIC "-//W3C//DTD SVG 1.1//EN"
 "http://www.w3.org/Graphics/SVG/1.1/DTD/svg11.dtd">
<!-- Generated by graphviz version 2.42.3 ()
 -->
<!-- Title: Ogre::ResourceManager Pages: 1 -->
<svg width="649pt" height="408pt"
 viewBox="0.00 0.00 649.00 408.00" xmlns="http://www.w3.org/2000/svg" xmlns:xlink="http://www.w3.org/1999/xlink">
<g id="graph0" class="graph" transform="scale(1 1) rotate(0) translate(4 404)">
<title>Ogre::ResourceManager</title>
<!-- Node1 -->
<g id="node1" class="node">
<title>Node1</title>
<g id="a_node1"><a xlink:title="Defines a generic resource handler.">
<polygon fill="#bfbfbf" stroke="black" points="134,-171.5 134,-190.5 255,-190.5 255,-171.5 134,-171.5"/>
<text text-anchor="middle" x="194.5" y="-178.5" font-family="Helvetica,sans-Serif" font-size="10.00">Ogre::ResourceManager</text>
</a>
</g>
</g>
<!-- Node4 -->
<g id="node4" class="node">
<title>Node4</title>
<g id="a_node4"><a xlink:href="class_ogre_1_1_font_manager.html" target="_top" xlink:title="Manages Font resources, parsing .fontdef files and generally organising them.">
<polygon fill="none" stroke="black" points="315.5,-316.5 315.5,-335.5 414.5,-335.5 414.5,-316.5 315.5,-316.5"/>
<text text-anchor="middle" x="365" y="-323.5" font-family="Helvetica,sans-Serif" font-size="10.00">Ogre::FontManager</text>
</a>
</g>
</g>
<!-- Node1&#45;&gt;Node4 -->
<g id="edge3" class="edge">
<title>Node1&#45;&gt;Node4</title>
<path fill="none" stroke="midnightblue" d="M204.48,-199.69C218.81,-227.46 249.52,-279.32 291,-307 298.3,-311.87 306.78,-315.49 315.32,-318.19"/>
<polygon fill="midnightblue" stroke="midnightblue" points="207.56,-198.01 199.95,-190.64 201.3,-201.15 207.56,-198.01"/>
</g>
<!-- Node5 -->
<g id="node5" class="node">
<title>Node5</title>
<g id="a_node5"><a xlink:href="class_ogre_1_1_gpu_program_manager.html" target="_top" xlink:title=" ">
<polygon fill="none" stroke="black" points="298,-278.5 298,-297.5 432,-297.5 432,-278.5 298,-278.5"/>
<text text-anchor="middle" x="365" y="-285.5" font-family="Helvetica,sans-Serif" font-size="10.00">Ogre::GpuProgramManager</text>
</a>
</g>
</g>
<!-- Node1&#45;&gt;Node5 -->
<g id="edge4" class="edge">
<title>Node1&#45;&gt;Node5</title>
<path fill="none" stroke="midnightblue" d="M209.54,-198.3C226.69,-218.29 257.58,-250.76 291,-269 298.01,-272.83 305.83,-275.91 313.66,-278.38"/>
<polygon fill="midnightblue" stroke="midnightblue" points="212.17,-195.99 203.06,-190.58 206.81,-200.49 212.17,-195.99"/>
</g>
<!-- Node11 -->
<g id="node11" class="node">
<title>Node11</title>
<g id="a_node11"><a xlink:href="class_ogre_1_1_high_level_gpu_program_manager.html" target="_top" xlink:title="This ResourceManager manages high&#45;level vertex and fragment programs.">
<polygon fill="none" stroke="black" points="294.5,-229 294.5,-259 435.5,-259 435.5,-229 294.5,-229"/>
<text text-anchor="start" x="302.5" y="-247" font-family="Helvetica,sans-Serif" font-size="10.00">Ogre::HighLevelGpuProgram</text>
<text text-anchor="middle" x="365" y="-236" font-family="Helvetica,sans-Serif" font-size="10.00">Manager</text>
</a>
</g>
</g>
<!-- Node1&#45;&gt;Node11 -->
<g id="edge10" class="edge">
<title>Node1&#45;&gt;Node11</title>
<path fill="none" stroke="midnightblue" d="M227.92,-194.36C246.34,-201.83 269.86,-211.18 291,-219 299.92,-222.3 309.51,-225.69 318.71,-228.87"/>
<polygon fill="midnightblue" stroke="midnightblue" points="229.12,-191.06 218.54,-190.53 226.48,-197.55 229.12,-191.06"/>
</g>
<!-- Node12 -->
<g id="node12" class="node">
<title>Node12</title>
<g id="a_node12"><a xlink:href="class_ogre_1_1_material_manager.html" target="_top" xlink:title="Class for managing Material settings for Ogre.">
<polygon fill="none" stroke="black" points="308,-190.5 308,-209.5 422,-209.5 422,-190.5 308,-190.5"/>
<text text-anchor="middle" x="365" y="-197.5" font-family="Helvetica,sans-Serif" font-size="10.00">Ogre::MaterialManager</text>
</a>
</g>
</g>
<!-- Node1&#45;&gt;Node12 -->
<g id="edge11" class="edge">
<title>Node1&#45;&gt;Node12</title>
<path fill="none" stroke="midnightblue" d="M265.56,-188.9C279.7,-190.49 294.39,-192.15 307.97,-193.68"/>
<polygon fill="midnightblue" stroke="midnightblue" points="265.71,-185.39 255.38,-187.75 264.93,-192.35 265.71,-185.39"/>
</g>
<!-- Node13 -->
<g id="node13" class="node">
<title>Node13</title>
<g id="a_node13"><a xlink:href="class_ogre_1_1_mesh_manager.html" target="_top" xlink:title="Handles the management of mesh resources.">
<polygon fill="none" stroke="black" points="313,-152.5 313,-171.5 417,-171.5 417,-152.5 313,-152.5"/>
<text text-anchor="middle" x="365" y="-159.5" font-family="Helvetica,sans-Serif" font-size="10.00">Ogre::MeshManager</text>
</a>
</g>
</g>
<!-- Node1&#45;&gt;Node13 -->
<g id="edge12" class="edge">
<title>Node1&#45;&gt;Node13</title>
<path fill="none" stroke="midnightblue" d="M265.68,-173.09C281.53,-171.3 298.07,-169.43 312.96,-167.76"/>
<polygon fill="midnightblue" stroke="midnightblue" points="264.93,-169.65 255.38,-174.25 265.71,-176.61 264.93,-169.65"/>
</g>
<!-- Node14 -->
<g id="node14" class="node">
<title>Node14</title>
<g id="a_node14"><a xlink:href="class_ogre_1_1_texture_manager.html" target="_top" xlink:title="Class for loading &amp; managing textures.">
<polygon fill="none" stroke="black" points="309,-114.5 309,-133.5 421,-133.5 421,-114.5 309,-114.5"/>
<text text-anchor="middle" x="365" y="-121.5" font-family="Helvetica,sans-Serif" font-size="10.00">Ogre::TextureManager</text>
</a>
</g>
</g>
<!-- Node1&#45;&gt;Node14 -->
<g id="edge13" class="edge">
<title>Node1&#45;&gt;Node14</title>
<path fill="none" stroke="midnightblue" d="M226.61,-167.49C245.11,-159.74 269.15,-150.16 291,-143 301.45,-139.57 312.91,-136.35 323.58,-133.57"/>
<polygon fill="midnightblue" stroke="midnightblue" points="225.06,-164.34 217.22,-171.46 227.79,-170.79 225.06,-164.34"/>
</g>
<!-- Node21 -->
<g id="node21" class="node">
<title>Node21</title>
<g id="a_node21"><a xlink:href="class_ogre_1_1v1_1_1_mesh_manager.html" target="_top" xlink:title="Handles the management of mesh resources.">
<polygon fill="none" stroke="black" points="305.5,-76.5 305.5,-95.5 424.5,-95.5 424.5,-76.5 305.5,-76.5"/>
<text text-anchor="middle" x="365" y="-83.5" font-family="Helvetica,sans-Serif" font-size="10.00">Ogre::v1::MeshManager</text>
</a>
</g>
</g>
<!-- Node1&#45;&gt;Node21 -->
<g id="edge20" class="edge">
<title>Node1&#45;&gt;Node21</title>
<path fill="none" stroke="midnightblue" d="M212.2,-164.04C230.15,-146.76 260.26,-120.36 291,-105 298.61,-101.2 307.07,-98.1 315.44,-95.59"/>
<polygon fill="midnightblue" stroke="midnightblue" points="209.52,-161.76 204.85,-171.27 214.43,-166.75 209.52,-161.76"/>
</g>
<!-- Node22 -->
<g id="node22" class="node">
<title>Node22</title>
<g id="a_node22"><a xlink:href="class_ogre_1_1v1_1_1_old_skeleton_manager.html" target="_top" xlink:title="Handles the management of skeleton resources.">
<polygon fill="none" stroke="black" points="291,-38.5 291,-57.5 439,-57.5 439,-38.5 291,-38.5"/>
<text text-anchor="middle" x="365" y="-45.5" font-family="Helvetica,sans-Serif" font-size="10.00">Ogre::v1::OldSkeletonManager</text>
</a>
</g>
</g>
<!-- Node1&#45;&gt;Node22 -->
<g id="edge21" class="edge">
<title>Node1&#45;&gt;Node22</title>
<path fill="none" stroke="midnightblue" d="M205.82,-162.64C221.08,-137.2 252.11,-91.6 291,-67 297.09,-63.15 303.93,-60.08 310.92,-57.62"/>
<polygon fill="midnightblue" stroke="midnightblue" points="202.77,-160.92 200.76,-171.32 208.82,-164.44 202.77,-160.92"/>
</g>
<!-- Node2 -->
<g id="node2" class="node">
<title>Node2</title>
<g id="a_node2"><a xlink:href="class_ogre_1_1_script_loader.html" target="_top" xlink:title="Abstract class defining the interface used by classes which wish to perform script loading to define ...">
<polygon fill="none" stroke="black" points="0,-190.5 0,-209.5 98,-209.5 98,-190.5 0,-190.5"/>
<text text-anchor="middle" x="49" y="-197.5" font-family="Helvetica,sans-Serif" font-size="10.00">Ogre::ScriptLoader</text>
</a>
</g>
</g>
<!-- Node2&#45;&gt;Node1 -->
<g id="edge1" class="edge">
<title>Node2&#45;&gt;Node1</title>
<path fill="none" stroke="midnightblue" d="M108.33,-192.28C116.79,-191.16 125.5,-190 133.97,-188.88"/>
<polygon fill="midnightblue" stroke="midnightblue" points="107.64,-188.84 98.18,-193.62 108.56,-195.78 107.64,-188.84"/>
</g>
<!-- Node3 -->
<g id="node3" class="node">
<title>Node3</title>
<g id="a_node3"><a xlink:href="class_ogre_1_1_allocated_object.html" target="_top" xlink:title="Superclass for all objects that wish to use custom memory allocators when their new / delete operator...">
<polygon fill="none" stroke="black" points="9,-152.5 9,-171.5 89,-171.5 89,-152.5 9,-152.5"/>
<text text-anchor="middle" x="49" y="-159.5" font-family="Helvetica,sans-Serif" font-size="10.00">ResourceAlloc</text>
</a>
</g>
</g>
<!-- Node3&#45;&gt;Node1 -->
<g id="edge2" class="edge">
<title>Node3&#45;&gt;Node1</title>
<path fill="none" stroke="midnightblue" d="M99.2,-168.51C110.36,-169.99 122.33,-171.58 133.86,-173.1"/>
<polygon fill="midnightblue" stroke="midnightblue" points="99.58,-165.03 89.21,-167.19 98.67,-171.97 99.58,-165.03"/>
</g>
<!-- Node6 -->
<g id="node6" class="node">
<title>Node6</title>
<g id="a_node6"><a xlink:href="class_ogre_1_1_d3_d11_gpu_program_manager.html" target="_top" xlink:title=" ">
<polygon fill="none" stroke="black" points="476,-380.5 476,-399.5 640,-399.5 640,-380.5 476,-380.5"/>
<text text-anchor="middle" x="558" y="-387.5" font-family="Helvetica,sans-Serif" font-size="10.00">Ogre::D3D11GpuProgramManager</text>
</a>
</g>
</g>
<!-- Node5&#45;&gt;Node6 -->
<g id="edge5" class="edge">
<title>Node5&#45;&gt;Node6</title>
<path fill="none" stroke="midnightblue" d="M431.58,-302.1C434.18,-303.57 436.67,-305.2 439,-307 464.85,-326.92 448.88,-351.43 475,-371 480.15,-374.86 485.94,-377.95 492.02,-380.42"/>
<polygon fill="midnightblue" stroke="midnightblue" points="432.93,-298.86 422.4,-297.65 429.87,-305.16 432.93,-298.86"/>
</g>
<!-- Node7 -->
<g id="node7" class="node">
<title>Node7</title>
<g id="a_node7"><a xlink:href="class_ogre_1_1_d3_d9_gpu_program_manager.html" target="_top" xlink:title=" ">
<polygon fill="none" stroke="black" points="479,-342.5 479,-361.5 637,-361.5 637,-342.5 479,-342.5"/>
<text text-anchor="middle" x="558" y="-349.5" font-family="Helvetica,sans-Serif" font-size="10.00">Ogre::D3D9GpuProgramManager</text>
</a>
</g>
</g>
<!-- Node5&#45;&gt;Node7 -->
<g id="edge6" class="edge">
<title>Node5&#45;&gt;Node7</title>
<path fill="none" stroke="midnightblue" d="M423.13,-300.66C428.59,-302.52 433.96,-304.63 439,-307 456.86,-315.41 457.03,-324.83 475,-333 483.51,-336.87 492.9,-339.99 502.18,-342.5"/>
<polygon fill="midnightblue" stroke="midnightblue" points="423.84,-297.21 413.25,-297.55 421.74,-303.89 423.84,-297.21"/>
</g>
<!-- Node8 -->
<g id="node8" class="node">
<title>Node8</title>
<g id="a_node8"><a xlink:href="class_ogre_1_1_g_l_e_s2_gpu_program_manager.html" target="_top" xlink:title=" ">
<polygon fill="none" stroke="black" points="475,-304.5 475,-323.5 641,-323.5 641,-304.5 475,-304.5"/>
<text text-anchor="middle" x="558" y="-311.5" font-family="Helvetica,sans-Serif" font-size="10.00">Ogre::GLES2GpuProgramManager</text>
</a>
</g>
</g>
<!-- Node5&#45;&gt;Node8 -->
<g id="edge7" class="edge">
<title>Node5&#45;&gt;Node8</title>
<path fill="none" stroke="midnightblue" d="M442.34,-298.39C457.07,-300.4 472.43,-302.49 486.95,-304.46"/>
<polygon fill="midnightblue" stroke="midnightblue" points="442.65,-294.9 432.27,-297.02 441.7,-301.84 442.65,-294.9"/>
</g>
<!-- Node9 -->
<g id="node9" class="node">
<title>Node9</title>
<g id="a_node9"><a xlink:href="class_ogre_1_1_g_l_s_l_shader_manager.html" target="_top" xlink:title=" ">
<polygon fill="none" stroke="black" points="489.5,-266.5 489.5,-285.5 626.5,-285.5 626.5,-266.5 489.5,-266.5"/>
<text text-anchor="middle" x="558" y="-273.5" font-family="Helvetica,sans-Serif" font-size="10.00">Ogre::GLSLShaderManager</text>
</a>
</g>
</g>
<!-- Node5&#45;&gt;Node9 -->
<g id="edge8" class="edge">
<title>Node5&#45;&gt;Node9</title>
<path fill="none" stroke="midnightblue" d="M442.34,-283.2C457.84,-282.23 474.05,-281.21 489.23,-280.26"/>
<polygon fill="midnightblue" stroke="midnightblue" points="442.03,-279.72 432.27,-283.84 442.47,-286.7 442.03,-279.72"/>
</g>
<!-- Node10 -->
<g id="node10" class="node">
<title>Node10</title>
<g id="a_node10"><a xlink:href="class_ogre_1_1_metal_gpu_program_manager.html" target="_top" xlink:title=" ">
<polygon fill="none" stroke="black" points="479,-228.5 479,-247.5 637,-247.5 637,-228.5 479,-228.5"/>
<text text-anchor="middle" x="558" y="-235.5" font-family="Helvetica,sans-Serif" font-size="10.00">Ogre::MetalGpuProgramManager</text>
</a>
</g>
</g>
<!-- Node5&#45;&gt;Node10 -->
<g id="edge9" class="edge">
<title>Node5&#45;&gt;Node10</title>
<path fill="none" stroke="midnightblue" d="M414.6,-275.84C422.77,-273.65 431.14,-271.33 439,-269 455.17,-264.21 458.77,-261.58 475,-257 486.96,-253.63 500.01,-250.4 512.12,-247.6"/>
<polygon fill="midnightblue" stroke="midnightblue" points="413.56,-272.49 404.78,-278.42 415.34,-279.26 413.56,-272.49"/>
</g>
<!-- Node15 -->
<g id="node15" class="node">
<title>Node15</title>
<g id="a_node15"><a xlink:href="class_ogre_1_1_d3_d11_texture_manager.html" target="_top" xlink:title=" ">
<polygon fill="none" stroke="black" points="487.5,-190.5 487.5,-209.5 628.5,-209.5 628.5,-190.5 487.5,-190.5"/>
<text text-anchor="middle" x="558" y="-197.5" font-family="Helvetica,sans-Serif" font-size="10.00">Ogre::D3D11TextureManager</text>
</a>
</g>
</g>
<!-- Node14&#45;&gt;Node15 -->
<g id="edge14" class="edge">
<title>Node14&#45;&gt;Node15</title>
<path fill="none" stroke="midnightblue" d="M427.34,-137.19C431.39,-138.9 435.32,-140.83 439,-143 459.03,-154.83 454.81,-169.44 475,-181 481.72,-184.85 489.17,-187.92 496.77,-190.37"/>
<polygon fill="midnightblue" stroke="midnightblue" points="428.31,-133.82 417.72,-133.58 425.86,-140.37 428.31,-133.82"/>
</g>
<!-- Node16 -->
<g id="node16" class="node">
<title>Node16</title>
<g id="a_node16"><a xlink:href="class_ogre_1_1_d3_d9_texture_manager.html" target="_top" xlink:title=" ">
<polygon fill="none" stroke="black" points="490,-152.5 490,-171.5 626,-171.5 626,-152.5 490,-152.5"/>
<text text-anchor="middle" x="558" y="-159.5" font-family="Helvetica,sans-Serif" font-size="10.00">Ogre::D3D9TextureManager</text>
</a>
</g>
</g>
<!-- Node14&#45;&gt;Node16 -->
<g id="edge15" class="edge">
<title>Node14&#45;&gt;Node16</title>
<path fill="none" stroke="midnightblue" d="M424.35,-135.61C451.52,-141.01 483.43,-147.36 509.15,-152.48"/>
<polygon fill="midnightblue" stroke="midnightblue" points="424.69,-132.11 414.2,-133.59 423.32,-138.97 424.69,-132.11"/>
</g>
<!-- Node17 -->
<g id="node17" class="node">
<title>Node17</title>
<g id="a_node17"><a xlink:href="class_ogre_1_1_g_l3_plus_texture_manager.html" target="_top" xlink:title="GL3Plus&#45;specific implementation of a TextureManager.">
<polygon fill="none" stroke="black" points="483,-114.5 483,-133.5 633,-133.5 633,-114.5 483,-114.5"/>
<text text-anchor="middle" x="558" y="-121.5" font-family="Helvetica,sans-Serif" font-size="10.00">Ogre::GL3PlusTextureManager</text>
</a>
</g>
</g>
<!-- Node14&#45;&gt;Node17 -->
<g id="edge16" class="edge">
<title>Node14&#45;&gt;Node17</title>
<path fill="none" stroke="midnightblue" d="M431.34,-124C447.88,-124 465.75,-124 482.69,-124"/>
<polygon fill="midnightblue" stroke="midnightblue" points="431.25,-120.5 421.25,-124 431.25,-127.5 431.25,-120.5"/>
</g>
<!-- Node18 -->
<g id="node18" class="node">
<title>Node18</title>
<g id="a_node18"><a xlink:href="class_ogre_1_1_g_l_e_s2_texture_manager.html" target="_top" xlink:title="GL ES&#45;specific implementation of a TextureManager.">
<polygon fill="none" stroke="black" points="486.5,-76.5 486.5,-95.5 629.5,-95.5 629.5,-76.5 486.5,-76.5"/>
<text text-anchor="middle" x="558" y="-83.5" font-family="Helvetica,sans-Serif" font-size="10.00">Ogre::GLES2TextureManager</text>
</a>
</g>
</g>
<!-- Node14&#45;&gt;Node18 -->
<g id="edge17" class="edge">
<title>Node14&#45;&gt;Node18</title>
<path fill="none" stroke="midnightblue" d="M424.35,-112.39C451.52,-106.99 483.43,-100.64 509.15,-95.52"/>
<polygon fill="midnightblue" stroke="midnightblue" points="423.32,-109.03 414.2,-114.41 424.69,-115.89 423.32,-109.03"/>
</g>
<!-- Node19 -->
<g id="node19" class="node">
<title>Node19</title>
<g id="a_node19"><a xlink:href="class_ogre_1_1_metal_texture_manager.html" target="_top" xlink:title=" ">
<polygon fill="none" stroke="black" points="490,-38.5 490,-57.5 626,-57.5 626,-38.5 490,-38.5"/>
<text text-anchor="middle" x="558" y="-45.5" font-family="Helvetica,sans-Serif" font-size="10.00">Ogre::MetalTextureManager</text>
</a>
</g>
</g>
<!-- Node14&#45;&gt;Node19 -->
<g id="edge18" class="edge">
<title>Node14&#45;&gt;Node19</title>
<path fill="none" stroke="midnightblue" d="M427.34,-110.81C431.39,-109.1 435.32,-107.17 439,-105 459.03,-93.17 454.81,-78.56 475,-67 481.72,-63.15 489.17,-60.08 496.77,-57.63"/>
<polygon fill="midnightblue" stroke="midnightblue" points="425.86,-107.63 417.72,-114.42 428.31,-114.18 425.86,-107.63"/>
</g>
<!-- Node20 -->
<g id="node20" class="node">
<title>Node20</title>
<g id="a_node20"><a xlink:href="class_ogre_1_1_n_u_l_l_texture_manager.html" target="_top" xlink:title=" ">
<polygon fill="none" stroke="black" points="488.5,-0.5 488.5,-19.5 627.5,-19.5 627.5,-0.5 488.5,-0.5"/>
<text text-anchor="middle" x="558" y="-7.5" font-family="Helvetica,sans-Serif" font-size="10.00">Ogre::NULLTextureManager</text>
</a>
</g>
</g>
<!-- Node14&#45;&gt;Node20 -->
<g id="edge19" class="edge">
<title>Node14&#45;&gt;Node20</title>
<path fill="none" stroke="midnightblue" d="M430.26,-110.97C433.36,-109.22 436.3,-107.24 439,-105 467.79,-81.17 445.89,-52.44 475,-29 479.78,-25.15 485.2,-22.05 490.92,-19.56"/>
<polygon fill="midnightblue" stroke="midnightblue" points="428.7,-107.83 421.19,-115.31 431.73,-114.15 428.7,-107.83"/>
</g>
</g>
</svg>
