<?xml version="1.0" encoding="UTF-8" standalone="no"?>
<!DOCTYPE svg PUBLIC "-//W3C//DTD SVG 1.1//EN"
 "http://www.w3.org/Graphics/SVG/1.1/DTD/svg11.dtd">
<!-- Generated by graphviz version 2.42.3 ()
 -->
<!-- Title: Ogre::HlmsPbs Pages: 1 -->
<svg width="268pt" height="252pt"
 viewBox="0.00 0.00 267.50 252.00" xmlns="http://www.w3.org/2000/svg" xmlns:xlink="http://www.w3.org/1999/xlink">
<g id="graph0" class="graph" transform="scale(1 1) rotate(0) translate(4 248)">
<title>Ogre::HlmsPbs</title>
<!-- Node1 -->
<g id="node1" class="node">
<title>Node1</title>
<g id="a_node1"><a xlink:title="Physically based shading implementation specfically designed for OpenGL 3+, D3D11 and other RenderSys...">
<polygon fill="#bfbfbf" stroke="black" points="91.5,-56.5 91.5,-75.5 174.5,-75.5 174.5,-56.5 91.5,-56.5"/>
<text text-anchor="middle" x="133" y="-63.5" font-family="Helvetica,sans-Serif" font-size="10.00">Ogre::HlmsPbs</text>
</a>
</g>
</g>
<!-- Node6 -->
<g id="node6" class="node">
<title>Node6</title>
<g id="a_node6"><a xlink:href="class_ogre_1_1_hlms_terra.html" target="_top" xlink:title="Physically based shading implementation specfically designed for OpenGL 3+, D3D11 and other RenderSys...">
<polygon fill="none" stroke="black" points="89,-0.5 89,-19.5 177,-19.5 177,-0.5 89,-0.5"/>
<text text-anchor="middle" x="133" y="-7.5" font-family="Helvetica,sans-Serif" font-size="10.00">Ogre::HlmsTerra</text>
</a>
</g>
</g>
<!-- Node1&#45;&gt;Node6 -->
<g id="edge5" class="edge">
<title>Node1&#45;&gt;Node6</title>
<path fill="none" stroke="midnightblue" d="M133,-45.8C133,-36.91 133,-26.78 133,-19.75"/>
<polygon fill="midnightblue" stroke="midnightblue" points="129.5,-46.08 133,-56.08 136.5,-46.08 129.5,-46.08"/>
</g>
<!-- Node2 -->
<g id="node2" class="node">
<title>Node2</title>
<g id="a_node2"><a xlink:href="class_ogre_1_1_hlms_buffer_manager.html" target="_top" xlink:title="Managing constant and texture buffers for sending shader parameters is a very similar process to most...">
<polygon fill="none" stroke="black" points="0,-112.5 0,-131.5 128,-131.5 128,-112.5 0,-112.5"/>
<text text-anchor="middle" x="64" y="-119.5" font-family="Helvetica,sans-Serif" font-size="10.00">Ogre::HlmsBufferManager</text>
</a>
</g>
</g>
<!-- Node2&#45;&gt;Node1 -->
<g id="edge1" class="edge">
<title>Node2&#45;&gt;Node1</title>
<path fill="none" stroke="midnightblue" d="M83.04,-106.1C95.46,-96.38 111.24,-84.03 121.71,-75.83"/>
<polygon fill="midnightblue" stroke="midnightblue" points="80.8,-103.4 75.09,-112.32 85.12,-108.92 80.8,-103.4"/>
</g>
<!-- Node3 -->
<g id="node3" class="node">
<title>Node3</title>
<g id="a_node3"><a xlink:href="class_ogre_1_1_hlms.html" target="_top" xlink:title="HLMS stands for &quot;High Level Material System&quot;.">
<polygon fill="none" stroke="black" points="31.5,-168.5 31.5,-187.5 96.5,-187.5 96.5,-168.5 31.5,-168.5"/>
<text text-anchor="middle" x="64" y="-175.5" font-family="Helvetica,sans-Serif" font-size="10.00">Ogre::Hlms</text>
</a>
</g>
</g>
<!-- Node3&#45;&gt;Node2 -->
<g id="edge2" class="edge">
<title>Node3&#45;&gt;Node2</title>
<path fill="none" stroke="midnightblue" d="M64,-157.8C64,-148.91 64,-138.78 64,-131.75"/>
<polygon fill="midnightblue" stroke="midnightblue" points="60.5,-158.08 64,-168.08 67.5,-158.08 60.5,-158.08"/>
</g>
<!-- Node4 -->
<g id="node4" class="node">
<title>Node4</title>
<g id="a_node4"><a xlink:href="class_ogre_1_1_allocated_object.html" target="_top" xlink:title="Superclass for all objects that wish to use custom memory allocators when their new / delete operator...">
<polygon fill="none" stroke="black" points="33,-224.5 33,-243.5 95,-243.5 95,-224.5 33,-224.5"/>
<text text-anchor="middle" x="64" y="-231.5" font-family="Helvetica,sans-Serif" font-size="10.00">HlmsAlloc</text>
</a>
</g>
</g>
<!-- Node4&#45;&gt;Node3 -->
<g id="edge3" class="edge">
<title>Node4&#45;&gt;Node3</title>
<path fill="none" stroke="midnightblue" d="M64,-213.8C64,-204.91 64,-194.78 64,-187.75"/>
<polygon fill="midnightblue" stroke="midnightblue" points="60.5,-214.08 64,-224.08 67.5,-214.08 60.5,-214.08"/>
</g>
<!-- Node5 -->
<g id="node5" class="node">
<title>Node5</title>
<g id="a_node5"><a xlink:href="class_ogre_1_1_const_buffer_pool.html" target="_top" xlink:title="Maintains a pool of buffers grouped by hash ID.">
<polygon fill="none" stroke="black" points="146.5,-112.5 146.5,-131.5 259.5,-131.5 259.5,-112.5 146.5,-112.5"/>
<text text-anchor="middle" x="203" y="-119.5" font-family="Helvetica,sans-Serif" font-size="10.00">Ogre::ConstBufferPool</text>
</a>
</g>
</g>
<!-- Node5&#45;&gt;Node1 -->
<g id="edge4" class="edge">
<title>Node5&#45;&gt;Node1</title>
<path fill="none" stroke="midnightblue" d="M183.69,-106.1C171.09,-96.38 155.07,-84.03 144.45,-75.83"/>
<polygon fill="midnightblue" stroke="midnightblue" points="181.7,-108.99 191.75,-112.32 185.97,-103.44 181.7,-108.99"/>
</g>
</g>
</svg>
