<?xml version="1.0" encoding="UTF-8" standalone="no"?>
<!DOCTYPE svg PUBLIC "-//W3C//DTD SVG 1.1//EN"
 "http://www.w3.org/Graphics/SVG/1.1/DTD/svg11.dtd">
<!-- Generated by graphviz version 2.42.3 ()
 -->
<!-- Title: Ogre::TextureGpuListener Pages: 1 -->
<svg width="541pt" height="448pt"
 viewBox="0.00 0.00 541.00 448.00" xmlns="http://www.w3.org/2000/svg" xmlns:xlink="http://www.w3.org/1999/xlink">
<g id="graph0" class="graph" transform="scale(1 1) rotate(0) translate(4 444)">
<title>Ogre::TextureGpuListener</title>
<!-- Node1 -->
<g id="node1" class="node">
<title>Node1</title>
<g id="a_node1"><a xlink:title=" ">
<polygon fill="#bfbfbf" stroke="black" points="0,-180.5 0,-199.5 128,-199.5 128,-180.5 0,-180.5"/>
<text text-anchor="middle" x="64" y="-187.5" font-family="Helvetica,sans-Serif" font-size="10.00">Ogre::TextureGpuListener</text>
</a>
</g>
</g>
<!-- Node2 -->
<g id="node2" class="node">
<title>Node2</title>
<g id="a_node2"><a xlink:href="class_ogre_1_1_async_texture_ticket.html" target="_top" xlink:title="In Ogre 2.2 reading data from GPU back to CPU is asynchronous.">
<polygon fill="none" stroke="black" points="182.5,-354.5 182.5,-373.5 310.5,-373.5 310.5,-354.5 182.5,-354.5"/>
<text text-anchor="middle" x="246.5" y="-361.5" font-family="Helvetica,sans-Serif" font-size="10.00">Ogre::AsyncTextureTicket</text>
</a>
</g>
</g>
<!-- Node1&#45;&gt;Node2 -->
<g id="edge1" class="edge">
<title>Node1&#45;&gt;Node2</title>
<path fill="none" stroke="midnightblue" d="M71.75,-209.35C84.38,-242.57 114.84,-310.22 164,-345 169.57,-348.94 175.85,-352.08 182.38,-354.57"/>
<polygon fill="midnightblue" stroke="midnightblue" points="75,-208.04 68.28,-199.86 68.43,-210.45 75,-208.04"/>
</g>
<!-- Node7 -->
<g id="node7" class="node">
<title>Node7</title>
<g id="a_node7"><a xlink:href="class_ogre_1_1_compositor_pass_uav.html" target="_top" xlink:title="Implementation of CompositorPass This implementation will set UAVs.">
<polygon fill="none" stroke="black" points="180.5,-316.5 180.5,-335.5 312.5,-335.5 312.5,-316.5 180.5,-316.5"/>
<text text-anchor="middle" x="246.5" y="-323.5" font-family="Helvetica,sans-Serif" font-size="10.00">Ogre::CompositorPassUav</text>
</a>
</g>
</g>
<!-- Node1&#45;&gt;Node7 -->
<g id="edge6" class="edge">
<title>Node1&#45;&gt;Node7</title>
<path fill="none" stroke="midnightblue" d="M75.42,-208.59C91.11,-234.79 123.34,-282.14 164,-307 170.32,-310.87 177.36,-313.94 184.58,-316.4"/>
<polygon fill="midnightblue" stroke="midnightblue" points="78.29,-206.56 70.24,-199.68 72.24,-210.08 78.29,-206.56"/>
</g>
<!-- Node8 -->
<g id="node8" class="node">
<title>Node8</title>
<g id="a_node8"><a xlink:href="class_ogre_1_1_decal.html" target="_top" xlink:title=" ">
<polygon fill="none" stroke="black" points="213,-278.5 213,-297.5 280,-297.5 280,-278.5 213,-278.5"/>
<text text-anchor="middle" x="246.5" y="-285.5" font-family="Helvetica,sans-Serif" font-size="10.00">Ogre::Decal</text>
</a>
</g>
</g>
<!-- Node1&#45;&gt;Node8 -->
<g id="edge7" class="edge">
<title>Node1&#45;&gt;Node8</title>
<path fill="none" stroke="midnightblue" d="M81.38,-206.97C99.8,-225.06 131.42,-253.21 164,-269 179.17,-276.35 197.32,-280.94 212.64,-283.76"/>
<polygon fill="midnightblue" stroke="midnightblue" points="83.65,-204.29 74.11,-199.68 78.69,-209.23 83.65,-204.29"/>
</g>
<!-- Node9 -->
<g id="node9" class="node">
<title>Node9</title>
<g id="a_node9"><a xlink:href="class_ogre_1_1_hlms_compute_job.html" target="_top" xlink:title=" ">
<polygon fill="none" stroke="black" points="186.5,-240.5 186.5,-259.5 306.5,-259.5 306.5,-240.5 186.5,-240.5"/>
<text text-anchor="middle" x="246.5" y="-247.5" font-family="Helvetica,sans-Serif" font-size="10.00">Ogre::HlmsComputeJob</text>
</a>
</g>
</g>
<!-- Node1&#45;&gt;Node9 -->
<g id="edge8" class="edge">
<title>Node1&#45;&gt;Node9</title>
<path fill="none" stroke="midnightblue" d="M94.72,-203.81C114.13,-212.45 140.21,-223.36 164,-231 175.07,-234.55 187.17,-237.74 198.59,-240.45"/>
<polygon fill="midnightblue" stroke="midnightblue" points="96.04,-200.56 85.49,-199.64 93.17,-206.95 96.04,-200.56"/>
</g>
<!-- Node10 -->
<g id="node10" class="node">
<title>Node10</title>
<g id="a_node10"><a xlink:href="class_ogre_1_1_light.html" target="_top" xlink:title="Representation of a dynamic light source in the scene.">
<polygon fill="none" stroke="black" points="214.5,-202.5 214.5,-221.5 278.5,-221.5 278.5,-202.5 214.5,-202.5"/>
<text text-anchor="middle" x="246.5" y="-209.5" font-family="Helvetica,sans-Serif" font-size="10.00">Ogre::Light</text>
</a>
</g>
</g>
<!-- Node1&#45;&gt;Node10 -->
<g id="edge9" class="edge">
<title>Node1&#45;&gt;Node10</title>
<path fill="none" stroke="midnightblue" d="M138.15,-198.92C164.61,-202.14 193.1,-205.61 214.08,-208.17"/>
<polygon fill="midnightblue" stroke="midnightblue" points="138.48,-195.43 128.13,-197.69 137.63,-202.38 138.48,-195.43"/>
</g>
<!-- Node11 -->
<g id="node11" class="node">
<title>Node11</title>
<g id="a_node11"><a xlink:href="class_ogre_1_1_o_g_r_e___h_l_m_s___t_e_x_t_u_r_e___b_a_s_e___c_l_a_s_s.html" target="_top" xlink:title="This is not a regular header, therefore it has no include guards.">
<polygon fill="none" stroke="black" points="169.5,-153 169.5,-183 323.5,-183 323.5,-153 169.5,-153"/>
<text text-anchor="start" x="177.5" y="-171" font-family="Helvetica,sans-Serif" font-size="10.00">Ogre::OGRE_HLMS_TEXTURE</text>
<text text-anchor="middle" x="246.5" y="-160" font-family="Helvetica,sans-Serif" font-size="10.00">_BASE_CLASS</text>
</a>
</g>
</g>
<!-- Node1&#45;&gt;Node11 -->
<g id="edge10" class="edge">
<title>Node1&#45;&gt;Node11</title>
<path fill="none" stroke="midnightblue" d="M138.26,-181.07C148.51,-179.82 159.07,-178.53 169.37,-177.28"/>
<polygon fill="midnightblue" stroke="midnightblue" points="137.63,-177.62 128.13,-182.31 138.48,-184.57 137.63,-177.62"/>
</g>
<!-- Node12 -->
<g id="node12" class="node">
<title>Node12</title>
<g id="a_node12"><a xlink:href="class_ogre_1_1_texture_gpu_manager.html" target="_top" xlink:title=" ">
<polygon fill="none" stroke="black" points="181.5,-114.5 181.5,-133.5 311.5,-133.5 311.5,-114.5 181.5,-114.5"/>
<text text-anchor="middle" x="246.5" y="-121.5" font-family="Helvetica,sans-Serif" font-size="10.00">Ogre::TextureGpuManager</text>
</a>
</g>
</g>
<!-- Node1&#45;&gt;Node12 -->
<g id="edge11" class="edge">
<title>Node1&#45;&gt;Node12</title>
<path fill="none" stroke="midnightblue" d="M91.75,-175.84C111.34,-165.9 138.8,-152.85 164,-144 175.41,-139.99 187.99,-136.48 199.78,-133.57"/>
<polygon fill="midnightblue" stroke="midnightblue" points="90.1,-172.75 82.81,-180.44 93.3,-178.98 90.1,-172.75"/>
</g>
<!-- Node17 -->
<g id="node17" class="node">
<title>Node17</title>
<g id="a_node17"><a xlink:href="class_ogre_1_1_texture_gpu_manager_listener.html" target="_top" xlink:title=" ">
<polygon fill="none" stroke="black" points="164,-76.5 164,-95.5 329,-95.5 329,-76.5 164,-76.5"/>
<text text-anchor="middle" x="246.5" y="-83.5" font-family="Helvetica,sans-Serif" font-size="10.00">Ogre::TextureGpuManagerListener</text>
</a>
</g>
</g>
<!-- Node1&#45;&gt;Node17 -->
<g id="edge16" class="edge">
<title>Node1&#45;&gt;Node17</title>
<path fill="none" stroke="midnightblue" d="M80.02,-172.87C98.03,-153.44 130.06,-122.21 164,-105 171.65,-101.12 180.1,-98.02 188.57,-95.55"/>
<polygon fill="midnightblue" stroke="midnightblue" points="77.32,-170.65 73.2,-180.41 82.5,-175.35 77.32,-170.65"/>
</g>
<!-- Node19 -->
<g id="node19" class="node">
<title>Node19</title>
<g id="a_node19"><a xlink:href="class_ogre_1_1_texture_unit_state.html" target="_top" xlink:title="Class representing the state of a single texture unit during a Pass of a Technique,...">
<polygon fill="none" stroke="black" points="188.5,-38.5 188.5,-57.5 304.5,-57.5 304.5,-38.5 188.5,-38.5"/>
<text text-anchor="middle" x="246.5" y="-45.5" font-family="Helvetica,sans-Serif" font-size="10.00">Ogre::TextureUnitState</text>
</a>
</g>
</g>
<!-- Node1&#45;&gt;Node19 -->
<g id="edge18" class="edge">
<title>Node1&#45;&gt;Node19</title>
<path fill="none" stroke="midnightblue" d="M74.75,-171.22C89.97,-143.84 122.04,-93.37 164,-67 171.38,-62.36 179.78,-58.85 188.31,-56.2"/>
<polygon fill="midnightblue" stroke="midnightblue" points="71.58,-169.71 69.91,-180.17 77.74,-173.04 71.58,-169.71"/>
</g>
<!-- Node20 -->
<g id="node20" class="node">
<title>Node20</title>
<g id="a_node20"><a xlink:href="class_ogre_1_1_vct_lighting.html" target="_top" xlink:title=" ">
<polygon fill="none" stroke="black" points="200.5,-0.5 200.5,-19.5 292.5,-19.5 292.5,-0.5 200.5,-0.5"/>
<text text-anchor="middle" x="246.5" y="-7.5" font-family="Helvetica,sans-Serif" font-size="10.00">Ogre::VctLighting</text>
</a>
</g>
</g>
<!-- Node1&#45;&gt;Node20 -->
<g id="edge19" class="edge">
<title>Node1&#45;&gt;Node20</title>
<path fill="none" stroke="midnightblue" d="M71.36,-170.41C83.54,-136.1 113.55,-65.34 164,-29 174.49,-21.44 187.54,-16.84 200.1,-14.06"/>
<polygon fill="midnightblue" stroke="midnightblue" points="67.94,-169.58 68.02,-180.17 74.57,-171.84 67.94,-169.58"/>
</g>
<!-- Node3 -->
<g id="node3" class="node">
<title>Node3</title>
<g id="a_node3"><a xlink:href="class_ogre_1_1_d3_d11_async_texture_ticket.html" target="_top" xlink:title="See AsyncTextureTicket.">
<polygon fill="none" stroke="black" points="370,-420.5 370,-439.5 528,-439.5 528,-420.5 370,-420.5"/>
<text text-anchor="middle" x="449" y="-427.5" font-family="Helvetica,sans-Serif" font-size="10.00">Ogre::D3D11AsyncTextureTicket</text>
</a>
</g>
</g>
<!-- Node2&#45;&gt;Node3 -->
<g id="edge2" class="edge">
<title>Node2&#45;&gt;Node3</title>
<path fill="none" stroke="midnightblue" d="M278.2,-377.81C301.63,-387.97 334.91,-401.6 365,-411 376.29,-414.53 388.63,-417.7 400.26,-420.41"/>
<polygon fill="midnightblue" stroke="midnightblue" points="279.36,-374.49 268.79,-373.68 276.55,-380.9 279.36,-374.49"/>
</g>
<!-- Node4 -->
<g id="node4" class="node">
<title>Node4</title>
<g id="a_node4"><a xlink:href="class_ogre_1_1_g_l3_plus_async_texture_ticket.html" target="_top" xlink:title="See AsyncTextureTicket.">
<polygon fill="none" stroke="black" points="379,-371 379,-401 519,-401 519,-371 379,-371"/>
<text text-anchor="start" x="387" y="-389" font-family="Helvetica,sans-Serif" font-size="10.00">Ogre::GL3PlusAsyncTexture</text>
<text text-anchor="middle" x="449" y="-378" font-family="Helvetica,sans-Serif" font-size="10.00">Ticket</text>
</a>
</g>
</g>
<!-- Node2&#45;&gt;Node4 -->
<g id="edge3" class="edge">
<title>Node2&#45;&gt;Node4</title>
<path fill="none" stroke="midnightblue" d="M320.75,-372.04C339.74,-374.12 360.12,-376.36 378.89,-378.42"/>
<polygon fill="midnightblue" stroke="midnightblue" points="320.99,-368.54 310.66,-370.93 320.22,-375.5 320.99,-368.54"/>
</g>
<!-- Node5 -->
<g id="node5" class="node">
<title>Node5</title>
<g id="a_node5"><a xlink:href="class_ogre_1_1_metal_async_texture_ticket.html" target="_top" xlink:title="See AsyncTextureTicket.">
<polygon fill="none" stroke="black" points="373,-332.5 373,-351.5 525,-351.5 525,-332.5 373,-332.5"/>
<text text-anchor="middle" x="449" y="-339.5" font-family="Helvetica,sans-Serif" font-size="10.00">Ogre::MetalAsyncTextureTicket</text>
</a>
</g>
</g>
<!-- Node2&#45;&gt;Node5 -->
<g id="edge4" class="edge">
<title>Node2&#45;&gt;Node5</title>
<path fill="none" stroke="midnightblue" d="M321.02,-355.93C337.92,-354.08 355.9,-352.11 372.87,-350.24"/>
<polygon fill="midnightblue" stroke="midnightblue" points="320.22,-352.5 310.66,-357.07 320.99,-359.46 320.22,-352.5"/>
</g>
<!-- Node6 -->
<g id="node6" class="node">
<title>Node6</title>
<g id="a_node6"><a xlink:href="class_ogre_1_1_n_u_l_l_async_texture_ticket.html" target="_top" xlink:title="See AsyncTextureTicket.">
<polygon fill="none" stroke="black" points="371.5,-294.5 371.5,-313.5 526.5,-313.5 526.5,-294.5 371.5,-294.5"/>
<text text-anchor="middle" x="449" y="-301.5" font-family="Helvetica,sans-Serif" font-size="10.00">Ogre::NULLAsyncTextureTicket</text>
</a>
</g>
</g>
<!-- Node2&#45;&gt;Node6 -->
<g id="edge5" class="edge">
<title>Node2&#45;&gt;Node6</title>
<path fill="none" stroke="midnightblue" d="M309.41,-351.78C316.12,-349.8 322.77,-347.55 329,-345 346.35,-337.89 347.63,-330.07 365,-323 374.31,-319.21 384.53,-316.09 394.52,-313.56"/>
<polygon fill="midnightblue" stroke="midnightblue" points="308.3,-348.46 299.58,-354.48 310.15,-355.21 308.3,-348.46"/>
</g>
<!-- Node13 -->
<g id="node13" class="node">
<title>Node13</title>
<g id="a_node13"><a xlink:href="class_ogre_1_1_d3_d11_texture_gpu_manager.html" target="_top" xlink:title=" ">
<polygon fill="none" stroke="black" points="369.5,-190.5 369.5,-209.5 528.5,-209.5 528.5,-190.5 369.5,-190.5"/>
<text text-anchor="middle" x="449" y="-197.5" font-family="Helvetica,sans-Serif" font-size="10.00">Ogre::D3D11TextureGpuManager</text>
</a>
</g>
</g>
<!-- Node12&#45;&gt;Node13 -->
<g id="edge12" class="edge">
<title>Node12&#45;&gt;Node13</title>
<path fill="none" stroke="midnightblue" d="M313.9,-136.91C319.16,-138.94 324.26,-141.29 329,-144 348.91,-155.4 345,-169.76 365,-181 371.96,-184.91 379.67,-188.02 387.52,-190.49"/>
<polygon fill="midnightblue" stroke="midnightblue" points="314.92,-133.56 304.33,-133.58 312.63,-140.17 314.92,-133.56"/>
</g>
<!-- Node14 -->
<g id="node14" class="node">
<title>Node14</title>
<g id="a_node14"><a xlink:href="class_ogre_1_1_g_l3_plus_texture_gpu_manager.html" target="_top" xlink:title=" ">
<polygon fill="none" stroke="black" points="365,-152.5 365,-171.5 533,-171.5 533,-152.5 365,-152.5"/>
<text text-anchor="middle" x="449" y="-159.5" font-family="Helvetica,sans-Serif" font-size="10.00">Ogre::GL3PlusTextureGpuManager</text>
</a>
</g>
</g>
<!-- Node12&#45;&gt;Node14 -->
<g id="edge13" class="edge">
<title>Node12&#45;&gt;Node14</title>
<path fill="none" stroke="midnightblue" d="M307.75,-135.42C336.43,-140.86 370.35,-147.28 397.64,-152.46"/>
<polygon fill="midnightblue" stroke="midnightblue" points="308.31,-131.96 297.84,-133.54 307.01,-138.84 308.31,-131.96"/>
</g>
<!-- Node15 -->
<g id="node15" class="node">
<title>Node15</title>
<g id="a_node15"><a xlink:href="class_ogre_1_1_metal_texture_gpu_manager.html" target="_top" xlink:title=" ">
<polygon fill="none" stroke="black" points="372,-114.5 372,-133.5 526,-133.5 526,-114.5 372,-114.5"/>
<text text-anchor="middle" x="449" y="-121.5" font-family="Helvetica,sans-Serif" font-size="10.00">Ogre::MetalTextureGpuManager</text>
</a>
</g>
</g>
<!-- Node12&#45;&gt;Node15 -->
<g id="edge14" class="edge">
<title>Node12&#45;&gt;Node15</title>
<path fill="none" stroke="midnightblue" d="M321.79,-124C338.12,-124 355.44,-124 371.85,-124"/>
<polygon fill="midnightblue" stroke="midnightblue" points="321.77,-120.5 311.77,-124 321.77,-127.5 321.77,-120.5"/>
</g>
<!-- Node16 -->
<g id="node16" class="node">
<title>Node16</title>
<g id="a_node16"><a xlink:href="class_ogre_1_1_n_u_l_l_texture_gpu_manager.html" target="_top" xlink:title=" ">
<polygon fill="none" stroke="black" points="370.5,-76.5 370.5,-95.5 527.5,-95.5 527.5,-76.5 370.5,-76.5"/>
<text text-anchor="middle" x="449" y="-83.5" font-family="Helvetica,sans-Serif" font-size="10.00">Ogre::NULLTextureGpuManager</text>
</a>
</g>
</g>
<!-- Node12&#45;&gt;Node16 -->
<g id="edge15" class="edge">
<title>Node12&#45;&gt;Node16</title>
<path fill="none" stroke="midnightblue" d="M307.75,-112.58C336.43,-107.14 370.35,-100.72 397.64,-95.54"/>
<polygon fill="midnightblue" stroke="midnightblue" points="307.01,-109.16 297.84,-114.46 308.31,-116.04 307.01,-109.16"/>
</g>
<!-- Node18 -->
<g id="node18" class="node">
<title>Node18</title>
<g id="a_node18"><a xlink:href="class_ogre_1_1_default_texture_gpu_manager_listener.html" target="_top" xlink:title="This is a Default implementation of TextureGpuManagerListener based on heuristics.">
<polygon fill="none" stroke="black" points="368.5,-27 368.5,-57 529.5,-57 529.5,-27 368.5,-27"/>
<text text-anchor="start" x="376.5" y="-45" font-family="Helvetica,sans-Serif" font-size="10.00">Ogre::DefaultTextureGpuManager</text>
<text text-anchor="middle" x="449" y="-34" font-family="Helvetica,sans-Serif" font-size="10.00">Listener</text>
</a>
</g>
</g>
<!-- Node17&#45;&gt;Node18 -->
<g id="edge17" class="edge">
<title>Node17&#45;&gt;Node18</title>
<path fill="none" stroke="midnightblue" d="M301.01,-74.26C325.06,-68.98 353.74,-62.69 379.35,-57.07"/>
<polygon fill="midnightblue" stroke="midnightblue" points="300.02,-70.89 291.01,-76.45 301.52,-77.73 300.02,-70.89"/>
</g>
</g>
</svg>
