<?xml version="1.0" encoding="UTF-8" standalone="no"?>
<!DOCTYPE svg PUBLIC "-//W3C//DTD SVG 1.1//EN"
 "http://www.w3.org/Graphics/SVG/1.1/DTD/svg11.dtd">
<!-- Generated by graphviz version 2.42.3 ()
 -->
<!-- Title: Ogre::StringInterface Pages: 1 -->
<svg width="848pt" height="617pt"
 viewBox="0.00 0.00 848.00 616.50" xmlns="http://www.w3.org/2000/svg" xmlns:xlink="http://www.w3.org/1999/xlink">
<g id="graph0" class="graph" transform="scale(1 1) rotate(0) translate(4 612.5)">
<title>Ogre::StringInterface</title>
<!-- Node1 -->
<g id="node1" class="node">
<title>Node1</title>
<g id="a_node1"><a xlink:title="Class defining the common interface which classes can use to present a reflection&#45;style,...">
<polygon fill="#bfbfbf" stroke="black" points="0,-311 0,-330 106,-330 106,-311 0,-311"/>
<text text-anchor="middle" x="53" y="-318" font-family="Helvetica,sans-Serif" font-size="10.00">Ogre::StringInterface</text>
</a>
</g>
</g>
<!-- Node2 -->
<g id="node2" class="node">
<title>Node2</title>
<g id="a_node2"><a xlink:href="class_ogre_1_1_external_texture_source.html" target="_top" xlink:title="IMPORTANT: Plugins must override default dictionary name! Base class that texture plugins derive from...">
<polygon fill="none" stroke="black" points="145.5,-425 145.5,-444 285.5,-444 285.5,-425 145.5,-425"/>
<text text-anchor="middle" x="215.5" y="-432" font-family="Helvetica,sans-Serif" font-size="10.00">Ogre::ExternalTextureSource</text>
</a>
</g>
</g>
<!-- Node1&#45;&gt;Node2 -->
<g id="edge1" class="edge">
<title>Node1&#45;&gt;Node2</title>
<path fill="none" stroke="midnightblue" d="M65.86,-338.57C80.96,-360.14 109.1,-395.78 142,-415.5 148.47,-419.38 155.73,-422.48 163.09,-424.95"/>
<polygon fill="midnightblue" stroke="midnightblue" points="68.73,-336.57 60.2,-330.27 62.94,-340.51 68.73,-336.57"/>
</g>
<!-- Node3 -->
<g id="node3" class="node">
<title>Node3</title>
<g id="a_node3"><a xlink:href="class_ogre_1_1_particle_affector.html" target="_top" xlink:title="Abstract class defining the interface to be implemented by particle affectors.">
<polygon fill="none" stroke="black" points="161,-387 161,-406 270,-406 270,-387 161,-387"/>
<text text-anchor="middle" x="215.5" y="-394" font-family="Helvetica,sans-Serif" font-size="10.00">Ogre::ParticleAffector</text>
</a>
</g>
</g>
<!-- Node1&#45;&gt;Node3 -->
<g id="edge2" class="edge">
<title>Node1&#45;&gt;Node3</title>
<path fill="none" stroke="midnightblue" d="M74.26,-336.31C91.44,-349.03 117.18,-366.55 142,-377.5 150.45,-381.23 159.79,-384.35 168.88,-386.92"/>
<polygon fill="midnightblue" stroke="midnightblue" points="76.19,-333.38 66.1,-330.15 71.97,-338.97 76.19,-333.38"/>
</g>
<!-- Node4 -->
<g id="node4" class="node">
<title>Node4</title>
<g id="a_node4"><a xlink:href="class_ogre_1_1_particle_emitter.html" target="_top" xlink:title="Abstract class defining the interface to be implemented by particle emitters.">
<polygon fill="none" stroke="black" points="162.5,-349 162.5,-368 268.5,-368 268.5,-349 162.5,-349"/>
<text text-anchor="middle" x="215.5" y="-356" font-family="Helvetica,sans-Serif" font-size="10.00">Ogre::ParticleEmitter</text>
</a>
</g>
</g>
<!-- Node1&#45;&gt;Node4 -->
<g id="edge3" class="edge">
<title>Node1&#45;&gt;Node4</title>
<path fill="none" stroke="midnightblue" d="M104.25,-332.4C126.81,-337.74 153.06,-343.95 174.29,-348.98"/>
<polygon fill="midnightblue" stroke="midnightblue" points="105.04,-328.99 94.5,-330.09 103.43,-335.8 105.04,-328.99"/>
</g>
<!-- Node5 -->
<g id="node5" class="node">
<title>Node5</title>
<g id="a_node5"><a xlink:href="class_ogre_1_1_particle_system.html" target="_top" xlink:title="Class defining particle system based special effects.">
<polygon fill="none" stroke="black" points="161.5,-311 161.5,-330 269.5,-330 269.5,-311 161.5,-311"/>
<text text-anchor="middle" x="215.5" y="-318" font-family="Helvetica,sans-Serif" font-size="10.00">Ogre::ParticleSystem</text>
</a>
</g>
</g>
<!-- Node1&#45;&gt;Node5 -->
<g id="edge4" class="edge">
<title>Node1&#45;&gt;Node5</title>
<path fill="none" stroke="midnightblue" d="M116.24,-320.5C131.11,-320.5 146.85,-320.5 161.28,-320.5"/>
<polygon fill="midnightblue" stroke="midnightblue" points="116.11,-317 106.11,-320.5 116.11,-324 116.11,-317"/>
</g>
<!-- Node6 -->
<g id="node6" class="node">
<title>Node6</title>
<g id="a_node6"><a xlink:href="class_ogre_1_1_particle_system_renderer.html" target="_top" xlink:title="Abstract class defining the interface required to be implemented by classes which provide rendering c...">
<polygon fill="none" stroke="black" points="142,-273 142,-292 289,-292 289,-273 142,-273"/>
<text text-anchor="middle" x="215.5" y="-280" font-family="Helvetica,sans-Serif" font-size="10.00">Ogre::ParticleSystemRenderer</text>
</a>
</g>
</g>
<!-- Node1&#45;&gt;Node6 -->
<g id="edge5" class="edge">
<title>Node1&#45;&gt;Node6</title>
<path fill="none" stroke="midnightblue" d="M104.25,-308.6C126.81,-303.26 153.06,-297.05 174.29,-292.02"/>
<polygon fill="midnightblue" stroke="midnightblue" points="103.43,-305.2 94.5,-310.91 105.04,-312.01 103.43,-305.2"/>
</g>
<!-- Node8 -->
<g id="node8" class="node">
<title>Node8</title>
<g id="a_node8"><a xlink:href="class_ogre_1_1_resource.html" target="_top" xlink:title="Abstract class representing a loadable resource (e.g.">
<polygon fill="none" stroke="black" points="174,-235 174,-254 257,-254 257,-235 174,-235"/>
<text text-anchor="middle" x="215.5" y="-242" font-family="Helvetica,sans-Serif" font-size="10.00">Ogre::Resource</text>
</a>
</g>
</g>
<!-- Node1&#45;&gt;Node8 -->
<g id="edge7" class="edge">
<title>Node1&#45;&gt;Node8</title>
<path fill="none" stroke="midnightblue" d="M74.26,-304.69C91.44,-291.97 117.18,-274.45 142,-263.5 152,-259.09 163.24,-255.53 173.84,-252.73"/>
<polygon fill="midnightblue" stroke="midnightblue" points="71.97,-302.03 66.1,-310.85 76.19,-307.62 71.97,-302.03"/>
</g>
<!-- Node38 -->
<g id="node38" class="node">
<title>Node38</title>
<g id="a_node38"><a xlink:href="class_ogre_1_1v1_1_1_overlay_element.html" target="_top" xlink:title="Abstract definition of a 2D element to be displayed in an Overlay.">
<polygon fill="none" stroke="black" points="153,-50 153,-69 278,-69 278,-50 153,-50"/>
<text text-anchor="middle" x="215.5" y="-57" font-family="Helvetica,sans-Serif" font-size="10.00">Ogre::v1::OverlayElement</text>
</a>
</g>
</g>
<!-- Node1&#45;&gt;Node38 -->
<g id="edge37" class="edge">
<title>Node1&#45;&gt;Node38</title>
<path fill="none" stroke="midnightblue" d="M65.24,-302.21C96.69,-251.07 184.8,-107.79 208.54,-69.19"/>
<polygon fill="midnightblue" stroke="midnightblue" points="62.16,-300.55 59.9,-310.9 68.12,-304.22 62.16,-300.55"/>
</g>
<!-- Node7 -->
<g id="node7" class="node">
<title>Node7</title>
<g id="a_node7"><a xlink:href="class_ogre_1_1v1_1_1_billboard_particle_renderer.html" target="_top" xlink:title="Specialisation of ParticleSystemRenderer to render particles using a BillboardSet.">
<polygon fill="none" stroke="black" points="326.5,-387.5 326.5,-417.5 454.5,-417.5 454.5,-387.5 326.5,-387.5"/>
<text text-anchor="start" x="334.5" y="-405.5" font-family="Helvetica,sans-Serif" font-size="10.00">Ogre::v1::BillboardParticle</text>
<text text-anchor="middle" x="390.5" y="-394.5" font-family="Helvetica,sans-Serif" font-size="10.00">Renderer</text>
</a>
</g>
</g>
<!-- Node6&#45;&gt;Node7 -->
<g id="edge6" class="edge">
<title>Node6&#45;&gt;Node7</title>
<path fill="none" stroke="midnightblue" d="M282.45,-296.82C284.74,-298.24 286.94,-299.79 289,-301.5 317.77,-325.36 297.63,-352.05 325,-377.5 329.13,-381.34 333.92,-384.62 338.99,-387.4"/>
<polygon fill="midnightblue" stroke="midnightblue" points="283.64,-293.5 273.15,-292.01 280.43,-299.71 283.64,-293.5"/>
</g>
<!-- Node9 -->
<g id="node9" class="node">
<title>Node9</title>
<g id="a_node9"><a xlink:href="class_ogre_1_1_font.html" target="_top" xlink:title="Class representing a font in the system.">
<polygon fill="none" stroke="black" points="359.5,-349 359.5,-368 421.5,-368 421.5,-349 359.5,-349"/>
<text text-anchor="middle" x="390.5" y="-356" font-family="Helvetica,sans-Serif" font-size="10.00">Ogre::Font</text>
</a>
</g>
</g>
<!-- Node8&#45;&gt;Node9 -->
<g id="edge8" class="edge">
<title>Node8&#45;&gt;Node9</title>
<path fill="none" stroke="midnightblue" d="M266.86,-251.56C274.86,-254.34 282.59,-258.19 289,-263.5 317.77,-287.36 296.59,-315.21 325,-339.5 334.58,-347.69 347.56,-352.36 359.36,-355.01"/>
<polygon fill="midnightblue" stroke="midnightblue" points="267.63,-248.14 257.05,-248.68 265.65,-254.86 267.63,-248.14"/>
</g>
<!-- Node10 -->
<g id="node10" class="node">
<title>Node10</title>
<g id="a_node10"><a xlink:href="class_ogre_1_1_gpu_program.html" target="_top" xlink:title="Defines a program which runs on the GPU such as a vertex or fragment program.">
<polygon fill="none" stroke="black" points="342,-311 342,-330 439,-330 439,-311 342,-311"/>
<text text-anchor="middle" x="390.5" y="-318" font-family="Helvetica,sans-Serif" font-size="10.00">Ogre::GpuProgram</text>
</a>
</g>
</g>
<!-- Node8&#45;&gt;Node10 -->
<g id="edge9" class="edge">
<title>Node8&#45;&gt;Node10</title>
<path fill="none" stroke="midnightblue" d="M266.93,-253.81C274.61,-256.32 282.23,-259.49 289,-263.5 309.02,-275.35 305.16,-289.35 325,-301.5 331.27,-305.34 338.36,-308.44 345.49,-310.93"/>
<polygon fill="midnightblue" stroke="midnightblue" points="267.79,-250.41 257.21,-250.97 265.83,-257.13 267.79,-250.41"/>
</g>
<!-- Node20 -->
<g id="node20" class="node">
<title>Node20</title>
<g id="a_node20"><a xlink:href="class_ogre_1_1_material.html" target="_top" xlink:title="Class encapsulates rendering properties of an object.">
<polygon fill="none" stroke="black" points="352,-273 352,-292 429,-292 429,-273 352,-273"/>
<text text-anchor="middle" x="390.5" y="-280" font-family="Helvetica,sans-Serif" font-size="10.00">Ogre::Material</text>
</a>
</g>
</g>
<!-- Node8&#45;&gt;Node20 -->
<g id="edge19" class="edge">
<title>Node8&#45;&gt;Node20</title>
<path fill="none" stroke="midnightblue" d="M267.14,-255.62C294.24,-261.57 327.04,-268.78 351.86,-274.23"/>
<polygon fill="midnightblue" stroke="midnightblue" points="267.58,-252.14 257.06,-253.41 266.08,-258.97 267.58,-252.14"/>
</g>
<!-- Node21 -->
<g id="node21" class="node">
<title>Node21</title>
<g id="a_node21"><a xlink:href="class_ogre_1_1_mesh.html" target="_top" xlink:title="Resource holding data about 3D mesh.">
<polygon fill="none" stroke="black" points="357.5,-235 357.5,-254 423.5,-254 423.5,-235 357.5,-235"/>
<text text-anchor="middle" x="390.5" y="-242" font-family="Helvetica,sans-Serif" font-size="10.00">Ogre::Mesh</text>
</a>
</g>
</g>
<!-- Node8&#45;&gt;Node21 -->
<g id="edge20" class="edge">
<title>Node8&#45;&gt;Node21</title>
<path fill="none" stroke="midnightblue" d="M267.06,-244.5C296.2,-244.5 331.95,-244.5 357.28,-244.5"/>
<polygon fill="midnightblue" stroke="midnightblue" points="267.06,-241 257.06,-244.5 267.06,-248 267.06,-241"/>
</g>
<!-- Node22 -->
<g id="node22" class="node">
<title>Node22</title>
<g id="a_node22"><a xlink:href="class_ogre_1_1_texture.html" target="_top" xlink:title="Abstract class representing a Texture resource.">
<polygon fill="none" stroke="black" points="353.5,-197 353.5,-216 427.5,-216 427.5,-197 353.5,-197"/>
<text text-anchor="middle" x="390.5" y="-204" font-family="Helvetica,sans-Serif" font-size="10.00">Ogre::Texture</text>
</a>
</g>
</g>
<!-- Node8&#45;&gt;Node22 -->
<g id="edge21" class="edge">
<title>Node8&#45;&gt;Node22</title>
<path fill="none" stroke="midnightblue" d="M266.95,-233.42C294.62,-227.34 328.27,-219.95 353.31,-214.45"/>
<polygon fill="midnightblue" stroke="midnightblue" points="266.08,-230.03 257.06,-235.59 267.58,-236.86 266.08,-230.03"/>
</g>
<!-- Node34 -->
<g id="node34" class="node">
<title>Node34</title>
<g id="a_node34"><a xlink:href="class_ogre_1_1v1_1_1_mesh.html" target="_top" xlink:title="Resource holding data about 3D mesh.">
<polygon fill="none" stroke="black" points="350,-154 350,-173 431,-173 431,-154 350,-154"/>
<text text-anchor="middle" x="390.5" y="-161" font-family="Helvetica,sans-Serif" font-size="10.00">Ogre::v1::Mesh</text>
</a>
</g>
</g>
<!-- Node8&#45;&gt;Node34 -->
<g id="edge33" class="edge">
<title>Node8&#45;&gt;Node34</title>
<path fill="none" stroke="midnightblue" d="M241.99,-229.93C263.69,-217.81 295.89,-200.5 325,-187.5 336.78,-182.24 350.1,-177.15 361.57,-173.01"/>
<polygon fill="midnightblue" stroke="midnightblue" points="240.08,-226.98 233.09,-234.94 243.52,-233.08 240.08,-226.98"/>
</g>
<!-- Node36 -->
<g id="node36" class="node">
<title>Node36</title>
<g id="a_node36"><a xlink:href="class_ogre_1_1v1_1_1_skeleton.html" target="_top" xlink:title="A collection of OldBone objects used to animate a skinned mesh.">
<polygon fill="none" stroke="black" points="343,-107 343,-126 438,-126 438,-107 343,-107"/>
<text text-anchor="middle" x="390.5" y="-114" font-family="Helvetica,sans-Serif" font-size="10.00">Ogre::v1::Skeleton</text>
</a>
</g>
</g>
<!-- Node8&#45;&gt;Node36 -->
<g id="edge35" class="edge">
<title>Node8&#45;&gt;Node36</title>
<path fill="none" stroke="midnightblue" d="M231.64,-227.37C251.41,-205.81 287.88,-168.67 325,-144.5 336.46,-137.04 350.24,-130.75 362.11,-126.03"/>
<polygon fill="midnightblue" stroke="midnightblue" points="229.02,-225.05 224.91,-234.81 234.22,-229.74 229.02,-225.05"/>
</g>
<!-- Node11 -->
<g id="node11" class="node">
<title>Node11</title>
<g id="a_node11"><a xlink:href="class_ogre_1_1_d3_d9_gpu_program.html" target="_top" xlink:title="Direct3D implementation of a few things common to low&#45;level vertex &amp; fragment programs.">
<polygon fill="none" stroke="black" points="506.5,-551 506.5,-570 627.5,-570 627.5,-551 506.5,-551"/>
<text text-anchor="middle" x="567" y="-558" font-family="Helvetica,sans-Serif" font-size="10.00">Ogre::D3D9GpuProgram</text>
</a>
</g>
</g>
<!-- Node10&#45;&gt;Node11 -->
<g id="edge10" class="edge">
<title>Node10&#45;&gt;Node11</title>
<path fill="none" stroke="midnightblue" d="M448.1,-333.38C450.94,-335.16 453.6,-337.19 456,-339.5 492.15,-374.3 470.17,-401.32 492,-446.5 511.92,-487.72 544.14,-531.93 558.59,-550.93"/>
<polygon fill="midnightblue" stroke="midnightblue" points="449.63,-330.23 439.14,-328.73 446.4,-336.44 449.63,-330.23"/>
</g>
<!-- Node14 -->
<g id="node14" class="node">
<title>Node14</title>
<g id="a_node14"><a xlink:href="class_ogre_1_1_high_level_gpu_program.html" target="_top" xlink:title="Abstract base class representing a high&#45;level program (a vertex or fragment program).">
<polygon fill="none" stroke="black" points="496.5,-418 496.5,-437 637.5,-437 637.5,-418 496.5,-418"/>
<text text-anchor="middle" x="567" y="-425" font-family="Helvetica,sans-Serif" font-size="10.00">Ogre::HighLevelGpuProgram</text>
</a>
</g>
</g>
<!-- Node10&#45;&gt;Node14 -->
<g id="edge13" class="edge">
<title>Node10&#45;&gt;Node14</title>
<path fill="none" stroke="midnightblue" d="M442.4,-333.44C447.09,-335.24 451.7,-337.26 456,-339.5 497.64,-361.21 538.69,-399.85 556.62,-417.82"/>
<polygon fill="midnightblue" stroke="midnightblue" points="443.29,-330.04 432.69,-330.03 440.97,-336.65 443.29,-330.04"/>
</g>
<!-- Node12 -->
<g id="node12" class="node">
<title>Node12</title>
<g id="a_node12"><a xlink:href="class_ogre_1_1_d3_d9_gpu_fragment_program.html" target="_top" xlink:title="Direct3D implementation of low&#45;level fragment programs.">
<polygon fill="none" stroke="black" points="678,-589 678,-608 840,-608 840,-589 678,-589"/>
<text text-anchor="middle" x="759" y="-596" font-family="Helvetica,sans-Serif" font-size="10.00">Ogre::D3D9GpuFragmentProgram</text>
</a>
</g>
</g>
<!-- Node11&#45;&gt;Node12 -->
<g id="edge11" class="edge">
<title>Node11&#45;&gt;Node12</title>
<path fill="none" stroke="midnightblue" d="M626.05,-572.11C653.07,-577.51 684.82,-583.86 710.4,-588.98"/>
<polygon fill="midnightblue" stroke="midnightblue" points="626.44,-568.62 615.95,-570.09 625.06,-575.48 626.44,-568.62"/>
</g>
<!-- Node13 -->
<g id="node13" class="node">
<title>Node13</title>
<g id="a_node13"><a xlink:href="class_ogre_1_1_d3_d9_gpu_vertex_program.html" target="_top" xlink:title="Direct3D implementation of low&#45;level vertex programs.">
<polygon fill="none" stroke="black" points="684.5,-551 684.5,-570 833.5,-570 833.5,-551 684.5,-551"/>
<text text-anchor="middle" x="759" y="-558" font-family="Helvetica,sans-Serif" font-size="10.00">Ogre::D3D9GpuVertexProgram</text>
</a>
</g>
</g>
<!-- Node11&#45;&gt;Node13 -->
<g id="edge12" class="edge">
<title>Node11&#45;&gt;Node13</title>
<path fill="none" stroke="midnightblue" d="M637.88,-560.5C652.98,-560.5 669,-560.5 684.24,-560.5"/>
<polygon fill="midnightblue" stroke="midnightblue" points="637.6,-557 627.6,-560.5 637.6,-564 637.6,-557"/>
</g>
<!-- Node15 -->
<g id="node15" class="node">
<title>Node15</title>
<g id="a_node15"><a xlink:href="class_ogre_1_1_d3_d11_h_l_s_l_program.html" target="_top" xlink:title="Specialization of HighLevelGpuProgram to provide support for D3D11 High&#45;Level Shader Language (HLSL).">
<polygon fill="none" stroke="black" points="692,-513 692,-532 826,-532 826,-513 692,-513"/>
<text text-anchor="middle" x="759" y="-520" font-family="Helvetica,sans-Serif" font-size="10.00">Ogre::D3D11HLSLProgram</text>
</a>
</g>
</g>
<!-- Node14&#45;&gt;Node15 -->
<g id="edge14" class="edge">
<title>Node14&#45;&gt;Node15</title>
<path fill="none" stroke="midnightblue" d="M586.8,-443.78C607.71,-461.06 643.15,-487.98 678,-503.5 686.61,-507.33 696.09,-510.45 705.43,-512.97"/>
<polygon fill="midnightblue" stroke="midnightblue" points="588.93,-441 579.02,-437.24 584.42,-446.36 588.93,-441"/>
</g>
<!-- Node16 -->
<g id="node16" class="node">
<title>Node16</title>
<g id="a_node16"><a xlink:href="class_ogre_1_1_d3_d9_h_l_s_l_program.html" target="_top" xlink:title="Specialisation of HighLevelGpuProgram to provide support for D3D9 High&#45;Level Shader Language (HLSL).">
<polygon fill="none" stroke="black" points="694.5,-475 694.5,-494 823.5,-494 823.5,-475 694.5,-475"/>
<text text-anchor="middle" x="759" y="-482" font-family="Helvetica,sans-Serif" font-size="10.00">Ogre::D3D9HLSLProgram</text>
</a>
</g>
</g>
<!-- Node14&#45;&gt;Node16 -->
<g id="edge15" class="edge">
<title>Node14&#45;&gt;Node16</title>
<path fill="none" stroke="midnightblue" d="M603.21,-440.66C624.65,-448.43 652.71,-458.15 678,-465.5 689.65,-468.89 702.39,-472.12 714.2,-474.93"/>
<polygon fill="midnightblue" stroke="midnightblue" points="604.14,-437.28 593.55,-437.14 601.74,-443.85 604.14,-437.28"/>
</g>
<!-- Node17 -->
<g id="node17" class="node">
<title>Node17</title>
<g id="a_node17"><a xlink:href="class_ogre_1_1_g_l_s_l_shader.html" target="_top" xlink:title="Specialisation of HighLevelGpuProgram to encapsulate shader objects obtained from compiled shaders wr...">
<polygon fill="none" stroke="black" points="709.5,-437 709.5,-456 808.5,-456 808.5,-437 709.5,-437"/>
<text text-anchor="middle" x="759" y="-444" font-family="Helvetica,sans-Serif" font-size="10.00">Ogre::GLSLShader</text>
</a>
</g>
</g>
<!-- Node14&#45;&gt;Node17 -->
<g id="edge16" class="edge">
<title>Node14&#45;&gt;Node17</title>
<path fill="none" stroke="midnightblue" d="M647.84,-435.48C668.76,-437.58 690.69,-439.77 709.42,-441.64"/>
<polygon fill="midnightblue" stroke="midnightblue" points="647.97,-431.98 637.67,-434.47 647.27,-438.94 647.97,-431.98"/>
</g>
<!-- Node18 -->
<g id="node18" class="node">
<title>Node18</title>
<g id="a_node18"><a xlink:href="class_ogre_1_1_metal_program.html" target="_top" xlink:title="Specialisation of HighLevelGpuProgram to provide support for Metal Shader Language.">
<polygon fill="none" stroke="black" points="707.5,-399 707.5,-418 810.5,-418 810.5,-399 707.5,-399"/>
<text text-anchor="middle" x="759" y="-406" font-family="Helvetica,sans-Serif" font-size="10.00">Ogre::MetalProgram</text>
</a>
</g>
</g>
<!-- Node14&#45;&gt;Node18 -->
<g id="edge17" class="edge">
<title>Node14&#45;&gt;Node18</title>
<path fill="none" stroke="midnightblue" d="M647.8,-419.52C667.97,-417.5 689.09,-415.39 707.38,-413.56"/>
<polygon fill="midnightblue" stroke="midnightblue" points="647.27,-416.06 637.67,-420.53 647.97,-423.02 647.27,-416.06"/>
</g>
<!-- Node19 -->
<g id="node19" class="node">
<title>Node19</title>
<g id="a_node19"><a xlink:href="class_ogre_1_1_unified_high_level_gpu_program.html" target="_top" xlink:title="Specialisation of HighLevelGpuProgram which just delegates its implementation to one other high level...">
<polygon fill="none" stroke="black" points="692,-349.5 692,-379.5 826,-379.5 826,-349.5 692,-349.5"/>
<text text-anchor="start" x="700" y="-367.5" font-family="Helvetica,sans-Serif" font-size="10.00">Ogre::UnifiedHighLevelGpu</text>
<text text-anchor="middle" x="759" y="-356.5" font-family="Helvetica,sans-Serif" font-size="10.00">Program</text>
</a>
</g>
</g>
<!-- Node14&#45;&gt;Node19 -->
<g id="edge18" class="edge">
<title>Node14&#45;&gt;Node19</title>
<path fill="none" stroke="midnightblue" d="M604.69,-414.52C626.03,-407.05 653.48,-397.57 678,-389.5 687.95,-386.23 698.63,-382.82 708.85,-379.61"/>
<polygon fill="midnightblue" stroke="midnightblue" points="603.32,-411.29 595.05,-417.91 605.64,-417.89 603.32,-411.29"/>
</g>
<!-- Node23 -->
<g id="node23" class="node">
<title>Node23</title>
<g id="a_node23"><a xlink:href="class_ogre_1_1_d3_d11_texture.html" target="_top" xlink:title=" ">
<polygon fill="none" stroke="black" points="515,-292 515,-311 619,-311 619,-292 515,-292"/>
<text text-anchor="middle" x="567" y="-299" font-family="Helvetica,sans-Serif" font-size="10.00">Ogre::D3D11Texture</text>
</a>
</g>
</g>
<!-- Node22&#45;&gt;Node23 -->
<g id="edge22" class="edge">
<title>Node22&#45;&gt;Node23</title>
<path fill="none" stroke="midnightblue" d="M437.5,-215.55C444.09,-218.09 450.49,-221.34 456,-225.5 479.91,-243.56 467.78,-264.86 492,-282.5 498.76,-287.42 506.67,-291.07 514.76,-293.77"/>
<polygon fill="midnightblue" stroke="midnightblue" points="438.38,-212.15 427.78,-212.31 436.16,-218.79 438.38,-212.15"/>
</g>
<!-- Node26 -->
<g id="node26" class="node">
<title>Node26</title>
<g id="a_node26"><a xlink:href="class_ogre_1_1_d3_d9_texture.html" target="_top" xlink:title=" ">
<polygon fill="none" stroke="black" points="518,-254 518,-273 616,-273 616,-254 518,-254"/>
<text text-anchor="middle" x="567" y="-261" font-family="Helvetica,sans-Serif" font-size="10.00">Ogre::D3D9Texture</text>
</a>
</g>
</g>
<!-- Node22&#45;&gt;Node26 -->
<g id="edge25" class="edge">
<title>Node22&#45;&gt;Node26</title>
<path fill="none" stroke="midnightblue" d="M437.53,-218.83C443.81,-220.87 450.11,-223.11 456,-225.5 472.76,-232.31 475.12,-237.98 492,-244.5 501.4,-248.13 511.75,-251.28 521.64,-253.91"/>
<polygon fill="midnightblue" stroke="midnightblue" points="438.35,-215.42 427.76,-215.81 436.27,-222.11 438.35,-215.42"/>
</g>
<!-- Node27 -->
<g id="node27" class="node">
<title>Node27</title>
<g id="a_node27"><a xlink:href="class_ogre_1_1_g_l3_plus_texture.html" target="_top" xlink:title=" ">
<polygon fill="none" stroke="black" points="510.5,-216 510.5,-235 623.5,-235 623.5,-216 510.5,-216"/>
<text text-anchor="middle" x="567" y="-223" font-family="Helvetica,sans-Serif" font-size="10.00">Ogre::GL3PlusTexture</text>
</a>
</g>
</g>
<!-- Node22&#45;&gt;Node27 -->
<g id="edge26" class="edge">
<title>Node22&#45;&gt;Node27</title>
<path fill="none" stroke="midnightblue" d="M437.85,-211.55C460.1,-213.97 486.94,-216.89 510.3,-219.44"/>
<polygon fill="midnightblue" stroke="midnightblue" points="437.98,-208.04 427.66,-210.44 437.22,-215 437.98,-208.04"/>
</g>
<!-- Node30 -->
<g id="node30" class="node">
<title>Node30</title>
<g id="a_node30"><a xlink:href="class_ogre_1_1_metal_texture.html" target="_top" xlink:title=" ">
<polygon fill="none" stroke="black" points="518,-178 518,-197 616,-197 616,-178 518,-178"/>
<text text-anchor="middle" x="567" y="-185" font-family="Helvetica,sans-Serif" font-size="10.00">Ogre::MetalTexture</text>
</a>
</g>
</g>
<!-- Node22&#45;&gt;Node30 -->
<g id="edge29" class="edge">
<title>Node22&#45;&gt;Node30</title>
<path fill="none" stroke="midnightblue" d="M437.88,-201.45C462.6,-198.76 492.99,-195.45 517.97,-192.73"/>
<polygon fill="midnightblue" stroke="midnightblue" points="437.22,-198 427.66,-202.56 437.98,-204.96 437.22,-198"/>
</g>
<!-- Node33 -->
<g id="node33" class="node">
<title>Node33</title>
<g id="a_node33"><a xlink:href="class_ogre_1_1_n_u_l_l_texture.html" target="_top" xlink:title=" ">
<polygon fill="none" stroke="black" points="516.5,-140 516.5,-159 617.5,-159 617.5,-140 516.5,-140"/>
<text text-anchor="middle" x="567" y="-147" font-family="Helvetica,sans-Serif" font-size="10.00">Ogre::NULLTexture</text>
</a>
</g>
</g>
<!-- Node22&#45;&gt;Node33 -->
<g id="edge32" class="edge">
<title>Node22&#45;&gt;Node33</title>
<path fill="none" stroke="midnightblue" d="M427.07,-193.37C436.48,-189.87 446.63,-186.06 456,-182.5 472.05,-176.4 475.66,-173.76 492,-168.5 502.61,-165.09 514.22,-161.87 525.04,-159.09"/>
<polygon fill="midnightblue" stroke="midnightblue" points="425.74,-190.13 417.58,-196.89 428.17,-196.69 425.74,-190.13"/>
</g>
<!-- Node24 -->
<g id="node24" class="node">
<title>Node24</title>
<g id="a_node24"><a xlink:href="class_ogre_1_1_d3_d11_depth_texture.html" target="_top" xlink:title=" ">
<polygon fill="none" stroke="black" points="694.5,-311 694.5,-330 823.5,-330 823.5,-311 694.5,-311"/>
<text text-anchor="middle" x="759" y="-318" font-family="Helvetica,sans-Serif" font-size="10.00">Ogre::D3D11DepthTexture</text>
</a>
</g>
</g>
<!-- Node23&#45;&gt;Node24 -->
<g id="edge23" class="edge">
<title>Node23&#45;&gt;Node24</title>
<path fill="none" stroke="midnightblue" d="M629.15,-307.61C649.92,-309.69 673.18,-312.02 694.17,-314.12"/>
<polygon fill="midnightblue" stroke="midnightblue" points="629.47,-304.13 619.17,-306.62 628.77,-311.09 629.47,-304.13"/>
</g>
<!-- Node25 -->
<g id="node25" class="node">
<title>Node25</title>
<g id="a_node25"><a xlink:href="class_ogre_1_1_d3_d11_null_texture.html" target="_top" xlink:title=" ">
<polygon fill="none" stroke="black" points="698.5,-273 698.5,-292 819.5,-292 819.5,-273 698.5,-273"/>
<text text-anchor="middle" x="759" y="-280" font-family="Helvetica,sans-Serif" font-size="10.00">Ogre::D3D11NullTexture</text>
</a>
</g>
</g>
<!-- Node23&#45;&gt;Node25 -->
<g id="edge24" class="edge">
<title>Node23&#45;&gt;Node25</title>
<path fill="none" stroke="midnightblue" d="M629.13,-295.39C651.29,-293.17 676.28,-290.67 698.32,-288.47"/>
<polygon fill="midnightblue" stroke="midnightblue" points="628.77,-291.91 619.17,-296.38 629.47,-298.87 628.77,-291.91"/>
</g>
<!-- Node28 -->
<g id="node28" class="node">
<title>Node28</title>
<g id="a_node28"><a xlink:href="class_ogre_1_1_g_l3_plus_depth_texture.html" target="_top" xlink:title=" ">
<polygon fill="none" stroke="black" points="690,-235 690,-254 828,-254 828,-235 690,-235"/>
<text text-anchor="middle" x="759" y="-242" font-family="Helvetica,sans-Serif" font-size="10.00">Ogre::GL3PlusDepthTexture</text>
</a>
</g>
</g>
<!-- Node27&#45;&gt;Node28 -->
<g id="edge27" class="edge">
<title>Node27&#45;&gt;Node28</title>
<path fill="none" stroke="midnightblue" d="M633.88,-232.09C651.96,-233.9 671.6,-235.86 689.82,-237.68"/>
<polygon fill="midnightblue" stroke="midnightblue" points="634.02,-228.58 623.72,-231.07 633.32,-235.55 634.02,-228.58"/>
</g>
<!-- Node29 -->
<g id="node29" class="node">
<title>Node29</title>
<g id="a_node29"><a xlink:href="class_ogre_1_1_g_l3_plus_null_texture.html" target="_top" xlink:title=" ">
<polygon fill="none" stroke="black" points="694,-197 694,-216 824,-216 824,-197 694,-197"/>
<text text-anchor="middle" x="759" y="-204" font-family="Helvetica,sans-Serif" font-size="10.00">Ogre::GL3PlusNullTexture</text>
</a>
</g>
</g>
<!-- Node27&#45;&gt;Node29 -->
<g id="edge28" class="edge">
<title>Node27&#45;&gt;Node29</title>
<path fill="none" stroke="midnightblue" d="M633.73,-218.93C653.22,-216.98 674.53,-214.85 693.92,-212.91"/>
<polygon fill="midnightblue" stroke="midnightblue" points="633.32,-215.45 623.72,-219.93 634.02,-222.42 633.32,-215.45"/>
</g>
<!-- Node31 -->
<g id="node31" class="node">
<title>Node31</title>
<g id="a_node31"><a xlink:href="class_ogre_1_1_metal_depth_texture.html" target="_top" xlink:title=" ">
<polygon fill="none" stroke="black" points="697,-159 697,-178 821,-178 821,-159 697,-159"/>
<text text-anchor="middle" x="759" y="-166" font-family="Helvetica,sans-Serif" font-size="10.00">Ogre::MetalDepthTexture</text>
</a>
</g>
</g>
<!-- Node30&#45;&gt;Node31 -->
<g id="edge30" class="edge">
<title>Node30&#45;&gt;Node31</title>
<path fill="none" stroke="midnightblue" d="M626.43,-181.66C648.71,-179.43 674.15,-176.88 696.69,-174.63"/>
<polygon fill="midnightblue" stroke="midnightblue" points="626.04,-178.18 616.44,-182.66 626.74,-185.14 626.04,-178.18"/>
</g>
<!-- Node32 -->
<g id="node32" class="node">
<title>Node32</title>
<g id="a_node32"><a xlink:href="class_ogre_1_1_metal_null_texture.html" target="_top" xlink:title=" ">
<polygon fill="none" stroke="black" points="701,-121 701,-140 817,-140 817,-121 701,-121"/>
<text text-anchor="middle" x="759" y="-128" font-family="Helvetica,sans-Serif" font-size="10.00">Ogre::MetalNullTexture</text>
</a>
</g>
</g>
<!-- Node30&#45;&gt;Node32 -->
<g id="edge31" class="edge">
<title>Node30&#45;&gt;Node32</title>
<path fill="none" stroke="midnightblue" d="M622.19,-175.16C628.94,-173.16 635.68,-170.94 642,-168.5 658.88,-161.98 661.06,-155.86 678,-149.5 687.89,-145.78 698.75,-142.63 709.18,-140.02"/>
<polygon fill="midnightblue" stroke="midnightblue" points="621.04,-171.84 612.36,-177.91 622.93,-178.58 621.04,-171.84"/>
</g>
<!-- Node35 -->
<g id="node35" class="node">
<title>Node35</title>
<g id="a_node35"><a xlink:href="class_ogre_1_1v1_1_1_patch_mesh.html" target="_top" xlink:title="Patch specialisation of Mesh.">
<polygon fill="none" stroke="black" points="513.5,-102 513.5,-121 620.5,-121 620.5,-102 513.5,-102"/>
<text text-anchor="middle" x="567" y="-109" font-family="Helvetica,sans-Serif" font-size="10.00">Ogre::v1::PatchMesh</text>
</a>
</g>
</g>
<!-- Node34&#45;&gt;Node35 -->
<g id="edge34" class="edge">
<title>Node34&#45;&gt;Node35</title>
<path fill="none" stroke="midnightblue" d="M428.77,-150.61C447.63,-144.26 470.93,-136.66 492,-130.5 503.2,-127.23 515.45,-123.96 526.7,-121.08"/>
<polygon fill="midnightblue" stroke="midnightblue" points="427.42,-147.37 419.07,-153.9 429.67,-154 427.42,-147.37"/>
</g>
<!-- Node37 -->
<g id="node37" class="node">
<title>Node37</title>
<g id="a_node37"><a xlink:href="class_ogre_1_1v1_1_1_old_skeleton_instance.html" target="_top" xlink:title="A OldSkeletonInstance is a single instance of a Skeleton used by a world object.">
<polygon fill="none" stroke="black" points="493,-64 493,-83 641,-83 641,-64 493,-64"/>
<text text-anchor="middle" x="567" y="-71" font-family="Helvetica,sans-Serif" font-size="10.00">Ogre::v1::OldSkeletonInstance</text>
</a>
</g>
</g>
<!-- Node36&#45;&gt;Node37 -->
<g id="edge36" class="edge">
<title>Node36&#45;&gt;Node37</title>
<path fill="none" stroke="midnightblue" d="M440.06,-104.53C467.63,-97.74 501.65,-89.36 527.38,-83.02"/>
<polygon fill="midnightblue" stroke="midnightblue" points="439.1,-101.17 430.23,-106.96 440.77,-107.96 439.1,-101.17"/>
</g>
<!-- Node39 -->
<g id="node39" class="node">
<title>Node39</title>
<g id="a_node39"><a xlink:href="class_ogre_1_1v1_1_1_overlay_container.html" target="_top" xlink:title="A 2D element which contains other OverlayElement instances.">
<polygon fill="none" stroke="black" points="325,-50 325,-69 456,-69 456,-50 325,-50"/>
<text text-anchor="middle" x="390.5" y="-57" font-family="Helvetica,sans-Serif" font-size="10.00">Ogre::v1::OverlayContainer</text>
</a>
</g>
</g>
<!-- Node38&#45;&gt;Node39 -->
<g id="edge38" class="edge">
<title>Node38&#45;&gt;Node39</title>
<path fill="none" stroke="midnightblue" d="M288.82,-59.5C300.74,-59.5 313.03,-59.5 324.75,-59.5"/>
<polygon fill="midnightblue" stroke="midnightblue" points="288.47,-56 278.47,-59.5 288.47,-63 288.47,-56"/>
</g>
<!-- Node42 -->
<g id="node42" class="node">
<title>Node42</title>
<g id="a_node42"><a xlink:href="class_ogre_1_1v1_1_1_text_area_overlay_element.html" target="_top" xlink:title="This class implements an overlay element which contains simple unformatted text.">
<polygon fill="none" stroke="black" points="326,-0.5 326,-30.5 455,-30.5 455,-0.5 326,-0.5"/>
<text text-anchor="start" x="334" y="-18.5" font-family="Helvetica,sans-Serif" font-size="10.00">Ogre::v1::TextAreaOverlay</text>
<text text-anchor="middle" x="390.5" y="-7.5" font-family="Helvetica,sans-Serif" font-size="10.00">Element</text>
</a>
</g>
</g>
<!-- Node38&#45;&gt;Node42 -->
<g id="edge41" class="edge">
<title>Node38&#45;&gt;Node42</title>
<path fill="none" stroke="midnightblue" d="M263.78,-47.47C284.31,-42.25 308.56,-36.09 330.27,-30.57"/>
<polygon fill="midnightblue" stroke="midnightblue" points="262.87,-44.1 254.04,-49.95 264.59,-50.88 262.87,-44.1"/>
</g>
<!-- Node40 -->
<g id="node40" class="node">
<title>Node40</title>
<g id="a_node40"><a xlink:href="class_ogre_1_1v1_1_1_panel_overlay_element.html" target="_top" xlink:title="OverlayElement representing a flat, single&#45;material (or transparent) panel which can contain other el...">
<polygon fill="none" stroke="black" points="492,-26 492,-45 642,-45 642,-26 492,-26"/>
<text text-anchor="middle" x="567" y="-33" font-family="Helvetica,sans-Serif" font-size="10.00">Ogre::v1::PanelOverlayElement</text>
</a>
</g>
</g>
<!-- Node39&#45;&gt;Node40 -->
<g id="edge39" class="edge">
<title>Node39&#45;&gt;Node40</title>
<path fill="none" stroke="midnightblue" d="M466.48,-49.19C476.57,-47.8 486.89,-46.38 496.88,-45.01"/>
<polygon fill="midnightblue" stroke="midnightblue" points="465.91,-45.73 456.48,-50.56 466.86,-52.67 465.91,-45.73"/>
</g>
<!-- Node41 -->
<g id="node41" class="node">
<title>Node41</title>
<g id="a_node41"><a xlink:href="class_ogre_1_1v1_1_1_border_panel_overlay_element.html" target="_top" xlink:title="A specialisation of the PanelOverlayElement to provide a panel with a border.">
<polygon fill="none" stroke="black" points="687.5,-20.5 687.5,-50.5 830.5,-50.5 830.5,-20.5 687.5,-20.5"/>
<text text-anchor="start" x="695.5" y="-38.5" font-family="Helvetica,sans-Serif" font-size="10.00">Ogre::v1::BorderPanelOverlay</text>
<text text-anchor="middle" x="759" y="-27.5" font-family="Helvetica,sans-Serif" font-size="10.00">Element</text>
</a>
</g>
</g>
<!-- Node40&#45;&gt;Node41 -->
<g id="edge40" class="edge">
<title>Node40&#45;&gt;Node41</title>
<path fill="none" stroke="midnightblue" d="M652.22,-35.5C663.94,-35.5 675.88,-35.5 687.31,-35.5"/>
<polygon fill="midnightblue" stroke="midnightblue" points="652,-32 642,-35.5 652,-39 652,-32"/>
</g>
</g>
</svg>
