<?xml version="1.0" encoding="UTF-8" standalone="no"?>
<!DOCTYPE svg PUBLIC "-//W3C//DTD SVG 1.1//EN"
 "http://www.w3.org/Graphics/SVG/1.1/DTD/svg11.dtd">
<!-- Generated by graphviz version 2.42.3 ()
 -->
<!-- Title: Ogre::MovableObject Pages: 1 -->
<svg width="609pt" height="762pt"
 viewBox="0.00 0.00 609.00 762.00" xmlns="http://www.w3.org/2000/svg" xmlns:xlink="http://www.w3.org/1999/xlink">
<g id="graph0" class="graph" transform="scale(1 1) rotate(0) translate(4 758)">
<title>Ogre::MovableObject</title>
<!-- Node1 -->
<g id="node1" class="node">
<title>Node1</title>
<g id="a_node1"><a xlink:title="Abstract class defining a movable object in a scene.">
<polygon fill="#bfbfbf" stroke="black" points="147,-373.5 147,-392.5 254,-392.5 254,-373.5 147,-373.5"/>
<text text-anchor="middle" x="200.5" y="-380.5" font-family="Helvetica,sans-Serif" font-size="10.00">Ogre::MovableObject</text>
</a>
</g>
</g>
<!-- Node5 -->
<g id="node5" class="node">
<title>Node5</title>
<g id="a_node5"><a xlink:href="class_ogre_1_1_decal.html" target="_top" xlink:title=" ">
<polygon fill="none" stroke="black" points="327,-734.5 327,-753.5 394,-753.5 394,-734.5 327,-734.5"/>
<text text-anchor="middle" x="360.5" y="-741.5" font-family="Helvetica,sans-Serif" font-size="10.00">Ogre::Decal</text>
</a>
</g>
</g>
<!-- Node1&#45;&gt;Node5 -->
<g id="edge4" class="edge">
<title>Node1&#45;&gt;Node5</title>
<path fill="none" stroke="midnightblue" d="M204.01,-402.82C212.72,-468.57 243.68,-678.04 290,-725 299.66,-734.8 313.85,-739.68 326.9,-742.07"/>
<polygon fill="midnightblue" stroke="midnightblue" points="207.44,-402.06 202.68,-392.59 200.5,-402.96 207.44,-402.06"/>
</g>
<!-- Node6 -->
<g id="node6" class="node">
<title>Node6</title>
<g id="a_node6"><a xlink:href="class_ogre_1_1_frustum.html" target="_top" xlink:title="A frustum represents a pyramid, capped at the near and far end which is used to represent either a vi...">
<polygon fill="none" stroke="black" points="321.5,-696.5 321.5,-715.5 399.5,-715.5 399.5,-696.5 321.5,-696.5"/>
<text text-anchor="middle" x="360.5" y="-703.5" font-family="Helvetica,sans-Serif" font-size="10.00">Ogre::Frustum</text>
</a>
</g>
</g>
<!-- Node1&#45;&gt;Node6 -->
<g id="edge5" class="edge">
<title>Node1&#45;&gt;Node6</title>
<path fill="none" stroke="midnightblue" d="M201.07,-402.79C201.03,-456.6 208.59,-606.91 290,-687 298.38,-695.25 309.98,-700 321.3,-702.71"/>
<polygon fill="midnightblue" stroke="midnightblue" points="204.57,-402.6 201.18,-392.57 197.57,-402.53 204.57,-402.6"/>
</g>
<!-- Node8 -->
<g id="node8" class="node">
<title>Node8</title>
<g id="a_node8"><a xlink:href="class_ogre_1_1_internal_cubemap_probe.html" target="_top" xlink:title=" ">
<polygon fill="none" stroke="black" points="290,-658.5 290,-677.5 431,-677.5 431,-658.5 290,-658.5"/>
<text text-anchor="middle" x="360.5" y="-665.5" font-family="Helvetica,sans-Serif" font-size="10.00">Ogre::InternalCubemapProbe</text>
</a>
</g>
</g>
<!-- Node1&#45;&gt;Node8 -->
<g id="edge7" class="edge">
<title>Node1&#45;&gt;Node8</title>
<path fill="none" stroke="midnightblue" d="M202.04,-402.92C204.5,-452.18 217.87,-580.68 290,-649 294.09,-652.87 298.88,-655.97 304.02,-658.44"/>
<polygon fill="midnightblue" stroke="midnightblue" points="205.53,-402.52 201.64,-392.67 198.54,-402.8 205.53,-402.52"/>
</g>
<!-- Node9 -->
<g id="node9" class="node">
<title>Node9</title>
<g id="a_node9"><a xlink:href="class_ogre_1_1_item.html" target="_top" xlink:title="Defines an instance of a discrete, movable object based on a Mesh.">
<polygon fill="none" stroke="black" points="329.5,-620.5 329.5,-639.5 391.5,-639.5 391.5,-620.5 329.5,-620.5"/>
<text text-anchor="middle" x="360.5" y="-627.5" font-family="Helvetica,sans-Serif" font-size="10.00">Ogre::Item</text>
</a>
</g>
</g>
<!-- Node1&#45;&gt;Node9 -->
<g id="edge8" class="edge">
<title>Node1&#45;&gt;Node9</title>
<path fill="none" stroke="midnightblue" d="M203.33,-403.04C208.46,-447.37 227.05,-554.24 290,-611 300.68,-620.63 315.79,-625.45 329.2,-627.82"/>
<polygon fill="midnightblue" stroke="midnightblue" points="206.79,-402.55 202.27,-392.97 199.83,-403.28 206.79,-402.55"/>
</g>
<!-- Node10 -->
<g id="node10" class="node">
<title>Node10</title>
<g id="a_node10"><a xlink:href="class_ogre_1_1_light.html" target="_top" xlink:title="Representation of a dynamic light source in the scene.">
<polygon fill="none" stroke="black" points="328.5,-582.5 328.5,-601.5 392.5,-601.5 392.5,-582.5 328.5,-582.5"/>
<text text-anchor="middle" x="360.5" y="-589.5" font-family="Helvetica,sans-Serif" font-size="10.00">Ogre::Light</text>
</a>
</g>
</g>
<!-- Node1&#45;&gt;Node10 -->
<g id="edge9" class="edge">
<title>Node1&#45;&gt;Node10</title>
<path fill="none" stroke="midnightblue" d="M204.97,-402.56C212.86,-441.15 235.83,-527.29 290,-573 300.71,-582.03 315.35,-586.8 328.43,-589.3"/>
<polygon fill="midnightblue" stroke="midnightblue" points="208.38,-401.77 203.06,-392.61 201.51,-403.09 208.38,-401.77"/>
</g>
<!-- Node11 -->
<g id="node11" class="node">
<title>Node11</title>
<g id="a_node11"><a xlink:href="class_ogre_1_1_manual_object.html" target="_top" xlink:title=" ">
<polygon fill="none" stroke="black" points="309.5,-544.5 309.5,-563.5 411.5,-563.5 411.5,-544.5 309.5,-544.5"/>
<text text-anchor="middle" x="360.5" y="-551.5" font-family="Helvetica,sans-Serif" font-size="10.00">Ogre::ManualObject</text>
</a>
</g>
</g>
<!-- Node1&#45;&gt;Node11 -->
<g id="edge10" class="edge">
<title>Node1&#45;&gt;Node11</title>
<path fill="none" stroke="midnightblue" d="M207.32,-402.19C218.15,-434.6 244.53,-500.06 290,-535 295.75,-539.42 302.47,-542.81 309.41,-545.42"/>
<polygon fill="midnightblue" stroke="midnightblue" points="210.62,-401.01 204.24,-392.56 203.95,-403.15 210.62,-401.01"/>
</g>
<!-- Node12 -->
<g id="node12" class="node">
<title>Node12</title>
<g id="a_node12"><a xlink:href="class_ogre_1_1_movable_plane.html" target="_top" xlink:title="Definition of a Plane that may be attached to a node, and the derived details of it retrieved simply.">
<polygon fill="none" stroke="black" points="308.5,-506.5 308.5,-525.5 412.5,-525.5 412.5,-506.5 308.5,-506.5"/>
<text text-anchor="middle" x="360.5" y="-513.5" font-family="Helvetica,sans-Serif" font-size="10.00">Ogre::MovablePlane</text>
</a>
</g>
</g>
<!-- Node1&#45;&gt;Node12 -->
<g id="edge11" class="edge">
<title>Node1&#45;&gt;Node12</title>
<path fill="none" stroke="midnightblue" d="M210.94,-401.64C224.79,-427.08 253.03,-472.31 290,-497 295.83,-500.89 302.43,-503.99 309.19,-506.45"/>
<polygon fill="midnightblue" stroke="midnightblue" points="213.96,-399.86 206.2,-392.65 207.77,-403.13 213.96,-399.86"/>
</g>
<!-- Node13 -->
<g id="node13" class="node">
<title>Node13</title>
<g id="a_node13"><a xlink:href="class_ogre_1_1_null_entity.html" target="_top" xlink:title=" ">
<polygon fill="none" stroke="black" points="319,-468.5 319,-487.5 402,-487.5 402,-468.5 319,-468.5"/>
<text text-anchor="middle" x="360.5" y="-475.5" font-family="Helvetica,sans-Serif" font-size="10.00">Ogre::NullEntity</text>
</a>
</g>
</g>
<!-- Node1&#45;&gt;Node13 -->
<g id="edge12" class="edge">
<title>Node1&#45;&gt;Node13</title>
<path fill="none" stroke="midnightblue" d="M217.21,-400.41C233.72,-417.69 261.26,-443.73 290,-459 298.84,-463.69 308.94,-467.31 318.65,-470.06"/>
<polygon fill="midnightblue" stroke="midnightblue" points="219.41,-397.64 210.03,-392.72 214.3,-402.41 219.41,-397.64"/>
</g>
<!-- Node14 -->
<g id="node14" class="node">
<title>Node14</title>
<g id="a_node14"><a xlink:href="class_ogre_1_1_particle_system.html" target="_top" xlink:title="Class defining particle system based special effects.">
<polygon fill="none" stroke="black" points="306.5,-430.5 306.5,-449.5 414.5,-449.5 414.5,-430.5 306.5,-430.5"/>
<text text-anchor="middle" x="360.5" y="-437.5" font-family="Helvetica,sans-Serif" font-size="10.00">Ogre::ParticleSystem</text>
</a>
</g>
</g>
<!-- Node1&#45;&gt;Node14 -->
<g id="edge13" class="edge">
<title>Node1&#45;&gt;Node14</title>
<path fill="none" stroke="midnightblue" d="M230.97,-396.87C247.99,-404.58 269.94,-413.99 290,-421 299.92,-424.47 310.81,-427.7 320.97,-430.49"/>
<polygon fill="midnightblue" stroke="midnightblue" points="232.12,-393.55 221.57,-392.57 229.2,-399.91 232.12,-393.55"/>
</g>
<!-- Node15 -->
<g id="node15" class="node">
<title>Node15</title>
<g id="a_node15"><a xlink:href="class_ogre_1_1_rectangle2_d.html" target="_top" xlink:title=" ">
<polygon fill="none" stroke="black" points="311.5,-392.5 311.5,-411.5 409.5,-411.5 409.5,-392.5 311.5,-392.5"/>
<text text-anchor="middle" x="360.5" y="-399.5" font-family="Helvetica,sans-Serif" font-size="10.00">Ogre::Rectangle2D</text>
</a>
</g>
</g>
<!-- Node1&#45;&gt;Node15 -->
<g id="edge14" class="edge">
<title>Node1&#45;&gt;Node15</title>
<path fill="none" stroke="midnightblue" d="M264.26,-390.55C279.95,-392.43 296.53,-394.43 311.38,-396.21"/>
<polygon fill="midnightblue" stroke="midnightblue" points="264.46,-387.05 254.11,-389.33 263.62,-394 264.46,-387.05"/>
</g>
<!-- Node16 -->
<g id="node16" class="node">
<title>Node16</title>
<g id="a_node16"><a xlink:href="class_ogre_1_1v1_1_1_billboard_chain.html" target="_top" xlink:title="Allows the rendering of a chain of connected billboards.">
<polygon fill="none" stroke="black" points="301,-354.5 301,-373.5 420,-373.5 420,-354.5 301,-354.5"/>
<text text-anchor="middle" x="360.5" y="-361.5" font-family="Helvetica,sans-Serif" font-size="10.00">Ogre::v1::BillboardChain</text>
</a>
</g>
</g>
<!-- Node1&#45;&gt;Node16 -->
<g id="edge15" class="edge">
<title>Node1&#45;&gt;Node16</title>
<path fill="none" stroke="midnightblue" d="M264.13,-375.47C276.24,-374.01 288.88,-372.49 300.85,-371.05"/>
<polygon fill="midnightblue" stroke="midnightblue" points="263.62,-372 254.11,-376.67 264.46,-378.95 263.62,-372"/>
</g>
<!-- Node18 -->
<g id="node18" class="node">
<title>Node18</title>
<g id="a_node18"><a xlink:href="class_ogre_1_1v1_1_1_billboard_set.html" target="_top" xlink:title="A collection of billboards (faces which are always facing the given direction) with the same (default...">
<polygon fill="none" stroke="black" points="305.5,-316.5 305.5,-335.5 415.5,-335.5 415.5,-316.5 305.5,-316.5"/>
<text text-anchor="middle" x="360.5" y="-323.5" font-family="Helvetica,sans-Serif" font-size="10.00">Ogre::v1::BillboardSet</text>
</a>
</g>
</g>
<!-- Node1&#45;&gt;Node18 -->
<g id="edge17" class="edge">
<title>Node1&#45;&gt;Node18</title>
<path fill="none" stroke="midnightblue" d="M230.97,-369.13C247.99,-361.42 269.94,-352.01 290,-345 299.92,-341.53 310.81,-338.3 320.97,-335.51"/>
<polygon fill="midnightblue" stroke="midnightblue" points="229.2,-366.09 221.57,-373.43 232.12,-372.45 229.2,-366.09"/>
</g>
<!-- Node19 -->
<g id="node19" class="node">
<title>Node19</title>
<g id="a_node19"><a xlink:href="class_ogre_1_1v1_1_1_entity.html" target="_top" xlink:title="Defines an instance of a discrete, movable object based on a Mesh.">
<polygon fill="none" stroke="black" points="320,-278.5 320,-297.5 401,-297.5 401,-278.5 320,-278.5"/>
<text text-anchor="middle" x="360.5" y="-285.5" font-family="Helvetica,sans-Serif" font-size="10.00">Ogre::v1::Entity</text>
</a>
</g>
</g>
<!-- Node1&#45;&gt;Node19 -->
<g id="edge18" class="edge">
<title>Node1&#45;&gt;Node19</title>
<path fill="none" stroke="midnightblue" d="M217.21,-365.59C233.72,-348.31 261.26,-322.27 290,-307 299.17,-302.13 309.7,-298.42 319.74,-295.63"/>
<polygon fill="midnightblue" stroke="midnightblue" points="214.3,-363.59 210.03,-373.28 219.41,-368.36 214.3,-363.59"/>
</g>
<!-- Node20 -->
<g id="node20" class="node">
<title>Node20</title>
<g id="a_node20"><a xlink:href="class_ogre_1_1v1_1_1_manual_object.html" target="_top" xlink:title="Class providing a much simplified interface to generating manual objects with custom geometry.">
<polygon fill="none" stroke="black" points="302,-240.5 302,-259.5 419,-259.5 419,-240.5 302,-240.5"/>
<text text-anchor="middle" x="360.5" y="-247.5" font-family="Helvetica,sans-Serif" font-size="10.00">Ogre::v1::ManualObject</text>
</a>
</g>
</g>
<!-- Node1&#45;&gt;Node20 -->
<g id="edge19" class="edge">
<title>Node1&#45;&gt;Node20</title>
<path fill="none" stroke="midnightblue" d="M210.94,-364.36C224.79,-338.92 253.03,-293.69 290,-269 295.83,-265.11 302.43,-262.01 309.19,-259.55"/>
<polygon fill="midnightblue" stroke="midnightblue" points="207.77,-362.87 206.2,-373.35 213.96,-366.14 207.77,-362.87"/>
</g>
<!-- Node21 -->
<g id="node21" class="node">
<title>Node21</title>
<g id="a_node21"><a xlink:href="class_ogre_1_1v1_1_1_overlay.html" target="_top" xlink:title="Represents a layer which is rendered on top of the &#39;normal&#39; scene contents.">
<polygon fill="none" stroke="black" points="315.5,-202.5 315.5,-221.5 405.5,-221.5 405.5,-202.5 315.5,-202.5"/>
<text text-anchor="middle" x="360.5" y="-209.5" font-family="Helvetica,sans-Serif" font-size="10.00">Ogre::v1::Overlay</text>
</a>
</g>
</g>
<!-- Node1&#45;&gt;Node21 -->
<g id="edge20" class="edge">
<title>Node1&#45;&gt;Node21</title>
<path fill="none" stroke="midnightblue" d="M207.32,-363.81C218.15,-331.4 244.53,-265.94 290,-231 297.34,-225.36 306.24,-221.39 315.19,-218.6"/>
<polygon fill="midnightblue" stroke="midnightblue" points="203.95,-362.85 204.24,-373.44 210.62,-364.99 203.95,-362.85"/>
</g>
<!-- Node22 -->
<g id="node22" class="node">
<title>Node22</title>
<g id="a_node22"><a xlink:href="class_ogre_1_1v1_1_1_rectangle2_d.html" target="_top" xlink:title="Allows the rendering of a simple 2D rectangle This class renders a simple 2D rectangle; this rectangl...">
<polygon fill="none" stroke="black" points="304,-164.5 304,-183.5 417,-183.5 417,-164.5 304,-164.5"/>
<text text-anchor="middle" x="360.5" y="-171.5" font-family="Helvetica,sans-Serif" font-size="10.00">Ogre::v1::Rectangle2D</text>
</a>
</g>
</g>
<!-- Node1&#45;&gt;Node22 -->
<g id="edge21" class="edge">
<title>Node1&#45;&gt;Node22</title>
<path fill="none" stroke="midnightblue" d="M204.97,-363.44C212.86,-324.85 235.83,-238.71 290,-193 294.59,-189.13 299.9,-186.04 305.5,-183.58"/>
<polygon fill="midnightblue" stroke="midnightblue" points="201.51,-362.91 203.06,-373.39 208.38,-364.23 201.51,-362.91"/>
</g>
<!-- Node23 -->
<g id="node23" class="node">
<title>Node23</title>
<g id="a_node23"><a xlink:href="class_ogre_1_1v1_1_1_simple_renderable.html" target="_top" xlink:title="Simple implementation of MovableObject and Renderable for single&#45;part custom objects.">
<polygon fill="none" stroke="black" points="292.5,-126.5 292.5,-145.5 428.5,-145.5 428.5,-126.5 292.5,-126.5"/>
<text text-anchor="middle" x="360.5" y="-133.5" font-family="Helvetica,sans-Serif" font-size="10.00">Ogre::v1::SimpleRenderable</text>
</a>
</g>
</g>
<!-- Node1&#45;&gt;Node23 -->
<g id="edge22" class="edge">
<title>Node1&#45;&gt;Node23</title>
<path fill="none" stroke="midnightblue" d="M203.33,-362.96C208.46,-318.63 227.05,-211.76 290,-155 294.27,-151.15 299.26,-148.07 304.55,-145.6"/>
<polygon fill="midnightblue" stroke="midnightblue" points="199.83,-362.72 202.27,-373.03 206.79,-363.45 199.83,-362.72"/>
</g>
<!-- Node25 -->
<g id="node25" class="node">
<title>Node25</title>
<g id="a_node25"><a xlink:href="class_ogre_1_1v1_1_1_static_geometry_1_1_region.html" target="_top" xlink:title="The details of a topological region which is the highest level of partitioning for this class.">
<polygon fill="none" stroke="black" points="298,-77 298,-107 423,-107 423,-77 298,-77"/>
<text text-anchor="start" x="306" y="-95" font-family="Helvetica,sans-Serif" font-size="10.00">Ogre::v1::StaticGeometry</text>
<text text-anchor="middle" x="360.5" y="-84" font-family="Helvetica,sans-Serif" font-size="10.00">::Region</text>
</a>
</g>
</g>
<!-- Node1&#45;&gt;Node25 -->
<g id="edge24" class="edge">
<title>Node1&#45;&gt;Node25</title>
<path fill="none" stroke="midnightblue" d="M202.4,-363.09C205.68,-314.37 220.76,-187.93 290,-117 293.76,-113.15 298.16,-109.88 302.88,-107.12"/>
<polygon fill="midnightblue" stroke="midnightblue" points="198.9,-363.06 201.82,-373.24 205.89,-363.46 198.9,-363.06"/>
</g>
<!-- Node26 -->
<g id="node26" class="node">
<title>Node26</title>
<g id="a_node26"><a xlink:href="class_ogre_1_1_voxel_visualizer.html" target="_top" xlink:title=" ">
<polygon fill="none" stroke="black" points="306.5,-38.5 306.5,-57.5 414.5,-57.5 414.5,-38.5 306.5,-38.5"/>
<text text-anchor="middle" x="360.5" y="-45.5" font-family="Helvetica,sans-Serif" font-size="10.00">Ogre::VoxelVisualizer</text>
</a>
</g>
</g>
<!-- Node1&#45;&gt;Node26 -->
<g id="edge25" class="edge">
<title>Node1&#45;&gt;Node26</title>
<path fill="none" stroke="midnightblue" d="M200.81,-363.17C200.02,-307.92 205.68,-150.8 290,-67 294.61,-62.41 300.22,-58.91 306.23,-56.23"/>
<polygon fill="midnightblue" stroke="midnightblue" points="197.31,-363.44 201.05,-373.35 204.31,-363.27 197.31,-363.44"/>
</g>
<!-- Node27 -->
<g id="node27" class="node">
<title>Node27</title>
<g id="a_node27"><a xlink:href="class_ogre_1_1_wire_aabb.html" target="_top" xlink:title="Helper class to display the Aabb of a MovableObject as lines.">
<polygon fill="none" stroke="black" points="318.5,-0.5 318.5,-19.5 402.5,-19.5 402.5,-0.5 318.5,-0.5"/>
<text text-anchor="middle" x="360.5" y="-7.5" font-family="Helvetica,sans-Serif" font-size="10.00">Ogre::WireAabb</text>
</a>
</g>
</g>
<!-- Node1&#45;&gt;Node27 -->
<g id="edge26" class="edge">
<title>Node1&#45;&gt;Node27</title>
<path fill="none" stroke="midnightblue" d="M203.8,-363.36C212.04,-296.31 242.15,-77.91 290,-29 297.52,-21.31 307.83,-16.64 318.21,-13.84"/>
<polygon fill="midnightblue" stroke="midnightblue" points="200.31,-363.07 202.59,-373.41 207.26,-363.9 200.31,-363.07"/>
</g>
<!-- Node2 -->
<g id="node2" class="node">
<title>Node2</title>
<g id="a_node2"><a xlink:href="class_ogre_1_1_animable_object.html" target="_top" xlink:title="Defines an interface to classes which have one or more AnimableValue instances to expose.">
<polygon fill="none" stroke="black" points="0,-411.5 0,-430.5 111,-430.5 111,-411.5 0,-411.5"/>
<text text-anchor="middle" x="55.5" y="-418.5" font-family="Helvetica,sans-Serif" font-size="10.00">Ogre::AnimableObject</text>
</a>
</g>
</g>
<!-- Node2&#45;&gt;Node1 -->
<g id="edge1" class="edge">
<title>Node2&#45;&gt;Node1</title>
<path fill="none" stroke="midnightblue" d="M102.31,-408.83C122.09,-403.57 144.88,-397.51 163.43,-392.59"/>
<polygon fill="midnightblue" stroke="midnightblue" points="101.35,-405.46 92.58,-411.41 103.15,-412.23 101.35,-405.46"/>
</g>
<!-- Node3 -->
<g id="node3" class="node">
<title>Node3</title>
<g id="a_node3"><a xlink:href="class_ogre_1_1_allocated_object.html" target="_top" xlink:title="Superclass for all objects that wish to use custom memory allocators when their new / delete operator...">
<polygon fill="none" stroke="black" points="18,-373.5 18,-392.5 93,-392.5 93,-373.5 18,-373.5"/>
<text text-anchor="middle" x="55.5" y="-380.5" font-family="Helvetica,sans-Serif" font-size="10.00">MovableAlloc</text>
</a>
</g>
</g>
<!-- Node3&#45;&gt;Node1 -->
<g id="edge2" class="edge">
<title>Node3&#45;&gt;Node1</title>
<path fill="none" stroke="midnightblue" d="M103.61,-383C117.47,-383 132.72,-383 146.9,-383"/>
<polygon fill="midnightblue" stroke="midnightblue" points="103.33,-379.5 93.33,-383 103.33,-386.5 103.33,-379.5"/>
</g>
<!-- Node4 -->
<g id="node4" class="node">
<title>Node4</title>
<g id="a_node4"><a xlink:href="class_ogre_1_1_id_object.html" target="_top" xlink:title=" ">
<polygon fill="none" stroke="black" points="16,-335.5 16,-354.5 95,-354.5 95,-335.5 16,-335.5"/>
<text text-anchor="middle" x="55.5" y="-342.5" font-family="Helvetica,sans-Serif" font-size="10.00">Ogre::IdObject</text>
</a>
</g>
</g>
<!-- Node4&#45;&gt;Node1 -->
<g id="edge3" class="edge">
<title>Node4&#45;&gt;Node1</title>
<path fill="none" stroke="midnightblue" d="M102.31,-357.17C122.09,-362.43 144.88,-368.49 163.43,-373.41"/>
<polygon fill="midnightblue" stroke="midnightblue" points="103.15,-353.77 92.58,-354.59 101.35,-360.54 103.15,-353.77"/>
</g>
<!-- Node7 -->
<g id="node7" class="node">
<title>Node7</title>
<g id="a_node7"><a xlink:href="class_ogre_1_1_camera.html" target="_top" xlink:title="A viewpoint from which the scene will be rendered.">
<polygon fill="none" stroke="black" points="496,-696.5 496,-715.5 572,-715.5 572,-696.5 496,-696.5"/>
<text text-anchor="middle" x="534" y="-703.5" font-family="Helvetica,sans-Serif" font-size="10.00">Ogre::Camera</text>
</a>
</g>
</g>
<!-- Node6&#45;&gt;Node7 -->
<g id="edge6" class="edge">
<title>Node6&#45;&gt;Node7</title>
<path fill="none" stroke="midnightblue" d="M409.69,-706C437.02,-706 470.68,-706 495.93,-706"/>
<polygon fill="midnightblue" stroke="midnightblue" points="409.56,-702.5 399.56,-706 409.56,-709.5 409.56,-702.5"/>
</g>
<!-- Node17 -->
<g id="node17" class="node">
<title>Node17</title>
<g id="a_node17"><a xlink:href="class_ogre_1_1v1_1_1_ribbon_trail.html" target="_top" xlink:title="Subclass of BillboardChain which automatically leaves a trail behind one or more Node instances.">
<polygon fill="none" stroke="black" points="481,-354.5 481,-373.5 587,-373.5 587,-354.5 481,-354.5"/>
<text text-anchor="middle" x="534" y="-361.5" font-family="Helvetica,sans-Serif" font-size="10.00">Ogre::v1::RibbonTrail</text>
</a>
</g>
</g>
<!-- Node16&#45;&gt;Node17 -->
<g id="edge16" class="edge">
<title>Node16&#45;&gt;Node17</title>
<path fill="none" stroke="midnightblue" d="M430.36,-364C447.17,-364 464.87,-364 480.76,-364"/>
<polygon fill="midnightblue" stroke="midnightblue" points="430.04,-360.5 420.04,-364 430.04,-367.5 430.04,-360.5"/>
</g>
<!-- Node24 -->
<g id="node24" class="node">
<title>Node24</title>
<g id="a_node24"><a xlink:href="class_ogre_1_1v1_1_1_wire_bounding_box.html" target="_top" xlink:title="Allows the rendering of a wireframe bounding box.">
<polygon fill="none" stroke="black" points="467,-126.5 467,-145.5 601,-145.5 601,-126.5 467,-126.5"/>
<text text-anchor="middle" x="534" y="-133.5" font-family="Helvetica,sans-Serif" font-size="10.00">Ogre::v1::WireBoundingBox</text>
</a>
</g>
</g>
<!-- Node23&#45;&gt;Node24 -->
<g id="edge23" class="edge">
<title>Node23&#45;&gt;Node24</title>
<path fill="none" stroke="midnightblue" d="M438.83,-136C448.15,-136 457.61,-136 466.75,-136"/>
<polygon fill="midnightblue" stroke="midnightblue" points="438.79,-132.5 428.79,-136 438.79,-139.5 438.79,-132.5"/>
</g>
</g>
</svg>
