<?xml version="1.0" encoding="UTF-8" standalone="no"?>
<!DOCTYPE svg PUBLIC "-//W3C//DTD SVG 1.1//EN"
 "http://www.w3.org/Graphics/SVG/1.1/DTD/svg11.dtd">
<!-- Generated by graphviz version 2.42.3 ()
 -->
<!-- Title: OgreMaxExport_TabPaneHandler Pages: 1 -->
<svg width="372pt" height="180pt"
 viewBox="0.00 0.00 372.00 180.00" xmlns="http://www.w3.org/2000/svg" xmlns:xlink="http://www.w3.org/1999/xlink">
<g id="graph0" class="graph" transform="scale(1 1) rotate(0) translate(4 176)">
<title>OgreMaxExport_TabPaneHandler</title>
<!-- Node1 -->
<g id="node1" class="node">
<title>Node1</title>
<g id="a_node1"><a xlink:title=" ">
<polygon fill="#bfbfbf" stroke="black" points="0,-76.5 0,-95.5 161,-95.5 161,-76.5 0,-76.5"/>
<text text-anchor="middle" x="80.5" y="-83.5" font-family="Helvetica,sans-Serif" font-size="10.00">OgreMaxExport_TabPaneHandler</text>
</a>
</g>
</g>
<!-- Node2 -->
<g id="node2" class="node">
<title>Node2</title>
<g id="a_node2"><a xlink:href="class_ogre_max_export___general.html" target="_top" xlink:title=" ">
<polygon fill="none" stroke="black" points="219.5,-152.5 219.5,-171.5 341.5,-171.5 341.5,-152.5 219.5,-152.5"/>
<text text-anchor="middle" x="280.5" y="-159.5" font-family="Helvetica,sans-Serif" font-size="10.00">OgreMaxExport_General</text>
</a>
</g>
</g>
<!-- Node1&#45;&gt;Node2 -->
<g id="edge1" class="edge">
<title>Node1&#45;&gt;Node2</title>
<path fill="none" stroke="midnightblue" d="M106.53,-100.48C129.44,-113.21 164.6,-131.45 197,-143 207.38,-146.7 218.76,-149.86 229.67,-152.49"/>
<polygon fill="midnightblue" stroke="midnightblue" points="108.23,-97.42 97.8,-95.56 104.8,-103.52 108.23,-97.42"/>
</g>
<!-- Node3 -->
<g id="node3" class="node">
<title>Node3</title>
<g id="a_node3"><a xlink:href="class_ogre_max_export___material.html" target="_top" xlink:title=" ">
<polygon fill="none" stroke="black" points="219.5,-114.5 219.5,-133.5 341.5,-133.5 341.5,-114.5 219.5,-114.5"/>
<text text-anchor="middle" x="280.5" y="-121.5" font-family="Helvetica,sans-Serif" font-size="10.00">OgreMaxExport_Material</text>
</a>
</g>
</g>
<!-- Node1&#45;&gt;Node3 -->
<g id="edge2" class="edge">
<title>Node1&#45;&gt;Node3</title>
<path fill="none" stroke="midnightblue" d="M141.37,-97.49C169.62,-102.91 202.94,-109.31 229.77,-114.46"/>
<polygon fill="midnightblue" stroke="midnightblue" points="141.69,-93.99 131.21,-95.54 140.37,-100.86 141.69,-93.99"/>
</g>
<!-- Node4 -->
<g id="node4" class="node">
<title>Node4</title>
<g id="a_node4"><a xlink:href="class_ogre_max_export___mesh.html" target="_top" xlink:title=" ">
<polygon fill="none" stroke="black" points="224.5,-76.5 224.5,-95.5 336.5,-95.5 336.5,-76.5 224.5,-76.5"/>
<text text-anchor="middle" x="280.5" y="-83.5" font-family="Helvetica,sans-Serif" font-size="10.00">OgreMaxExport_Mesh</text>
</a>
</g>
</g>
<!-- Node1&#45;&gt;Node4 -->
<g id="edge3" class="edge">
<title>Node1&#45;&gt;Node4</title>
<path fill="none" stroke="midnightblue" d="M171.43,-86C189.45,-86 207.87,-86 224.29,-86"/>
<polygon fill="midnightblue" stroke="midnightblue" points="171.18,-82.5 161.18,-86 171.18,-89.5 171.18,-82.5"/>
</g>
<!-- Node5 -->
<g id="node5" class="node">
<title>Node5</title>
<g id="a_node5"><a xlink:href="class_ogre_max_export___skeletal_animation.html" target="_top" xlink:title=" ">
<polygon fill="none" stroke="black" points="197,-38.5 197,-57.5 364,-57.5 364,-38.5 197,-38.5"/>
<text text-anchor="middle" x="280.5" y="-45.5" font-family="Helvetica,sans-Serif" font-size="10.00">OgreMaxExport_SkeletalAnimation</text>
</a>
</g>
</g>
<!-- Node1&#45;&gt;Node5 -->
<g id="edge4" class="edge">
<title>Node1&#45;&gt;Node5</title>
<path fill="none" stroke="midnightblue" d="M141.37,-74.51C169.62,-69.09 202.94,-62.69 229.77,-57.54"/>
<polygon fill="midnightblue" stroke="midnightblue" points="140.37,-71.14 131.21,-76.46 141.69,-78.01 140.37,-71.14"/>
</g>
<!-- Node6 -->
<g id="node6" class="node">
<title>Node6</title>
<g id="a_node6"><a xlink:href="class_ogre_max_export___vertex_animation.html" target="_top" xlink:title=" ">
<polygon fill="none" stroke="black" points="201,-0.5 201,-19.5 360,-19.5 360,-0.5 201,-0.5"/>
<text text-anchor="middle" x="280.5" y="-7.5" font-family="Helvetica,sans-Serif" font-size="10.00">OgreMaxExport_VertexAnimation</text>
</a>
</g>
</g>
<!-- Node1&#45;&gt;Node6 -->
<g id="edge5" class="edge">
<title>Node1&#45;&gt;Node6</title>
<path fill="none" stroke="midnightblue" d="M106.53,-71.52C129.44,-58.79 164.6,-40.55 197,-29 207.38,-25.3 218.76,-22.14 229.67,-19.51"/>
<polygon fill="midnightblue" stroke="midnightblue" points="104.8,-68.48 97.8,-76.44 108.23,-74.58 104.8,-68.48"/>
</g>
</g>
</svg>
