<?xml version="1.0" encoding="UTF-8" standalone="no"?>
<!DOCTYPE svg PUBLIC "-//W3C//DTD SVG 1.1//EN"
 "http://www.w3.org/Graphics/SVG/1.1/DTD/svg11.dtd">
<!-- Generated by graphviz version 2.42.3 ()
 -->
<!-- Title: Graphical Class Hierarchy Pages: 1 -->
<svg width="318pt" height="104pt"
 viewBox="0.00 0.00 318.00 104.00" xmlns="http://www.w3.org/2000/svg" xmlns:xlink="http://www.w3.org/1999/xlink">
<g id="graph0" class="graph" transform="scale(1 1) rotate(0) translate(4 100)">
<title>Graphical Class Hierarchy</title>
<!-- Node2451 -->
<g id="node1" class="node">
<title>Node2451</title>
<g id="a_node1"><a xlink:title=" ">
<polygon fill="none" stroke="#bfbfbf" points="25,-76.5 25,-95.5 109,-95.5 109,-76.5 25,-76.5"/>
<text text-anchor="middle" x="67" y="-83.5" font-family="Helvetica,sans-Serif" font-size="10.00">ITreeEnumProc</text>
</a>
</g>
</g>
<!-- Node3 -->
<g id="node2" class="node">
<title>Node3</title>
<g id="a_node2"><a xlink:href="class_ogre_max_1_1_mesh_x_m_l_exporter.html" target="_top" xlink:title=" ">
<polygon fill="none" stroke="black" points="170,-76.5 170,-95.5 310,-95.5 310,-76.5 170,-76.5"/>
<text text-anchor="middle" x="240" y="-83.5" font-family="Helvetica,sans-Serif" font-size="10.00">OgreMax::MeshXMLExporter</text>
</a>
</g>
</g>
<!-- Node2451&#45;&gt;Node3 -->
<g id="edge1" class="edge">
<title>Node2451&#45;&gt;Node3</title>
<path fill="none" stroke="midnightblue" d="M119.52,-86C135.39,-86 153.13,-86 169.97,-86"/>
<polygon fill="midnightblue" stroke="midnightblue" points="119.39,-82.5 109.39,-86 119.39,-89.5 119.39,-82.5"/>
</g>
<!-- Node0 -->
<g id="node3" class="node">
<title>Node0</title>
<g id="a_node3"><a xlink:href="class_ogre_max_1_1_ogre_max_exporter.html" target="_top" xlink:title=" ">
<polygon fill="none" stroke="black" points="0,-38.5 0,-57.5 134,-57.5 134,-38.5 0,-38.5"/>
<text text-anchor="middle" x="67" y="-45.5" font-family="Helvetica,sans-Serif" font-size="10.00">OgreMax::OgreMaxExporter</text>
</a>
</g>
</g>
<!-- Node0&#45;&gt;Node3 -->
<g id="edge4" class="edge">
<title>Node0&#45;&gt;Node3</title>
<path fill="none" stroke="midnightblue" d="M121.21,-59.82C145.32,-65.18 173.44,-71.43 196.16,-76.48"/>
<polygon fill="midnightblue" stroke="midnightblue" points="121.67,-56.34 111.15,-57.59 120.15,-63.18 121.67,-56.34"/>
</g>
<!-- Node1 -->
<g id="node4" class="node">
<title>Node1</title>
<g id="a_node4"><a xlink:href="class_ogre_max_1_1_material_exporter.html" target="_top" xlink:title=" ">
<polygon fill="none" stroke="black" points="175,-38.5 175,-57.5 305,-57.5 305,-38.5 175,-38.5"/>
<text text-anchor="middle" x="240" y="-45.5" font-family="Helvetica,sans-Serif" font-size="10.00">OgreMax::MaterialExporter</text>
</a>
</g>
</g>
<!-- Node0&#45;&gt;Node1 -->
<g id="edge2" class="edge">
<title>Node0&#45;&gt;Node1</title>
<path fill="none" stroke="midnightblue" d="M144.23,-48C154.42,-48 164.79,-48 174.75,-48"/>
<polygon fill="midnightblue" stroke="midnightblue" points="144.11,-44.5 134.11,-48 144.11,-51.5 144.11,-44.5"/>
</g>
<!-- Node2 -->
<g id="node5" class="node">
<title>Node2</title>
<g id="a_node5"><a xlink:href="class_ogre_max_1_1_mesh_exporter.html" target="_top" xlink:title=" ">
<polygon fill="none" stroke="black" points="180.5,-0.5 180.5,-19.5 299.5,-19.5 299.5,-0.5 180.5,-0.5"/>
<text text-anchor="middle" x="240" y="-7.5" font-family="Helvetica,sans-Serif" font-size="10.00">OgreMax::MeshExporter</text>
</a>
</g>
</g>
<!-- Node0&#45;&gt;Node2 -->
<g id="edge3" class="edge">
<title>Node0&#45;&gt;Node2</title>
<path fill="none" stroke="midnightblue" d="M121.21,-36.18C145.32,-30.82 173.44,-24.57 196.16,-19.52"/>
<polygon fill="midnightblue" stroke="midnightblue" points="120.15,-32.82 111.15,-38.41 121.67,-39.66 120.15,-32.82"/>
</g>
</g>
</svg>
