<?xml version="1.0" encoding="UTF-8" standalone="no"?>
<!DOCTYPE svg PUBLIC "-//W3C//DTD SVG 1.1//EN"
 "http://www.w3.org/Graphics/SVG/1.1/DTD/svg11.dtd">
<!-- Generated by graphviz version 2.42.3 ()
 -->
<!-- Title: Graphical Class Hierarchy Pages: 1 -->
<svg width="299pt" height="142pt"
 viewBox="0.00 0.00 299.00 142.00" xmlns="http://www.w3.org/2000/svg" xmlns:xlink="http://www.w3.org/1999/xlink">
<g id="graph0" class="graph" transform="scale(1 1) rotate(0) translate(4 138)">
<title>Graphical Class Hierarchy</title>
<!-- Node626 -->
<g id="node1" class="node">
<title>Node626</title>
<g id="a_node1"><a xlink:title=" ">
<polygon fill="none" stroke="#bfbfbf" points="40.5,-114.5 40.5,-133.5 128.5,-133.5 128.5,-114.5 40.5,-114.5"/>
<text text-anchor="middle" x="84.5" y="-121.5" font-family="Helvetica,sans-Serif" font-size="10.00">SdkTrayListener</text>
</a>
</g>
</g>
<!-- Node1 -->
<g id="node2" class="node">
<title>Node1</title>
<g id="a_node2"><a xlink:href="class_ogre_framework.html" target="_top" xlink:title=" ">
<polygon fill="none" stroke="black" points="205,-57.5 205,-76.5 291,-76.5 291,-57.5 205,-57.5"/>
<text text-anchor="middle" x="248" y="-64.5" font-family="Helvetica,sans-Serif" font-size="10.00">OgreFramework</text>
</a>
</g>
</g>
<!-- Node626&#45;&gt;Node1 -->
<g id="edge1" class="edge">
<title>Node626&#45;&gt;Node1</title>
<path fill="none" stroke="#8b1a1a" d="M138.26,-113.93C148.58,-111.42 159.22,-108.44 169,-105 190.88,-97.3 214.66,-85.11 230.14,-76.62"/>
<polygon fill="#8b1a1a" stroke="#8b1a1a" points="137.46,-110.52 128.51,-116.19 139.05,-117.34 137.46,-110.52"/>
</g>
<!-- Node611 -->
<g id="node3" class="node">
<title>Node611</title>
<g id="a_node3"><a xlink:title=" ">
<polygon fill="none" stroke="#bfbfbf" points="50.5,-0.5 50.5,-19.5 118.5,-19.5 118.5,-0.5 50.5,-0.5"/>
<text text-anchor="middle" x="84.5" y="-7.5" font-family="Helvetica,sans-Serif" font-size="10.00">KeyListener</text>
</a>
</g>
</g>
<!-- Node611&#45;&gt;Node1 -->
<g id="edge3" class="edge">
<title>Node611&#45;&gt;Node1</title>
<path fill="none" stroke="#8b1a1a" d="M128.33,-17.77C141.55,-20.69 156.04,-24.44 169,-29 190.88,-36.7 214.66,-48.89 230.14,-57.38"/>
<polygon fill="#8b1a1a" stroke="#8b1a1a" points="129.02,-14.34 118.51,-15.69 127.57,-21.19 129.02,-14.34"/>
</g>
<!-- Node612 -->
<g id="node4" class="node">
<title>Node612</title>
<g id="a_node4"><a xlink:href="class_demo_app.html" target="_top" xlink:title=" ">
<polygon fill="none" stroke="black" points="218.5,-0.5 218.5,-19.5 277.5,-19.5 277.5,-0.5 218.5,-0.5"/>
<text text-anchor="middle" x="248" y="-7.5" font-family="Helvetica,sans-Serif" font-size="10.00">DemoApp</text>
</a>
</g>
</g>
<!-- Node611&#45;&gt;Node612 -->
<g id="edge2" class="edge">
<title>Node611&#45;&gt;Node612</title>
<path fill="none" stroke="midnightblue" d="M128.63,-10C157.03,-10 193.41,-10 218.3,-10"/>
<polygon fill="midnightblue" stroke="midnightblue" points="128.57,-6.5 118.57,-10 128.57,-13.5 128.57,-6.5"/>
</g>
<!-- Node610 -->
<g id="node5" class="node">
<title>Node610</title>
<g id="a_node5"><a xlink:title=" ">
<polygon fill="none" stroke="#bfbfbf" points="44,-76.5 44,-95.5 125,-95.5 125,-76.5 44,-76.5"/>
<text text-anchor="middle" x="84.5" y="-83.5" font-family="Helvetica,sans-Serif" font-size="10.00">MouseListener</text>
</a>
</g>
</g>
<!-- Node610&#45;&gt;Node1 -->
<g id="edge4" class="edge">
<title>Node610&#45;&gt;Node1</title>
<path fill="none" stroke="#8b1a1a" d="M134.97,-80.18C157.3,-77.55 183.4,-74.48 204.79,-71.97"/>
<polygon fill="#8b1a1a" stroke="#8b1a1a" points="134.53,-76.71 125.01,-81.35 135.35,-83.66 134.53,-76.71"/>
</g>
<!-- Node0 -->
<g id="node6" class="node">
<title>Node0</title>
<g id="a_node6"><a xlink:href="class_ogre_1_1_singleton.html" target="_top" xlink:title=" ">
<polygon fill="none" stroke="black" points="0,-38.5 0,-57.5 169,-57.5 169,-38.5 0,-38.5"/>
<text text-anchor="middle" x="84.5" y="-45.5" font-family="Helvetica,sans-Serif" font-size="10.00">Ogre::Singleton&lt; OgreFramework &gt;</text>
</a>
</g>
</g>
<!-- Node0&#45;&gt;Node1 -->
<g id="edge5" class="edge">
<title>Node0&#45;&gt;Node1</title>
<path fill="none" stroke="midnightblue" d="M176.9,-58.75C186.62,-59.9 196.13,-61.02 204.85,-62.04"/>
<polygon fill="midnightblue" stroke="midnightblue" points="177.06,-55.25 166.72,-57.56 176.25,-62.2 177.06,-55.25"/>
</g>
</g>
</svg>
